%TF.GenerationSoftware,KiCad,Pcbnew,10.0.0*%
%TF.CreationDate,2026-04-25T21:36:31-07:00*%
%TF.ProjectId,MSPM0,4d53504d-302e-46b6-9963-61645f706362,rev?*%
%TF.SameCoordinates,Original*%
%TF.FileFunction,Soldermask,Top*%
%TF.FilePolarity,Negative*%
%FSLAX46Y46*%
G04 Gerber Fmt 4.6, Leading zero omitted, Abs format (unit mm)*
G04 Created by KiCad (PCBNEW 10.0.0) date 2026-04-25 21:36:31*
%MOMM*%
%LPD*%
G01*
G04 APERTURE LIST*
G04 Aperture macros list*
%AMRoundRect*
0 Rectangle with rounded corners*
0 $1 Rounding radius*
0 $2 $3 $4 $5 $6 $7 $8 $9 X,Y pos of 4 corners*
0 Add a 4 corners polygon primitive as box body*
4,1,4,$2,$3,$4,$5,$6,$7,$8,$9,$2,$3,0*
0 Add four circle primitives for the rounded corners*
1,1,$1+$1,$2,$3*
1,1,$1+$1,$4,$5*
1,1,$1+$1,$6,$7*
1,1,$1+$1,$8,$9*
0 Add four rect primitives between the rounded corners*
20,1,$1+$1,$2,$3,$4,$5,0*
20,1,$1+$1,$4,$5,$6,$7,0*
20,1,$1+$1,$6,$7,$8,$9,0*
20,1,$1+$1,$8,$9,$2,$3,0*%
G04 Aperture macros list end*
%ADD10RoundRect,0.225000X0.250000X-0.225000X0.250000X0.225000X-0.250000X0.225000X-0.250000X-0.225000X0*%
%ADD11RoundRect,0.150000X-0.512500X-0.150000X0.512500X-0.150000X0.512500X0.150000X-0.512500X0.150000X0*%
%ADD12C,0.650000*%
%ADD13RoundRect,0.150000X-0.425000X0.150000X-0.425000X-0.150000X0.425000X-0.150000X0.425000X0.150000X0*%
%ADD14RoundRect,0.075000X-0.500000X0.075000X-0.500000X-0.075000X0.500000X-0.075000X0.500000X0.075000X0*%
%ADD15O,2.100000X1.000000*%
%ADD16O,1.800000X1.000000*%
%ADD17C,2.000000*%
%ADD18RoundRect,0.250000X-0.400000X-0.300000X0.400000X-0.300000X0.400000X0.300000X-0.400000X0.300000X0*%
%ADD19RoundRect,0.250000X-0.475000X0.250000X-0.475000X-0.250000X0.475000X-0.250000X0.475000X0.250000X0*%
%ADD20C,0.800000*%
%ADD21C,6.400000*%
%ADD22RoundRect,0.050000X-0.112500X-0.050000X0.112500X-0.050000X0.112500X0.050000X-0.112500X0.050000X0*%
%ADD23RoundRect,0.050000X-0.050000X-0.112500X0.050000X-0.112500X0.050000X0.112500X-0.050000X0.112500X0*%
%ADD24RoundRect,0.225000X0.225000X0.250000X-0.225000X0.250000X-0.225000X-0.250000X0.225000X-0.250000X0*%
%ADD25RoundRect,0.250000X0.475000X-0.250000X0.475000X0.250000X-0.475000X0.250000X-0.475000X-0.250000X0*%
%ADD26RoundRect,0.225000X-0.225000X-0.250000X0.225000X-0.250000X0.225000X0.250000X-0.225000X0.250000X0*%
%ADD27RoundRect,0.250000X0.250000X0.475000X-0.250000X0.475000X-0.250000X-0.475000X0.250000X-0.475000X0*%
%ADD28C,2.374900*%
%ADD29C,0.990600*%
%ADD30C,0.787400*%
%ADD31RoundRect,0.075000X-0.662500X-0.075000X0.662500X-0.075000X0.662500X0.075000X-0.662500X0.075000X0*%
%ADD32RoundRect,0.075000X-0.075000X-0.662500X0.075000X-0.662500X0.075000X0.662500X-0.075000X0.662500X0*%
%ADD33RoundRect,0.087500X-0.662500X-0.087500X0.662500X-0.087500X0.662500X0.087500X-0.662500X0.087500X0*%
%ADD34RoundRect,0.225000X-0.250000X0.225000X-0.250000X-0.225000X0.250000X-0.225000X0.250000X0.225000X0*%
%ADD35RoundRect,0.250000X-0.250000X-0.475000X0.250000X-0.475000X0.250000X0.475000X-0.250000X0.475000X0*%
G04 APERTURE END LIST*
D10*
%TO.C,C10*%
X79250000Y-107025000D03*
X79250000Y-105475000D03*
%TD*%
D11*
%TO.C,D1*%
X65537500Y-98912500D03*
X65537500Y-99862500D03*
X65537500Y-100812500D03*
X67812500Y-100812500D03*
X67812500Y-99862500D03*
X67812500Y-98912500D03*
%TD*%
D12*
%TO.C,J1*%
X59855000Y-97360000D03*
X59855000Y-103140000D03*
D13*
X60930000Y-97050000D03*
X60930000Y-97850000D03*
D14*
X60930000Y-99000000D03*
X60930000Y-100000000D03*
X60930000Y-100500000D03*
X60930000Y-101500000D03*
D13*
X60930000Y-102650000D03*
X60930000Y-103450000D03*
X60930000Y-103450000D03*
X60930000Y-102650000D03*
D14*
X60930000Y-102000000D03*
X60930000Y-101000000D03*
X60930000Y-99500000D03*
X60930000Y-98500000D03*
D13*
X60930000Y-97850000D03*
X60930000Y-97050000D03*
D15*
X60355000Y-95930000D03*
D16*
X56175000Y-95930000D03*
D15*
X60355000Y-104570000D03*
D16*
X56175000Y-104570000D03*
%TD*%
D10*
%TO.C,C12*%
X97500000Y-102775000D03*
X97500000Y-101225000D03*
%TD*%
D11*
%TO.C,U1*%
X73612500Y-88800000D03*
X73612500Y-89750000D03*
X73612500Y-90700000D03*
X75887500Y-90700000D03*
X75887500Y-88800000D03*
%TD*%
D17*
%TO.C,FID1*%
X63750000Y-90000000D03*
%TD*%
%TO.C,FID2*%
X63250000Y-110250000D03*
%TD*%
D18*
%TO.C,X1*%
X81200000Y-107075000D03*
X83300000Y-107075000D03*
X83300000Y-105425000D03*
X81200000Y-105425000D03*
%TD*%
D19*
%TO.C,C5*%
X78000000Y-88800000D03*
X78000000Y-90700000D03*
%TD*%
D20*
%TO.C,MH4*%
X100600000Y-110000000D03*
X101302944Y-108302944D03*
X101302944Y-111697056D03*
X103000000Y-107600000D03*
D21*
X103000000Y-110000000D03*
D20*
X103000000Y-112400000D03*
X104697056Y-108302944D03*
X104697056Y-111697056D03*
X105400000Y-110000000D03*
%TD*%
D22*
%TO.C,U4*%
X88975000Y-110050000D03*
X88975000Y-110400000D03*
X88975000Y-110750000D03*
X88975000Y-111100000D03*
D23*
X89387500Y-111337500D03*
X89737500Y-111337500D03*
X90087500Y-111337500D03*
D22*
X90500000Y-111100000D03*
X90500000Y-110750000D03*
X90500000Y-110400000D03*
X90500000Y-110050000D03*
D23*
X90087500Y-109812500D03*
X89737500Y-109812500D03*
X89387500Y-109812500D03*
%TD*%
D24*
%TO.C,C13*%
X91025000Y-93000000D03*
X89475000Y-93000000D03*
%TD*%
D25*
%TO.C,C2*%
X67650000Y-95650000D03*
X67650000Y-93750000D03*
%TD*%
D17*
%TO.C,FID3*%
X97000000Y-110000000D03*
%TD*%
D26*
%TO.C,R4*%
X61475000Y-94000000D03*
X63025000Y-94000000D03*
%TD*%
D27*
%TO.C,C9*%
X76900000Y-95400000D03*
X75000000Y-95400000D03*
%TD*%
D28*
%TO.C,J2*%
X99960000Y-96622500D03*
D29*
X99960000Y-99162500D03*
D28*
X99960000Y-101702500D03*
X103135000Y-96622500D03*
X103135000Y-101702500D03*
D29*
X105040000Y-98146500D03*
X105040000Y-100178500D03*
D30*
X101230000Y-99797500D03*
X101230000Y-98527500D03*
X102500000Y-99797500D03*
X102500000Y-98527500D03*
X103770000Y-99797500D03*
X103770000Y-98527500D03*
%TD*%
D20*
%TO.C,MH1*%
X55600000Y-90000000D03*
X56302944Y-88302944D03*
X56302944Y-91697056D03*
X58000000Y-87600000D03*
D21*
X58000000Y-90000000D03*
D20*
X58000000Y-92400000D03*
X59697056Y-88302944D03*
X59697056Y-91697056D03*
X60400000Y-90000000D03*
%TD*%
D26*
%TO.C,R3*%
X61975000Y-106500000D03*
X63525000Y-106500000D03*
%TD*%
D19*
%TO.C,C3*%
X71000000Y-88800000D03*
X71000000Y-90700000D03*
%TD*%
D25*
%TO.C,C1*%
X65650000Y-95650000D03*
X65650000Y-93750000D03*
%TD*%
D31*
%TO.C,U2*%
X85337500Y-96412500D03*
X85337500Y-96912500D03*
X85337500Y-97412500D03*
X85337500Y-97912500D03*
X85337500Y-98412500D03*
X85337500Y-98912500D03*
X85337500Y-99412500D03*
X85337500Y-99912500D03*
X85337500Y-100412500D03*
X85337500Y-100912500D03*
X85337500Y-101412500D03*
X85337500Y-101912500D03*
D32*
X86750000Y-103325000D03*
X87250000Y-103325000D03*
X87750000Y-103325000D03*
X88250000Y-103325000D03*
X88750000Y-103325000D03*
X89250000Y-103325000D03*
X89750000Y-103325000D03*
X90250000Y-103325000D03*
X90750000Y-103325000D03*
X91250000Y-103325000D03*
X91750000Y-103325000D03*
X92250000Y-103325000D03*
D31*
X93662500Y-101912500D03*
X93662500Y-101412500D03*
X93662500Y-100912500D03*
X93662500Y-100412500D03*
X93662500Y-99912500D03*
X93662500Y-99412500D03*
X93662500Y-98912500D03*
X93662500Y-98412500D03*
X93662500Y-97912500D03*
X93662500Y-97412500D03*
X93662500Y-96912500D03*
X93662500Y-96412500D03*
D32*
X92250000Y-95000000D03*
X91750000Y-95000000D03*
X91250000Y-95000000D03*
X90750000Y-95000000D03*
X90250000Y-95000000D03*
X89750000Y-95000000D03*
X89250000Y-95000000D03*
X88750000Y-95000000D03*
X88250000Y-95000000D03*
X87750000Y-95000000D03*
X87250000Y-95000000D03*
X86750000Y-95000000D03*
%TD*%
D27*
%TO.C,C4*%
X75700000Y-92750000D03*
X73800000Y-92750000D03*
%TD*%
D24*
%TO.C,R6*%
X91025000Y-91500000D03*
X89475000Y-91500000D03*
%TD*%
D33*
%TO.C,U3*%
X72650000Y-98162500D03*
X72650000Y-98662500D03*
X72650000Y-99162500D03*
X72650000Y-99662500D03*
X72650000Y-100162500D03*
X76850000Y-100162500D03*
X76850000Y-99662500D03*
X76850000Y-99162500D03*
X76850000Y-98662500D03*
X76850000Y-98162500D03*
%TD*%
D26*
%TO.C,R2*%
X81475000Y-101500000D03*
X83025000Y-101500000D03*
%TD*%
D19*
%TO.C,C6*%
X82750000Y-98050000D03*
X82750000Y-99950000D03*
%TD*%
D26*
%TO.C,R1*%
X65875000Y-97200000D03*
X67425000Y-97200000D03*
%TD*%
D20*
%TO.C,MH3*%
X100600000Y-90000000D03*
X101302944Y-88302944D03*
X101302944Y-91697056D03*
X103000000Y-87600000D03*
D21*
X103000000Y-90000000D03*
D20*
X103000000Y-92400000D03*
X104697056Y-88302944D03*
X104697056Y-91697056D03*
X105400000Y-90000000D03*
%TD*%
D34*
%TO.C,C11*%
X85250000Y-105475000D03*
X85250000Y-107025000D03*
%TD*%
D35*
%TO.C,C8*%
X73800000Y-102000000D03*
X75700000Y-102000000D03*
%TD*%
D24*
%TO.C,R8*%
X92850000Y-107525000D03*
X91300000Y-107525000D03*
%TD*%
%TO.C,C7*%
X86775000Y-93000000D03*
X85225000Y-93000000D03*
%TD*%
D10*
%TO.C,C14*%
X91987500Y-111350000D03*
X91987500Y-109800000D03*
%TD*%
D20*
%TO.C,MH2*%
X55600000Y-110000000D03*
X56302944Y-108302944D03*
X56302944Y-111697056D03*
X58000000Y-107600000D03*
D21*
X58000000Y-110000000D03*
D20*
X58000000Y-112400000D03*
X59697056Y-108302944D03*
X59697056Y-111697056D03*
X60400000Y-110000000D03*
%TD*%
D34*
%TO.C,R5*%
X96000000Y-101225000D03*
X96000000Y-102775000D03*
%TD*%
D26*
%TO.C,R7*%
X88275000Y-107525000D03*
X89825000Y-107525000D03*
%TD*%
M02*
