M48
; DRILL file KiCad 10.0.0 date 2026-04-25T21:37:10
; FORMAT={-:-/ absolute / metric / decimal}
; #@! TF.CreationDate,2026-04-25T21:37:10-07:00
; #@! TF.GenerationSoftware,Kicad,Pcbnew,10.0.0
; #@! TF.FileFunction,Plated,1,2,PTH
FMAT,2
METRIC
; #@! TA.AperFunction,Plated,PTH,ViaDrill
T1C0.300
; #@! TA.AperFunction,Plated,PTH,ComponentDrill
T2C0.500
; #@! TA.AperFunction,Plated,PTH,ComponentDrill
T3C0.600
; #@! TA.AperFunction,Plated,PTH,ComponentDrill
T4C3.200
%
G90
G05
T1
X55.125Y-98.525
X55.125Y-101.55
X55.275Y-106.475
X55.425Y-93.275
X56.175Y-103.075
X57.225Y-94.45
X61.325Y-112.95
X61.55Y-86.95
X62.25Y-96.0
X62.25Y-97.0
X62.25Y-103.5
X62.25Y-104.5
X62.9Y-98.375
X63.0Y-93.0
X63.125Y-101.625
X63.8Y-113.05
X64.15Y-99.675
X64.175Y-101.95
X64.5Y-104.125
X64.725Y-106.5
X65.425Y-110.3
X65.45Y-86.9
X65.65Y-92.7
X66.375Y-107.725
X66.625Y-102.125
X66.675Y-104.25
X67.375Y-105.775
X67.475Y-113.025
X67.65Y-92.7
X67.7Y-110.325
X68.575Y-107.4
X68.9Y-86.9
X68.925Y-102.0
X68.95Y-104.3
X69.75Y-90.75
X69.825Y-110.3
X70.275Y-93.4
X70.325Y-95.125
X71.0Y-91.75
X71.15Y-98.975
X71.425Y-112.95
X71.775Y-93.8
X71.85Y-86.875
X72.175Y-95.225
X72.75Y-92.75
X73.825Y-95.15
X74.025Y-99.425
X74.75Y-89.75
X74.875Y-86.875
X76.85Y-103.55
X76.9Y-102.0
X76.989Y-104.898
X77.047Y-106.439
X77.828Y-107.605
X77.925Y-93.375
X78.0Y-91.75
X78.25Y-102.55
X78.325Y-101.4
X78.4Y-86.875
X78.975Y-100.2
X79.051Y-108.356
X79.25Y-90.75
X79.25Y-104.5
X79.85Y-102.6
X80.25Y-101.475
X80.535Y-108.568
X81.125Y-102.65
X81.25Y-99.25
X81.25Y-104.25
X81.4Y-100.125
X82.019Y-108.559
X82.4Y-94.125
X82.5Y-96.85
X83.2Y-108.2
X83.4Y-86.9
X84.244Y-108.511
X84.25Y-93.0
X85.2Y-108.0
X85.25Y-92.0
X85.25Y-94.0
X85.425Y-109.55
X86.9Y-99.4
X86.9Y-101.775
X86.95Y-96.475
X87.35Y-86.9
X87.55Y-108.875
X88.175Y-110.873
X88.5Y-91.5
X88.675Y-100.25
X89.5Y-90.5
X89.675Y-96.529
X89.75Y-110.575
X89.975Y-101.775
X90.1Y-98.225
X90.875Y-109.35
X90.962Y-111.212
X91.45Y-86.95
X92.125Y-98.3
X92.175Y-96.525
X92.25Y-100.6
X93.0Y-109.75
X93.4Y-106.4
X95.025Y-101.7
X95.325Y-86.95
X95.725Y-113.025
X97.5Y-100.25
X98.125Y-112.975
X99.225Y-86.9
X100.25Y-113.05
X105.25Y-101.5
X105.75Y-99.25
X105.9Y-104.075
X105.95Y-95.575
X105.95Y-97.175
X105.95Y-106.95
X106.0Y-93.2
T2
X55.6Y-90.0
X55.6Y-110.0
X56.303Y-88.303
X56.303Y-91.697
X56.303Y-108.303
X56.303Y-111.697
X58.0Y-87.6
X58.0Y-92.4
X58.0Y-107.6
X58.0Y-112.4
X59.697Y-88.303
X59.697Y-91.697
X59.697Y-108.303
X59.697Y-111.697
X60.4Y-90.0
X60.4Y-110.0
X100.6Y-90.0
X100.6Y-110.0
X101.303Y-88.303
X101.303Y-91.697
X101.303Y-108.303
X101.303Y-111.697
X103.0Y-87.6
X103.0Y-92.4
X103.0Y-107.6
X103.0Y-112.4
X104.697Y-88.303
X104.697Y-91.697
X104.697Y-108.303
X104.697Y-111.697
X105.4Y-90.0
X105.4Y-110.0
T4
X58.0Y-90.0
X58.0Y-110.0
X103.0Y-90.0
X103.0Y-110.0
T3
G00X56.575Y-95.93
M15
G01X55.775Y-95.93
M16
G05
G00X56.575Y-104.57
M15
G01X55.775Y-104.57
M16
G05
G00X60.905Y-95.93
M15
G01X59.805Y-95.93
M16
G05
G00X60.905Y-104.57
M15
G01X59.805Y-104.57
M16
G05
M30
