%TF.GenerationSoftware,KiCad,Pcbnew,10.0.0*%
%TF.CreationDate,2026-04-25T21:36:30-07:00*%
%TF.ProjectId,MSPM0,4d53504d-302e-46b6-9963-61645f706362,rev?*%
%TF.SameCoordinates,Original*%
%TF.FileFunction,Copper,L1,Top*%
%TF.FilePolarity,Positive*%
%FSLAX46Y46*%
G04 Gerber Fmt 4.6, Leading zero omitted, Abs format (unit mm)*
G04 Created by KiCad (PCBNEW 10.0.0) date 2026-04-25 21:36:30*
%MOMM*%
%LPD*%
G01*
G04 APERTURE LIST*
G04 Aperture macros list*
%AMRoundRect*
0 Rectangle with rounded corners*
0 $1 Rounding radius*
0 $2 $3 $4 $5 $6 $7 $8 $9 X,Y pos of 4 corners*
0 Add a 4 corners polygon primitive as box body*
4,1,4,$2,$3,$4,$5,$6,$7,$8,$9,$2,$3,0*
0 Add four circle primitives for the rounded corners*
1,1,$1+$1,$2,$3*
1,1,$1+$1,$4,$5*
1,1,$1+$1,$6,$7*
1,1,$1+$1,$8,$9*
0 Add four rect primitives between the rounded corners*
20,1,$1+$1,$2,$3,$4,$5,0*
20,1,$1+$1,$4,$5,$6,$7,0*
20,1,$1+$1,$6,$7,$8,$9,0*
20,1,$1+$1,$8,$9,$2,$3,0*%
G04 Aperture macros list end*
%TA.AperFunction,SMDPad,CuDef*%
%ADD10RoundRect,0.225000X0.250000X-0.225000X0.250000X0.225000X-0.250000X0.225000X-0.250000X-0.225000X0*%
%TD*%
%TA.AperFunction,SMDPad,CuDef*%
%ADD11RoundRect,0.150000X-0.512500X-0.150000X0.512500X-0.150000X0.512500X0.150000X-0.512500X0.150000X0*%
%TD*%
%TA.AperFunction,SMDPad,CuDef*%
%ADD12RoundRect,0.150000X-0.425000X0.150000X-0.425000X-0.150000X0.425000X-0.150000X0.425000X0.150000X0*%
%TD*%
%TA.AperFunction,SMDPad,CuDef*%
%ADD13RoundRect,0.075000X-0.500000X0.075000X-0.500000X-0.075000X0.500000X-0.075000X0.500000X0.075000X0*%
%TD*%
%TA.AperFunction,ComponentPad*%
%ADD14O,2.100000X1.000000*%
%TD*%
%TA.AperFunction,ComponentPad*%
%ADD15O,1.800000X1.000000*%
%TD*%
%TA.AperFunction,SMDPad,CuDef*%
%ADD16C,1.000000*%
%TD*%
%TA.AperFunction,SMDPad,CuDef*%
%ADD17RoundRect,0.250000X-0.400000X-0.300000X0.400000X-0.300000X0.400000X0.300000X-0.400000X0.300000X0*%
%TD*%
%TA.AperFunction,SMDPad,CuDef*%
%ADD18RoundRect,0.250000X-0.475000X0.250000X-0.475000X-0.250000X0.475000X-0.250000X0.475000X0.250000X0*%
%TD*%
%TA.AperFunction,ComponentPad*%
%ADD19C,0.800000*%
%TD*%
%TA.AperFunction,ComponentPad*%
%ADD20C,6.400000*%
%TD*%
%TA.AperFunction,SMDPad,CuDef*%
%ADD21RoundRect,0.050000X-0.112500X-0.050000X0.112500X-0.050000X0.112500X0.050000X-0.112500X0.050000X0*%
%TD*%
%TA.AperFunction,SMDPad,CuDef*%
%ADD22RoundRect,0.050000X-0.050000X-0.112500X0.050000X-0.112500X0.050000X0.112500X-0.050000X0.112500X0*%
%TD*%
%TA.AperFunction,SMDPad,CuDef*%
%ADD23RoundRect,0.225000X0.225000X0.250000X-0.225000X0.250000X-0.225000X-0.250000X0.225000X-0.250000X0*%
%TD*%
%TA.AperFunction,SMDPad,CuDef*%
%ADD24RoundRect,0.250000X0.475000X-0.250000X0.475000X0.250000X-0.475000X0.250000X-0.475000X-0.250000X0*%
%TD*%
%TA.AperFunction,SMDPad,CuDef*%
%ADD25RoundRect,0.225000X-0.225000X-0.250000X0.225000X-0.250000X0.225000X0.250000X-0.225000X0.250000X0*%
%TD*%
%TA.AperFunction,SMDPad,CuDef*%
%ADD26RoundRect,0.250000X0.250000X0.475000X-0.250000X0.475000X-0.250000X-0.475000X0.250000X-0.475000X0*%
%TD*%
%TA.AperFunction,ConnectorPad*%
%ADD27C,0.787400*%
%TD*%
%TA.AperFunction,SMDPad,CuDef*%
%ADD28RoundRect,0.075000X-0.662500X-0.075000X0.662500X-0.075000X0.662500X0.075000X-0.662500X0.075000X0*%
%TD*%
%TA.AperFunction,SMDPad,CuDef*%
%ADD29RoundRect,0.075000X-0.075000X-0.662500X0.075000X-0.662500X0.075000X0.662500X-0.075000X0.662500X0*%
%TD*%
%TA.AperFunction,SMDPad,CuDef*%
%ADD30RoundRect,0.087500X-0.662500X-0.087500X0.662500X-0.087500X0.662500X0.087500X-0.662500X0.087500X0*%
%TD*%
%TA.AperFunction,SMDPad,CuDef*%
%ADD31RoundRect,0.225000X-0.250000X0.225000X-0.250000X-0.225000X0.250000X-0.225000X0.250000X0.225000X0*%
%TD*%
%TA.AperFunction,SMDPad,CuDef*%
%ADD32RoundRect,0.250000X-0.250000X-0.475000X0.250000X-0.475000X0.250000X0.475000X-0.250000X0.475000X0*%
%TD*%
%TA.AperFunction,ViaPad*%
%ADD33C,0.700000*%
%TD*%
%TA.AperFunction,ViaPad*%
%ADD34C,0.600000*%
%TD*%
%TA.AperFunction,Conductor*%
%ADD35C,0.300000*%
%TD*%
%TA.AperFunction,Conductor*%
%ADD36C,0.152000*%
%TD*%
%TA.AperFunction,Conductor*%
%ADD37C,0.250000*%
%TD*%
%TA.AperFunction,Conductor*%
%ADD38C,0.500000*%
%TD*%
%TA.AperFunction,Conductor*%
%ADD39C,0.200000*%
%TD*%
%TA.AperFunction,Conductor*%
%ADD40C,0.750000*%
%TD*%
G04 APERTURE END LIST*
D10*
%TO.P,C10,1*%
%TO.N,/HFXIN*%
X79250000Y-107025000D03*
%TO.P,C10,2*%
%TO.N,GND*%
X79250000Y-105475000D03*
%TD*%
D11*
%TO.P,D1,1,I/O1_1*%
%TO.N,/USBD-*%
X65537500Y-98912500D03*
%TO.P,D1,2,GND_2*%
%TO.N,GND*%
X65537500Y-99862500D03*
%TO.P,D1,3,I/O2_3*%
%TO.N,/USBD+*%
X65537500Y-100812500D03*
%TO.P,D1,4,I/O2_4*%
%TO.N,/USBCD+*%
X67812500Y-100812500D03*
%TO.P,D1,5,VBUS_5*%
%TO.N,+VBUS*%
X67812500Y-99862500D03*
%TO.P,D1,6,I/O1_6*%
%TO.N,/USBCD-*%
X67812500Y-98912500D03*
%TD*%
D12*
%TO.P,J1,A1,GND_A1*%
%TO.N,GND*%
X60930000Y-97050000D03*
%TO.P,J1,A4,VBUS_A4*%
%TO.N,+VBUS*%
X60930000Y-97850000D03*
D13*
%TO.P,J1,A5,CC1_A5*%
%TO.N,/USBCC1*%
X60930000Y-99000000D03*
%TO.P,J1,A6,D+_A6*%
%TO.N,/USBD+*%
X60930000Y-100000000D03*
%TO.P,J1,A7,D-_A7*%
%TO.N,/USBD-*%
X60930000Y-100500000D03*
%TO.P,J1,A8,SBU1_A8*%
%TO.N,unconnected-(J1-SBU1-PadA8)*%
X60930000Y-101500000D03*
D12*
%TO.P,J1,A9,VBUS_A9*%
%TO.N,+VBUS*%
X60930000Y-102650000D03*
%TO.P,J1,A12,GND_A12*%
%TO.N,GND*%
X60930000Y-103450000D03*
%TO.P,J1,B1,GND_B1*%
X60930000Y-103450000D03*
%TO.P,J1,B4,VBUS_B4*%
%TO.N,+VBUS*%
X60930000Y-102650000D03*
D13*
%TO.P,J1,B5,CC2_B5*%
%TO.N,/USBCC2*%
X60930000Y-102000000D03*
%TO.P,J1,B6,D+_B6*%
%TO.N,/USBD+*%
X60930000Y-101000000D03*
%TO.P,J1,B7,D-_B7*%
%TO.N,/USBD-*%
X60930000Y-99500000D03*
%TO.P,J1,B8,SBU2_B8*%
%TO.N,unconnected-(J1-SBU2-PadB8)*%
X60930000Y-98500000D03*
D12*
%TO.P,J1,B9,VBUS_B9*%
%TO.N,+VBUS*%
X60930000Y-97850000D03*
%TO.P,J1,B12,GND_B12*%
%TO.N,GND*%
X60930000Y-97050000D03*
D14*
%TO.P,J1,SH,SHIELD_SH*%
X60355000Y-95930000D03*
D15*
X56175000Y-95930000D03*
D14*
X60355000Y-104570000D03*
D15*
X56175000Y-104570000D03*
%TD*%
D10*
%TO.P,C12,1*%
%TO.N,/NRST*%
X97500000Y-102775000D03*
%TO.P,C12,2*%
%TO.N,GND*%
X97500000Y-101225000D03*
%TD*%
D11*
%TO.P,U1,1,IN_1*%
%TO.N,+VBUSF*%
X73612500Y-88800000D03*
%TO.P,U1,2,GND_2*%
%TO.N,GND*%
X73612500Y-89750000D03*
%TO.P,U1,3,EN_3*%
%TO.N,+VBUSF*%
X73612500Y-90700000D03*
%TO.P,U1,4,BP_4*%
%TO.N,Net-(U1-BP)*%
X75887500Y-90700000D03*
%TO.P,U1,5,OUT_5*%
%TO.N,+3V3*%
X75887500Y-88800000D03*
%TD*%
D16*
%TO.P,FID1,*%
%TO.N,*%
X63750000Y-90000000D03*
%TD*%
%TO.P,FID2,*%
%TO.N,*%
X63250000Y-110250000D03*
%TD*%
D17*
%TO.P,X1,1,EN_1*%
%TO.N,/HFXIN*%
X81200000Y-107075000D03*
%TO.P,X1,2,GND_2*%
%TO.N,GND*%
X83300000Y-107075000D03*
%TO.P,X1,3,OUT_3*%
%TO.N,/HFXOUT*%
X83300000Y-105425000D03*
%TO.P,X1,4,Vdd_4*%
%TO.N,GND*%
X81200000Y-105425000D03*
%TD*%
D18*
%TO.P,C5,1*%
%TO.N,+3V3*%
X78000000Y-88800000D03*
%TO.P,C5,2*%
%TO.N,GND*%
X78000000Y-90700000D03*
%TD*%
D19*
%TO.P,MH4,1,1_1*%
%TO.N,GND*%
X100600000Y-110000000D03*
X101302944Y-108302944D03*
X101302944Y-111697056D03*
X103000000Y-107600000D03*
D20*
X103000000Y-110000000D03*
D19*
X103000000Y-112400000D03*
X104697056Y-108302944D03*
X104697056Y-111697056D03*
X105400000Y-110000000D03*
%TD*%
D21*
%TO.P,U4,1,SCL/SPC_1*%
%TO.N,I2C0SCL*%
X88975000Y-110050000D03*
%TO.P,U4,2,SDA/SDI_2*%
%TO.N,I2C0SDA*%
X88975000Y-110400000D03*
%TO.P,U4,3,SDO_3*%
%TO.N,GND*%
X88975000Y-110750000D03*
%TO.P,U4,4,~{CS}_4*%
%TO.N,+3V3*%
X88975000Y-111100000D03*
D22*
%TO.P,U4,5,INT2_5*%
%TO.N,INT2*%
X89387500Y-111337500D03*
%TO.P,U4,6,INT1_6*%
%TO.N,INT1*%
X89737500Y-111337500D03*
%TO.P,U4,7,Vdd_IO_7*%
%TO.N,+3V3*%
X90087500Y-111337500D03*
D21*
%TO.P,U4,8,Vdd_8*%
X90500000Y-111100000D03*
%TO.P,U4,9,GND_9*%
%TO.N,GND*%
X90500000Y-110750000D03*
%TO.P,U4,10,GND_10*%
%TO.N,Net-(U4-GND-Pad10)*%
X90500000Y-110400000D03*
%TO.P,U4,11,GND_11*%
X90500000Y-110050000D03*
D22*
%TO.P,U4,12,GND_12*%
X90087500Y-109812500D03*
%TO.P,U4,13,GND_13*%
X89737500Y-109812500D03*
%TO.P,U4,14,GND_14*%
X89387500Y-109812500D03*
%TD*%
D23*
%TO.P,C13,1*%
%TO.N,/VREF-*%
X91025000Y-93000000D03*
%TO.P,C13,2*%
%TO.N,/VREF+*%
X89475000Y-93000000D03*
%TD*%
D24*
%TO.P,C2,1*%
%TO.N,+VBUSF*%
X67650000Y-95650000D03*
%TO.P,C2,2*%
%TO.N,GND*%
X67650000Y-93750000D03*
%TD*%
D16*
%TO.P,FID3,*%
%TO.N,*%
X97000000Y-110000000D03*
%TD*%
D25*
%TO.P,R4,1*%
%TO.N,/USBCC1*%
X61475000Y-94000000D03*
%TO.P,R4,2*%
%TO.N,GND*%
X63025000Y-94000000D03*
%TD*%
D26*
%TO.P,C9,1*%
%TO.N,+3V3*%
X76900000Y-95400000D03*
%TO.P,C9,2*%
%TO.N,GND*%
X75000000Y-95400000D03*
%TD*%
D27*
%TO.P,J2,1,VCC_1*%
%TO.N,+3V3*%
X101230000Y-99797500D03*
%TO.P,J2,2,SWDIO_2*%
%TO.N,/SWDIO*%
X101230000Y-98527500D03*
%TO.P,J2,3,~{RESET}_3*%
%TO.N,/NRST*%
X102500000Y-99797500D03*
%TO.P,J2,4,SWCLK_4*%
%TO.N,/SWCLK*%
X102500000Y-98527500D03*
%TO.P,J2,5,GND_5*%
%TO.N,GND*%
X103770000Y-99797500D03*
%TO.P,J2,6,SWO_6*%
%TO.N,unconnected-(J2-SWO-Pad6)*%
X103770000Y-98527500D03*
%TD*%
D19*
%TO.P,MH1,1,1_1*%
%TO.N,GND*%
X55600000Y-90000000D03*
X56302944Y-88302944D03*
X56302944Y-91697056D03*
X58000000Y-87600000D03*
D20*
X58000000Y-90000000D03*
D19*
X58000000Y-92400000D03*
X59697056Y-88302944D03*
X59697056Y-91697056D03*
X60400000Y-90000000D03*
%TD*%
D25*
%TO.P,R3,1*%
%TO.N,/USBCC2*%
X61975000Y-106500000D03*
%TO.P,R3,2*%
%TO.N,GND*%
X63525000Y-106500000D03*
%TD*%
D18*
%TO.P,C3,1*%
%TO.N,+VBUSF*%
X71000000Y-88800000D03*
%TO.P,C3,2*%
%TO.N,GND*%
X71000000Y-90700000D03*
%TD*%
D24*
%TO.P,C1,1*%
%TO.N,+VBUS*%
X65650000Y-95650000D03*
%TO.P,C1,2*%
%TO.N,GND*%
X65650000Y-93750000D03*
%TD*%
D28*
%TO.P,U2,1,PA0/FCC_IN_1*%
%TO.N,/UART0TX*%
X85337500Y-96412500D03*
%TO.P,U2,2,PA1_2*%
%TO.N,/UART0RX*%
X85337500Y-96912500D03*
%TO.P,U2,3,PA28_3*%
%TO.N,unconnected-(U2-PA28-Pad3)*%
X85337500Y-97412500D03*
%TO.P,U2,4,NSRT_4*%
%TO.N,/NRST*%
X85337500Y-97912500D03*
%TO.P,U2,5,PA31/CLK_OUT_5*%
%TO.N,unconnected-(U2-PA31{slash}CLK_OUT-Pad5)*%
X85337500Y-98412500D03*
%TO.P,U2,6,VDD_6*%
%TO.N,+3V3*%
X85337500Y-98912500D03*
%TO.P,U2,7,VSS_7*%
%TO.N,GND*%
X85337500Y-99412500D03*
%TO.P,U2,8,PA2/ROSC_8*%
%TO.N,/ROSC*%
X85337500Y-99912500D03*
%TO.P,U2,9,PA3/COMP1_OUT/LFXIN_9*%
%TO.N,unconnected-(U2-PA3{slash}COMP1_OUT{slash}LFXIN-Pad9)*%
X85337500Y-100412500D03*
%TO.P,U2,10,PA4/LFCLK_IN/LFXOUT_10*%
%TO.N,unconnected-(U2-PA4{slash}LFCLK_IN{slash}LFXOUT-Pad10)*%
X85337500Y-100912500D03*
%TO.P,U2,11,PA5/HFXIN/FCC_In_11*%
%TO.N,/HFXIN*%
X85337500Y-101412500D03*
%TO.P,U2,12,PA6/HFCLK_IN/HFXOUT_12*%
%TO.N,/HFXOUT*%
X85337500Y-101912500D03*
D29*
%TO.P,U2,13,PA7/CLK_OUT_13*%
%TO.N,unconnected-(U2-PA7{slash}CLK_OUT-Pad13)*%
X86750000Y-103325000D03*
%TO.P,U2,14,PB2_14*%
%TO.N,unconnected-(U2-PB2-Pad14)*%
X87250000Y-103325000D03*
%TO.P,U2,15,PB3_15*%
%TO.N,unconnected-(U2-PB3-Pad15)*%
X87750000Y-103325000D03*
%TO.P,U2,16,PA8_16*%
%TO.N,/UART0RTS*%
X88250000Y-103325000D03*
%TO.P,U2,17,PA9/RTC_OUT/CLK_OUT_17*%
%TO.N,/UART0CTS*%
X88750000Y-103325000D03*
%TO.P,U2,18,PA10/CLK_OUT_18*%
%TO.N,I2C0SDA*%
X89250000Y-103325000D03*
%TO.P,U2,19,PA11_19*%
%TO.N,I2C0SCL*%
X89750000Y-103325000D03*
%TO.P,U2,20,PB6_20*%
%TO.N,unconnected-(U2-PB6-Pad20)*%
X90250000Y-103325000D03*
%TO.P,U2,21,PB7_21*%
%TO.N,unconnected-(U2-PB7-Pad21)*%
X90750000Y-103325000D03*
%TO.P,U2,22,PB8_22*%
%TO.N,INT1*%
X91250000Y-103325000D03*
%TO.P,U2,23,PB9_23*%
%TO.N,INT2*%
X91750000Y-103325000D03*
%TO.P,U2,24,PB14_24*%
%TO.N,unconnected-(U2-PB14-Pad24)*%
X92250000Y-103325000D03*
D28*
%TO.P,U2,25,PB15_25*%
%TO.N,unconnected-(U2-PB15-Pad25)*%
X93662500Y-101912500D03*
%TO.P,U2,26,PB16_26*%
%TO.N,unconnected-(U2-PB16-Pad26)*%
X93662500Y-101412500D03*
%TO.P,U2,27,PA12/FC_IN_27*%
%TO.N,unconnected-(U2-PA12{slash}FC_IN-Pad27)*%
X93662500Y-100912500D03*
%TO.P,U2,28,PA13_28*%
%TO.N,unconnected-(U2-PA13-Pad28)*%
X93662500Y-100412500D03*
%TO.P,U2,29,PA14/CLK-OUT/AO_12_29*%
%TO.N,unconnected-(U2-PA14{slash}CLK-OUT{slash}AO_12-Pad29)*%
X93662500Y-99912500D03*
%TO.P,U2,30,PA15/A1_0_30*%
%TO.N,unconnected-(U2-PA15{slash}A1_0-Pad30)*%
X93662500Y-99412500D03*
%TO.P,U2,31,PA16_A1_1/FCC_IN_31*%
%TO.N,unconnected-(U2-PA16_A1_1{slash}FCC_IN-Pad31)*%
X93662500Y-98912500D03*
%TO.P,U2,32,PA17/A1_2_32*%
%TO.N,unconnected-(U2-PA17{slash}A1_2-Pad32)*%
X93662500Y-98412500D03*
%TO.P,U2,33,PA18/A1_3_33*%
%TO.N,unconnected-(U2-PA18{slash}A1_3-Pad33)*%
X93662500Y-97912500D03*
%TO.P,U2,34,PA19/SWDIO_34*%
%TO.N,/SWDIO*%
X93662500Y-97412500D03*
%TO.P,U2,35,PA20/SWCLK_35*%
%TO.N,/SWCLK*%
X93662500Y-96912500D03*
%TO.P,U2,36,PB17/A1_4_36*%
%TO.N,unconnected-(U2-PB17{slash}A1_4-Pad36)*%
X93662500Y-96412500D03*
D29*
%TO.P,U2,37,PB18/A1_5_37*%
%TO.N,unconnected-(U2-PB18{slash}A1_5-Pad37)*%
X92250000Y-95000000D03*
%TO.P,U2,38,PB19/A1_6_38*%
%TO.N,unconnected-(U2-PB19{slash}A1_6-Pad38)*%
X91750000Y-95000000D03*
%TO.P,U2,39,PA21/A1_7/VREF-_39*%
%TO.N,/VREF-*%
X91250000Y-95000000D03*
%TO.P,U2,40,PA22/CLK_OUT/A0_7_40*%
%TO.N,unconnected-(U2-PA22{slash}CLK_OUT{slash}A0_7-Pad40)*%
X90750000Y-95000000D03*
%TO.P,U2,41,PB20/A0_6_41*%
%TO.N,unconnected-(U2-PB20{slash}A0_6-Pad41)*%
X90250000Y-95000000D03*
%TO.P,U2,42,PB24/A0_5_42*%
%TO.N,unconnected-(U2-PB24{slash}A0_5-Pad42)*%
X89750000Y-95000000D03*
%TO.P,U2,43,PA23/VREF+_43*%
%TO.N,/VREF+*%
X89250000Y-95000000D03*
%TO.P,U2,44,PA24/A0_3_44*%
%TO.N,unconnected-(U2-PA24{slash}A0_3-Pad44)*%
X88750000Y-95000000D03*
%TO.P,U2,45,PA25/A0_2/OPA0_IN1+_45*%
%TO.N,unconnected-(U2-PA25{slash}A0_2{slash}OPA0_IN1+-Pad45)*%
X88250000Y-95000000D03*
%TO.P,U2,46,PA26/A0_1_46*%
%TO.N,unconnected-(U2-PA26{slash}A0_1-Pad46)*%
X87750000Y-95000000D03*
%TO.P,U2,47,PA27/RRTC-OUT/A0_0_47*%
%TO.N,unconnected-(U2-PA27{slash}RRTC-OUT{slash}A0_0-Pad47)*%
X87250000Y-95000000D03*
%TO.P,U2,48,VCORE_48*%
%TO.N,+1V35*%
X86750000Y-95000000D03*
%TD*%
D26*
%TO.P,C4,1*%
%TO.N,Net-(U1-BP)*%
X75700000Y-92750000D03*
%TO.P,C4,2*%
%TO.N,GND*%
X73800000Y-92750000D03*
%TD*%
D23*
%TO.P,R6,1*%
%TO.N,/VREF-*%
X91025000Y-91500000D03*
%TO.P,R6,2*%
%TO.N,GND*%
X89475000Y-91500000D03*
%TD*%
D30*
%TO.P,U3,1,UD+_1*%
%TO.N,/USBCD+*%
X72650000Y-98162500D03*
%TO.P,U3,2,UD-_2*%
%TO.N,/USBCD-*%
X72650000Y-98662500D03*
%TO.P,U3,3,GND_3*%
%TO.N,GND*%
X72650000Y-99162500D03*
%TO.P,U3,4,~{RTS}_4*%
%TO.N,/UART0CTS*%
X72650000Y-99662500D03*
%TO.P,U3,5,~{CTS}_5*%
%TO.N,/UART0RTS*%
X72650000Y-100162500D03*
%TO.P,U3,6,TNOW_6*%
%TO.N,unconnected-(U3-TNOW-Pad6)*%
X76850000Y-100162500D03*
%TO.P,U3,7,VCC_7*%
%TO.N,+3V3*%
X76850000Y-99662500D03*
%TO.P,U3,8,TXD_8*%
%TO.N,/UART0RX*%
X76850000Y-99162500D03*
%TO.P,U3,9,RXD_9*%
%TO.N,/UART0TX*%
X76850000Y-98662500D03*
%TO.P,U3,10,V3_10*%
%TO.N,+3V3*%
X76850000Y-98162500D03*
%TD*%
D25*
%TO.P,R2,1*%
%TO.N,GND*%
X81475000Y-101500000D03*
%TO.P,R2,2*%
%TO.N,/ROSC*%
X83025000Y-101500000D03*
%TD*%
D18*
%TO.P,C6,1*%
%TO.N,+3V3*%
X82750000Y-98050000D03*
%TO.P,C6,2*%
%TO.N,GND*%
X82750000Y-99950000D03*
%TD*%
D25*
%TO.P,R1,1*%
%TO.N,+VBUS*%
X65875000Y-97200000D03*
%TO.P,R1,2*%
%TO.N,+VBUSF*%
X67425000Y-97200000D03*
%TD*%
D19*
%TO.P,MH3,1,1_1*%
%TO.N,GND*%
X100600000Y-90000000D03*
X101302944Y-88302944D03*
X101302944Y-91697056D03*
X103000000Y-87600000D03*
D20*
X103000000Y-90000000D03*
D19*
X103000000Y-92400000D03*
X104697056Y-88302944D03*
X104697056Y-91697056D03*
X105400000Y-90000000D03*
%TD*%
D31*
%TO.P,C11,1*%
%TO.N,/HFXOUT*%
X85250000Y-105475000D03*
%TO.P,C11,2*%
%TO.N,GND*%
X85250000Y-107025000D03*
%TD*%
D32*
%TO.P,C8,1*%
%TO.N,+3V3*%
X73800000Y-102000000D03*
%TO.P,C8,2*%
%TO.N,GND*%
X75700000Y-102000000D03*
%TD*%
D23*
%TO.P,R8,1*%
%TO.N,+3V3*%
X92850000Y-107525000D03*
%TO.P,R8,2*%
%TO.N,I2C0SCL*%
X91300000Y-107525000D03*
%TD*%
%TO.P,C7,1*%
%TO.N,+1V35*%
X86775000Y-93000000D03*
%TO.P,C7,2*%
%TO.N,GND*%
X85225000Y-93000000D03*
%TD*%
D10*
%TO.P,C14,1*%
%TO.N,+3V3*%
X91987500Y-111350000D03*
%TO.P,C14,2*%
%TO.N,GND*%
X91987500Y-109800000D03*
%TD*%
D19*
%TO.P,MH2,1,1_1*%
%TO.N,GND*%
X55600000Y-110000000D03*
X56302944Y-108302944D03*
X56302944Y-111697056D03*
X58000000Y-107600000D03*
D20*
X58000000Y-110000000D03*
D19*
X58000000Y-112400000D03*
X59697056Y-108302944D03*
X59697056Y-111697056D03*
X60400000Y-110000000D03*
%TD*%
D31*
%TO.P,R5,1*%
%TO.N,+3V3*%
X96000000Y-101225000D03*
%TO.P,R5,2*%
%TO.N,/NRST*%
X96000000Y-102775000D03*
%TD*%
D25*
%TO.P,R7,1*%
%TO.N,+3V3*%
X88275000Y-107525000D03*
%TO.P,R7,2*%
%TO.N,I2C0SDA*%
X89825000Y-107525000D03*
%TD*%
D33*
%TO.N,GND*%
X74025000Y-99425000D03*
X62250000Y-104500000D03*
X74750000Y-89750000D03*
X97500000Y-100250000D03*
X79850000Y-102600000D03*
X74875000Y-86875000D03*
X66625000Y-102125000D03*
X76850000Y-103550000D03*
X68950000Y-104300000D03*
X70275000Y-93400000D03*
X84250000Y-93000000D03*
X55125000Y-98525000D03*
X105950000Y-97175000D03*
X90875000Y-109350000D03*
X89975000Y-101775000D03*
X67700000Y-110325000D03*
X92175000Y-96525000D03*
X65450000Y-86900000D03*
X71150000Y-98975000D03*
X77925000Y-93375000D03*
X78325000Y-101400000D03*
X86900000Y-99400000D03*
X65650000Y-92700000D03*
X70325000Y-95125000D03*
X68575000Y-107400000D03*
X79051217Y-108356378D03*
X83200000Y-108200000D03*
X55425000Y-93275000D03*
X85200000Y-108000000D03*
X98125000Y-112975000D03*
X64175000Y-101950000D03*
X80534919Y-108568336D03*
X72750000Y-92750000D03*
X76989449Y-104897619D03*
X61325000Y-112950000D03*
X69825000Y-110300000D03*
X95325000Y-86950000D03*
X105750000Y-99250000D03*
X78400000Y-86875000D03*
X62250000Y-97000000D03*
X55125000Y-101550000D03*
X66675000Y-104250000D03*
X92125000Y-98300000D03*
X105900000Y-104075000D03*
X88500000Y-91500000D03*
X68925000Y-102000000D03*
X77827644Y-107604893D03*
X100250000Y-113050000D03*
X105950000Y-106950000D03*
X93000000Y-109750000D03*
X73825000Y-95150000D03*
X81250000Y-99250000D03*
X71000000Y-91750000D03*
X69750000Y-90750000D03*
X88675000Y-100250000D03*
X72175000Y-95225000D03*
X68900000Y-86900000D03*
X89750000Y-110575000D03*
X71775000Y-93800000D03*
X106000000Y-93200000D03*
X61550000Y-86950000D03*
X90100000Y-98225000D03*
X92250000Y-100600000D03*
X86950000Y-96475000D03*
X67375000Y-105775000D03*
X89500000Y-90500000D03*
X71850000Y-86875000D03*
X86900000Y-101775000D03*
X62250000Y-96000000D03*
X56175000Y-103075000D03*
X91450000Y-86950000D03*
X95725000Y-113025000D03*
X89674971Y-96529462D03*
X55275000Y-106475000D03*
X62250000Y-103500000D03*
X63800000Y-113050000D03*
X84244173Y-108510529D03*
X78250000Y-102550000D03*
X78975000Y-100200000D03*
X105250000Y-101500000D03*
X85250000Y-94000000D03*
X63000000Y-93000000D03*
X64500000Y-104125000D03*
X66375000Y-107725000D03*
X83400000Y-86900000D03*
X80250000Y-101475000D03*
X67650000Y-92700000D03*
X76900000Y-102000000D03*
X65425000Y-110300000D03*
X67475000Y-113025000D03*
X64150000Y-99675000D03*
X81400000Y-100125000D03*
X78000000Y-91750000D03*
X105950000Y-95575000D03*
X77047256Y-106439127D03*
X64725000Y-106500000D03*
X81250000Y-104250000D03*
X99225000Y-86900000D03*
X82018621Y-108558701D03*
X57225000Y-94450000D03*
X79250000Y-90750000D03*
X79250000Y-104500000D03*
X87350000Y-86900000D03*
X81125000Y-102650000D03*
X71425000Y-112950000D03*
X85250000Y-92000000D03*
D34*
%TO.N,+VBUS*%
X62900000Y-98375000D03*
X63125000Y-101625000D03*
%TO.N,+3V3*%
X90962500Y-111212500D03*
X87550000Y-108875000D03*
X82500000Y-96850000D03*
X82400000Y-94125000D03*
X95025000Y-101700000D03*
X93400000Y-106400000D03*
X85425000Y-109550000D03*
X88175000Y-110873000D03*
%TD*%
%TO.N,/HFXIN*%
D35*
X81150000Y-107025000D02*
X81200000Y-107075000D01*
X83775000Y-103550000D02*
X78350000Y-103550000D01*
X78350000Y-103550000D02*
X77825000Y-104075000D01*
X78275000Y-107025000D02*
X79250000Y-107025000D01*
X77825000Y-106575000D02*
X78275000Y-107025000D01*
X83775000Y-101839224D02*
X83775000Y-103550000D01*
X77825000Y-104075000D02*
X77825000Y-106575000D01*
X84201724Y-101412500D02*
X83775000Y-101839224D01*
X79250000Y-107025000D02*
X81150000Y-107025000D01*
X85337500Y-101412500D02*
X84201724Y-101412500D01*
%TO.N,GND*%
D36*
X73612500Y-89750000D02*
X74750000Y-89750000D01*
X89575000Y-110750000D02*
X89750000Y-110575000D01*
X90500000Y-110750000D02*
X89925000Y-110750000D01*
X60980000Y-103500000D02*
X60930000Y-103450000D01*
X73687500Y-99162500D02*
X72650000Y-99162500D01*
X85337500Y-99412500D02*
X86887500Y-99412500D01*
X65350000Y-99675000D02*
X65537500Y-99862500D01*
X86887500Y-99412500D02*
X86900000Y-99400000D01*
X62200000Y-97050000D02*
X60930000Y-97050000D01*
X88975000Y-110750000D02*
X89575000Y-110750000D01*
X62250000Y-97000000D02*
X62200000Y-97050000D01*
X74025000Y-99425000D02*
X73950000Y-99425000D01*
X73950000Y-99425000D02*
X73687500Y-99162500D01*
X64150000Y-99675000D02*
X65350000Y-99675000D01*
X62250000Y-103500000D02*
X60980000Y-103500000D01*
X89925000Y-110750000D02*
X89750000Y-110575000D01*
%TO.N,/USBD-*%
D35*
X60930000Y-99500000D02*
X59750000Y-99500000D01*
X59625000Y-99625000D02*
X59625000Y-100325000D01*
X63512500Y-98912500D02*
X62925000Y-99500000D01*
X62925000Y-99500000D02*
X60930000Y-99500000D01*
X60930000Y-100500000D02*
X59800000Y-100500000D01*
X59750000Y-99500000D02*
X59625000Y-99625000D01*
X59625000Y-100325000D02*
X59800000Y-100500000D01*
X65537500Y-98912500D02*
X63512500Y-98912500D01*
%TO.N,/USBD+*%
X62675000Y-100000000D02*
X62325000Y-100000000D01*
X62150000Y-101000000D02*
X62325000Y-100825000D01*
X62325000Y-100000000D02*
X60930000Y-100000000D01*
X65537500Y-100812500D02*
X63487500Y-100812500D01*
X60930000Y-101000000D02*
X62150000Y-101000000D01*
X62325000Y-100825000D02*
X62325000Y-100000000D01*
X63487500Y-100812500D02*
X62675000Y-100000000D01*
%TO.N,/USBCD+*%
D37*
X68175000Y-100812500D02*
X68875000Y-100112500D01*
X70778554Y-96600000D02*
X73246446Y-96600000D01*
X73246446Y-96600000D02*
X74000000Y-97353554D01*
X68875000Y-100112500D02*
X69341054Y-100112500D01*
X74000000Y-97775000D02*
X73612500Y-98162500D01*
X73612500Y-98162500D02*
X72650000Y-98162500D01*
X74000000Y-97353554D02*
X74000000Y-97775000D01*
X70050000Y-99403554D02*
X70050000Y-97328554D01*
X69341054Y-100112500D02*
X70050000Y-99403554D01*
X67812500Y-100812500D02*
X68175000Y-100812500D01*
X70050000Y-97328554D02*
X70778554Y-96600000D01*
%TO.N,+VBUS*%
D38*
X63850000Y-96900000D02*
X63850000Y-96375000D01*
X67812500Y-99862500D02*
X67037500Y-99862500D01*
X65650000Y-96975000D02*
X65875000Y-97200000D01*
X62900000Y-97850000D02*
X63850000Y-96900000D01*
X64575000Y-95650000D02*
X65650000Y-95650000D01*
X62900000Y-97850000D02*
X62900000Y-98375000D01*
X62475000Y-102650000D02*
X63125000Y-102000000D01*
X63850000Y-96375000D02*
X64575000Y-95650000D01*
X66700000Y-99525000D02*
X66700000Y-98025000D01*
X67037500Y-99862500D02*
X66700000Y-99525000D01*
X65650000Y-95650000D02*
X65650000Y-96975000D01*
X66700000Y-98025000D02*
X65875000Y-97200000D01*
X60930000Y-102650000D02*
X62475000Y-102650000D01*
X60930000Y-97850000D02*
X62900000Y-97850000D01*
X63125000Y-102000000D02*
X63125000Y-101625000D01*
X62900000Y-98375000D02*
X62900000Y-98450000D01*
%TO.N,/USBCD-*%
D37*
X68175000Y-98912500D02*
X68875000Y-99612500D01*
X69550000Y-97121446D02*
X70571446Y-96100000D01*
X74500000Y-97950000D02*
X73787500Y-98662500D01*
X70571446Y-96100000D02*
X73453554Y-96100000D01*
X69133946Y-99612500D02*
X69550000Y-99196446D01*
X73453554Y-96100000D02*
X74500000Y-97146446D01*
X68875000Y-99612500D02*
X69133946Y-99612500D01*
X69550000Y-99196446D02*
X69550000Y-97121446D01*
X67812500Y-98912500D02*
X68175000Y-98912500D01*
X74500000Y-97146446D02*
X74500000Y-97950000D01*
X73787500Y-98662500D02*
X72650000Y-98662500D01*
%TO.N,/USBCC1*%
D35*
X60930000Y-99000000D02*
X58775000Y-99000000D01*
X59150000Y-94000000D02*
X61475000Y-94000000D01*
X58350000Y-98575000D02*
X58350000Y-94800000D01*
X58350000Y-94800000D02*
X59150000Y-94000000D01*
X58775000Y-99000000D02*
X58350000Y-98575000D01*
%TO.N,/USBCC2*%
X59275000Y-106500000D02*
X61975000Y-106500000D01*
X60930000Y-102000000D02*
X59150000Y-102000000D01*
X58450000Y-105675000D02*
X59275000Y-106500000D01*
X58450000Y-102700000D02*
X58450000Y-105675000D01*
X59150000Y-102000000D02*
X58450000Y-102700000D01*
%TO.N,/NRST*%
X100950000Y-103750000D02*
X101475000Y-103225000D01*
X97875000Y-102775000D02*
X98850000Y-103750000D01*
X97500000Y-102775000D02*
X96000000Y-102775000D01*
D36*
X101550000Y-100875000D02*
X101550000Y-102475000D01*
X101550000Y-102475000D02*
X101525000Y-102500000D01*
D35*
X101525000Y-103225000D02*
X101525000Y-102500000D01*
X101475000Y-103225000D02*
X101525000Y-103225000D01*
X98850000Y-103750000D02*
X100950000Y-103750000D01*
X88062500Y-97912500D02*
X85337500Y-97912500D01*
X92275000Y-102125000D02*
X88062500Y-97912500D01*
X102500000Y-99925000D02*
X101550000Y-100875000D01*
X97500000Y-102775000D02*
X97875000Y-102775000D01*
X102500000Y-99797500D02*
X102500000Y-99925000D01*
X96000000Y-102775000D02*
X93150000Y-102775000D01*
X93150000Y-102775000D02*
X92500000Y-102125000D01*
X92500000Y-102125000D02*
X92275000Y-102125000D01*
%TO.N,+VBUSF*%
D38*
X69625000Y-88800000D02*
X71000000Y-88800000D01*
X72375000Y-90400000D02*
X72675000Y-90700000D01*
X67650000Y-95650000D02*
X67650000Y-96975000D01*
X69075000Y-95225000D02*
X69075000Y-91750000D01*
X72375000Y-88800000D02*
X72375000Y-90400000D01*
X69075000Y-91750000D02*
X68750000Y-91425000D01*
X68750000Y-89675000D02*
X69625000Y-88800000D01*
X68750000Y-91425000D02*
X68750000Y-89675000D01*
X72675000Y-90700000D02*
X73612500Y-90700000D01*
X68650000Y-95650000D02*
X69075000Y-95225000D01*
X67650000Y-96975000D02*
X67425000Y-97200000D01*
X67650000Y-95650000D02*
X68650000Y-95650000D01*
X72375000Y-88800000D02*
X73612500Y-88800000D01*
X71000000Y-88800000D02*
X72375000Y-88800000D01*
%TO.N,Net-(U1-BP)*%
X75887500Y-90700000D02*
X75887500Y-92562500D01*
X75887500Y-92562500D02*
X75700000Y-92750000D01*
%TO.N,+3V3*%
X75200000Y-100050000D02*
X75500000Y-99750000D01*
D36*
X90962500Y-111212500D02*
X91000000Y-111250000D01*
D38*
X80275000Y-89450000D02*
X80275000Y-93400000D01*
X95500000Y-101225000D02*
X95025000Y-101700000D01*
D35*
X88275000Y-107525000D02*
X87550000Y-108250000D01*
D38*
X78275000Y-95400000D02*
X76900000Y-95400000D01*
X83612500Y-98912500D02*
X84162500Y-98912500D01*
D39*
X76850000Y-99662500D02*
X75587500Y-99662500D01*
D38*
X78000000Y-88800000D02*
X79625000Y-88800000D01*
D36*
X101230000Y-99797500D02*
X100927500Y-99797500D01*
D38*
X73800000Y-102000000D02*
X73800000Y-101450000D01*
X73800000Y-101450000D02*
X75200000Y-100050000D01*
X73800000Y-108250000D02*
X75100000Y-109550000D01*
X82750000Y-98050000D02*
X82750000Y-97100000D01*
D40*
X76900000Y-95400000D02*
X76900000Y-97960500D01*
D38*
X80275000Y-93400000D02*
X78275000Y-95400000D01*
X75200000Y-98600000D02*
X75714500Y-98085500D01*
D36*
X90179000Y-111054000D02*
X90225000Y-111100000D01*
X88402000Y-111100000D02*
X88175000Y-110873000D01*
D38*
X96000000Y-101225000D02*
X96000000Y-99725000D01*
X93848000Y-110802000D02*
X93300000Y-111350000D01*
D36*
X90087500Y-111337500D02*
X90125000Y-111300000D01*
X90500000Y-111100000D02*
X90850000Y-111100000D01*
D38*
X75100000Y-109550000D02*
X85425000Y-109550000D01*
X91987500Y-111350000D02*
X91100000Y-111350000D01*
D35*
X87550000Y-108250000D02*
X87550000Y-108875000D01*
D38*
X96000000Y-101225000D02*
X95500000Y-101225000D01*
X75714500Y-98085500D02*
X76850000Y-98085500D01*
D36*
X100927500Y-99797500D02*
X100625000Y-100100000D01*
D38*
X96000000Y-99725000D02*
X96250000Y-99475000D01*
X92850000Y-107525000D02*
X92850000Y-106950000D01*
D39*
X75587500Y-99662500D02*
X75500000Y-99750000D01*
D38*
X80275000Y-93400000D02*
X81675000Y-93400000D01*
D36*
X90125000Y-111054000D02*
X90179000Y-111054000D01*
D38*
X96250000Y-99475000D02*
X98650000Y-99475000D01*
D36*
X88975000Y-111100000D02*
X88402000Y-111100000D01*
X90850000Y-111100000D02*
X90962500Y-111212500D01*
D38*
X91100000Y-111350000D02*
X91000000Y-111250000D01*
D35*
X85337500Y-98912500D02*
X84162500Y-98912500D01*
X87550000Y-110248000D02*
X88175000Y-110873000D01*
D38*
X92850000Y-107525000D02*
X92850000Y-107825000D01*
X79625000Y-88800000D02*
X80275000Y-89450000D01*
X75200000Y-100050000D02*
X75200000Y-98600000D01*
D36*
X90125000Y-111300000D02*
X90125000Y-111054000D01*
D38*
X93300000Y-111350000D02*
X91987500Y-111350000D01*
D36*
X90225000Y-111100000D02*
X90500000Y-111100000D01*
X100625000Y-100100000D02*
X99275000Y-100100000D01*
D38*
X73800000Y-102000000D02*
X73800000Y-108250000D01*
X98650000Y-99475000D02*
X99275000Y-100100000D01*
X92850000Y-106950000D02*
X93400000Y-106400000D01*
X82750000Y-97100000D02*
X82500000Y-96850000D01*
X76850000Y-98085500D02*
X76900000Y-98035500D01*
X75887500Y-88800000D02*
X78000000Y-88800000D01*
X81675000Y-93400000D02*
X82400000Y-94125000D01*
X93848000Y-108823000D02*
X93848000Y-110802000D01*
X82750000Y-98050000D02*
X83612500Y-98912500D01*
D35*
X87550000Y-108875000D02*
X87550000Y-110248000D01*
D38*
X92850000Y-107825000D02*
X93848000Y-108823000D01*
%TO.N,/HFXOUT*%
X85200000Y-105425000D02*
X85250000Y-105475000D01*
D35*
X83300000Y-105425000D02*
X85200000Y-105425000D01*
X85250000Y-102000000D02*
X85250000Y-105475000D01*
X85337500Y-101912500D02*
X85250000Y-102000000D01*
%TO.N,I2C0SCL*%
X90050000Y-108950000D02*
X89250000Y-108950000D01*
X91300000Y-107700000D02*
X90050000Y-108950000D01*
X89250000Y-108950000D02*
X88975000Y-109225000D01*
X88975000Y-109225000D02*
X88975000Y-109998000D01*
X89750000Y-104425000D02*
X91300000Y-105975000D01*
X91300000Y-107525000D02*
X91300000Y-107700000D01*
X91300000Y-105975000D02*
X91300000Y-107525000D01*
X89750000Y-103325000D02*
X89750000Y-104425000D01*
%TO.N,I2C0SDA*%
X89600000Y-107300000D02*
X89825000Y-107525000D01*
X89825000Y-107525000D02*
X89825000Y-107925000D01*
X88225000Y-110125000D02*
X88350000Y-110250000D01*
D36*
X88500000Y-110400000D02*
X88350000Y-110250000D01*
D35*
X89250000Y-103325000D02*
X89250000Y-104775000D01*
X88225000Y-108525000D02*
X88225000Y-110125000D01*
X89825000Y-107925000D02*
X89400000Y-108350000D01*
X89250000Y-104775000D02*
X89600000Y-105125000D01*
X89400000Y-108350000D02*
X88400000Y-108350000D01*
X88400000Y-108350000D02*
X88225000Y-108525000D01*
X89600000Y-105125000D02*
X89600000Y-107300000D01*
D36*
X88975000Y-110400000D02*
X88500000Y-110400000D01*
%TO.N,INT2*%
D35*
X91750000Y-103325000D02*
X91750000Y-104275000D01*
X93925000Y-113050000D02*
X89750000Y-113050000D01*
X95025000Y-111950000D02*
X93925000Y-113050000D01*
X95025000Y-105175000D02*
X95025000Y-111950000D01*
X91750000Y-104275000D02*
X92175000Y-104700000D01*
X89350000Y-112650000D02*
X89350000Y-111975000D01*
X92175000Y-104700000D02*
X94550000Y-104700000D01*
D36*
X89387500Y-111937500D02*
X89350000Y-111975000D01*
D35*
X89750000Y-113050000D02*
X89350000Y-112650000D01*
D36*
X89387500Y-111337500D02*
X89387500Y-111937500D01*
D35*
X94550000Y-104700000D02*
X95025000Y-105175000D01*
%TO.N,INT1*%
D36*
X89737500Y-111762500D02*
X89900000Y-111925000D01*
D35*
X90400000Y-112425000D02*
X89900000Y-111925000D01*
X94400000Y-111500000D02*
X93475000Y-112425000D01*
X93475000Y-112425000D02*
X90400000Y-112425000D01*
X91250000Y-104875000D02*
X91925000Y-105550000D01*
X91250000Y-103325000D02*
X91250000Y-104875000D01*
X91925000Y-105550000D02*
X93775000Y-105550000D01*
X94400000Y-106175000D02*
X94400000Y-111500000D01*
D36*
X89737500Y-111337500D02*
X89737500Y-111762500D01*
D35*
X93775000Y-105550000D02*
X94400000Y-106175000D01*
%TO.N,Net-(U4-GND-Pad10)*%
D36*
X89737500Y-109812500D02*
X90087500Y-109812500D01*
X90262500Y-109812500D02*
X90500000Y-110050000D01*
X89387500Y-109812500D02*
X89737500Y-109812500D01*
X90087500Y-109812500D02*
X90262500Y-109812500D01*
X90500000Y-110400000D02*
X90500000Y-110050000D01*
%TO.N,/VREF-*%
D35*
X91250000Y-95000000D02*
X91250000Y-93225000D01*
X91250000Y-93225000D02*
X91025000Y-93000000D01*
D40*
X91025000Y-91500000D02*
X91025000Y-93000000D01*
%TO.N,/VREF+*%
D35*
X89250000Y-93225000D02*
X89475000Y-93000000D01*
X89250000Y-95000000D02*
X89250000Y-93225000D01*
%TO.N,/SWDIO*%
D36*
X99375000Y-98250000D02*
X99325000Y-98200000D01*
D35*
X96875000Y-98050000D02*
X99000000Y-98050000D01*
X93662500Y-97412500D02*
X96237500Y-97412500D01*
X99000000Y-98050000D02*
X99150000Y-98200000D01*
D36*
X100425000Y-98250000D02*
X99375000Y-98250000D01*
D35*
X100702500Y-98527500D02*
X100425000Y-98250000D01*
X101230000Y-98527500D02*
X100702500Y-98527500D01*
X96237500Y-97412500D02*
X96875000Y-98050000D01*
X99150000Y-98200000D02*
X99325000Y-98200000D01*
%TO.N,/SWCLK*%
X101543550Y-94818550D02*
X101543550Y-96150000D01*
D36*
X101525000Y-96168550D02*
X101543550Y-96150000D01*
X101525000Y-97550000D02*
X101525000Y-96168550D01*
D35*
X102500000Y-98527500D02*
X102500000Y-98525000D01*
X93662500Y-96912500D02*
X94812500Y-96912500D01*
X97625000Y-94100000D02*
X100825000Y-94100000D01*
X94812500Y-96912500D02*
X97625000Y-94100000D01*
X102500000Y-98525000D02*
X101525000Y-97550000D01*
X100825000Y-94100000D02*
X101543550Y-94818550D01*
%TO.N,/UART0TX*%
X78137500Y-98662500D02*
X78900000Y-97900000D01*
X78900000Y-96750000D02*
X80475000Y-95175000D01*
X83000000Y-95175000D02*
X84237500Y-96412500D01*
X80475000Y-95175000D02*
X83000000Y-95175000D01*
X78900000Y-97900000D02*
X78900000Y-96750000D01*
X76850000Y-98662500D02*
X78137500Y-98662500D01*
X84237500Y-96412500D02*
X85337500Y-96412500D01*
%TO.N,/UART0RX*%
X80050000Y-99150000D02*
X76862500Y-99150000D01*
X85337500Y-96912500D02*
X84012500Y-96912500D01*
X80475000Y-96875000D02*
X80475000Y-98725000D01*
X84000000Y-96900000D02*
X83750000Y-96900000D01*
X76862500Y-99150000D02*
X76850000Y-99162500D01*
X80475000Y-98725000D02*
X80050000Y-99150000D01*
X81350000Y-96000000D02*
X80475000Y-96875000D01*
X84012500Y-96912500D02*
X84000000Y-96900000D01*
X83750000Y-96900000D02*
X82850000Y-96000000D01*
X82850000Y-96000000D02*
X81350000Y-96000000D01*
%TO.N,/ROSC*%
X85337500Y-99912500D02*
X84387500Y-99912500D01*
X83750000Y-101225000D02*
X83300000Y-101225000D01*
X84075000Y-100900000D02*
X83750000Y-101225000D01*
X84387500Y-99912500D02*
X84075000Y-100225000D01*
X84075000Y-100225000D02*
X84075000Y-100900000D01*
X83300000Y-101225000D02*
X83025000Y-101500000D01*
%TO.N,/UART0RTS*%
X86375000Y-106425000D02*
X88250000Y-104550000D01*
X71200000Y-100600000D02*
X71200000Y-108350000D01*
X71200000Y-108350000D02*
X73650000Y-110800000D01*
X72650000Y-100162500D02*
X71637500Y-100162500D01*
X71637500Y-100162500D02*
X71200000Y-100600000D01*
X88250000Y-104550000D02*
X88250000Y-103325000D01*
X86250000Y-110800000D02*
X86375000Y-110675000D01*
X73650000Y-110800000D02*
X86250000Y-110800000D01*
X86375000Y-110675000D02*
X86375000Y-106425000D01*
%TO.N,/UART0CTS*%
X73250000Y-112275000D02*
X86775000Y-112275000D01*
X71337500Y-99662500D02*
X69925000Y-101075000D01*
X69925000Y-101075000D02*
X69925000Y-108950000D01*
X86875000Y-112175000D02*
X86875000Y-106825000D01*
X86875000Y-106825000D02*
X87625000Y-106075000D01*
X88525000Y-106075000D02*
X88750000Y-105850000D01*
X69925000Y-108950000D02*
X73250000Y-112275000D01*
X72650000Y-99662500D02*
X71337500Y-99662500D01*
X86775000Y-112275000D02*
X86875000Y-112175000D01*
X88750000Y-105850000D02*
X88750000Y-103325000D01*
X87625000Y-106075000D02*
X88525000Y-106075000D01*
%TO.N,+1V35*%
D38*
X86750000Y-94000000D02*
X86750000Y-93000000D01*
D35*
X86750000Y-95000000D02*
X86750000Y-94000000D01*
%TD*%
%TA.AperFunction,Conductor*%
%TO.N,GND*%
G36*
X102998740Y-86500528D02*
G01*
X103001236Y-86500589D01*
X103003556Y-86500674D01*
X103031158Y-86502030D01*
X103335782Y-86516995D01*
X103340569Y-86517349D01*
X103345436Y-86517828D01*
X103350190Y-86518415D01*
X103675547Y-86566677D01*
X103680246Y-86567492D01*
X103685071Y-86568451D01*
X103689758Y-86569504D01*
X104008809Y-86649423D01*
X104013432Y-86650702D01*
X104018118Y-86652123D01*
X104022703Y-86653638D01*
X104332352Y-86764432D01*
X104336830Y-86766159D01*
X104341387Y-86768047D01*
X104345757Y-86769984D01*
X104625152Y-86902128D01*
X104643064Y-86910600D01*
X104647399Y-86912782D01*
X104651701Y-86915082D01*
X104655893Y-86917457D01*
X104937975Y-87086530D01*
X104942074Y-87089126D01*
X104946120Y-87091830D01*
X104950085Y-87094623D01*
X105214184Y-87290493D01*
X105218006Y-87293475D01*
X105221783Y-87296574D01*
X105225471Y-87299755D01*
X105469105Y-87520572D01*
X105472625Y-87523922D01*
X105476076Y-87527373D01*
X105479426Y-87530893D01*
X105603484Y-87667770D01*
X105700243Y-87774527D01*
X105703424Y-87778215D01*
X105706523Y-87781992D01*
X105709505Y-87785814D01*
X105905375Y-88049913D01*
X105908168Y-88053878D01*
X105910872Y-88057924D01*
X105913477Y-88062037D01*
X106082527Y-88344082D01*
X106084919Y-88348303D01*
X106087213Y-88352594D01*
X106089401Y-88356941D01*
X106229997Y-88654205D01*
X106231968Y-88658653D01*
X106233825Y-88663137D01*
X106235572Y-88667665D01*
X106346355Y-88977279D01*
X106347885Y-88981913D01*
X106349296Y-88986568D01*
X106350586Y-88991231D01*
X106430483Y-89310196D01*
X106431548Y-89314941D01*
X106432501Y-89319733D01*
X106433325Y-89324482D01*
X106474914Y-89604845D01*
X106481575Y-89649749D01*
X106482168Y-89654559D01*
X106482647Y-89659416D01*
X106483006Y-89664274D01*
X106492957Y-89866824D01*
X106493658Y-89881093D01*
X106497514Y-89959584D01*
X106497583Y-89960979D01*
X106498212Y-89973787D01*
X106499322Y-89996386D01*
X106499410Y-89998799D01*
X106499468Y-90001134D01*
X106499470Y-90001191D01*
X106499500Y-90003634D01*
X106499500Y-109996364D01*
X106499470Y-109998805D01*
X106499411Y-110001197D01*
X106499322Y-110003614D01*
X106483006Y-110335724D01*
X106482647Y-110340582D01*
X106482168Y-110345439D01*
X106481578Y-110350228D01*
X106433327Y-110675509D01*
X106432501Y-110680265D01*
X106431548Y-110685057D01*
X106430483Y-110689802D01*
X106350586Y-111008767D01*
X106349296Y-111013430D01*
X106347885Y-111018085D01*
X106346355Y-111022719D01*
X106235572Y-111332333D01*
X106233825Y-111336861D01*
X106231968Y-111341345D01*
X106229997Y-111345793D01*
X106089401Y-111643057D01*
X106087213Y-111647404D01*
X106084919Y-111651695D01*
X106082527Y-111655916D01*
X105913477Y-111937961D01*
X105910872Y-111942074D01*
X105908168Y-111946120D01*
X105905375Y-111950085D01*
X105709505Y-112214184D01*
X105706523Y-112218006D01*
X105703424Y-112221783D01*
X105700243Y-112225471D01*
X105479431Y-112469100D01*
X105476081Y-112472620D01*
X105472620Y-112476081D01*
X105469100Y-112479431D01*
X105225471Y-112700243D01*
X105221783Y-112703424D01*
X105218006Y-112706523D01*
X105214184Y-112709505D01*
X104950085Y-112905375D01*
X104946120Y-112908168D01*
X104942074Y-112910872D01*
X104937961Y-112913477D01*
X104655916Y-113082527D01*
X104651695Y-113084919D01*
X104647404Y-113087213D01*
X104643057Y-113089401D01*
X104345793Y-113229997D01*
X104341345Y-113231968D01*
X104336861Y-113233825D01*
X104332333Y-113235572D01*
X104022719Y-113346355D01*
X104018085Y-113347885D01*
X104013430Y-113349296D01*
X104008767Y-113350586D01*
X103689802Y-113430483D01*
X103685057Y-113431548D01*
X103680265Y-113432501D01*
X103675509Y-113433327D01*
X103361376Y-113479924D01*
X103350249Y-113481575D01*
X103345439Y-113482168D01*
X103340582Y-113482647D01*
X103335724Y-113483006D01*
X103003614Y-113499322D01*
X103001199Y-113499410D01*
X102998770Y-113499470D01*
X102996365Y-113499500D01*
X94508712Y-113499500D01*
X94478120Y-113494655D01*
X94467716Y-113491274D01*
X94418217Y-113455312D01*
X94399309Y-113397121D01*
X94413896Y-113345395D01*
X94416907Y-113340483D01*
X94431305Y-113322218D01*
X95465510Y-112288015D01*
X95537984Y-112162485D01*
X95558214Y-112086985D01*
X95575500Y-112022475D01*
X95575500Y-109913381D01*
X95899500Y-109913381D01*
X95899500Y-110086617D01*
X95926596Y-110257700D01*
X95928455Y-110263495D01*
X95928533Y-110263682D01*
X95928729Y-110264265D01*
X95980123Y-110422438D01*
X95980125Y-110422441D01*
X95986030Y-110434031D01*
X95986031Y-110434033D01*
X96051001Y-110561547D01*
X96058765Y-110576783D01*
X96058768Y-110576788D01*
X96160586Y-110716928D01*
X96283072Y-110839414D01*
X96423212Y-110941232D01*
X96572407Y-111017250D01*
X96578254Y-111020229D01*
X96581227Y-111021067D01*
X96742293Y-111073401D01*
X96742297Y-111073402D01*
X96742303Y-111073403D01*
X96913383Y-111100500D01*
X97086614Y-111100500D01*
X97086617Y-111100500D01*
X97225843Y-111078447D01*
X97257702Y-111073402D01*
X97257706Y-111073401D01*
X97422438Y-111019876D01*
X97422438Y-111019875D01*
X97423182Y-111019634D01*
X97425899Y-111018113D01*
X97425933Y-111018096D01*
X97576788Y-110941232D01*
X97716928Y-110839414D01*
X97839414Y-110716928D01*
X97941232Y-110576788D01*
X98019873Y-110422445D01*
X98019874Y-110422440D01*
X98019876Y-110422438D01*
X98021100Y-110418669D01*
X98021369Y-110418057D01*
X98021655Y-110416960D01*
X98073402Y-110257704D01*
X98073402Y-110257702D01*
X98090654Y-110148773D01*
X98100500Y-110086615D01*
X98100500Y-109913381D01*
X98073403Y-109742299D01*
X98073402Y-109742297D01*
X98073401Y-109742293D01*
X98019876Y-109577561D01*
X98019874Y-109577558D01*
X98019873Y-109577557D01*
X98019873Y-109577555D01*
X98018090Y-109574055D01*
X98017842Y-109573420D01*
X98017250Y-109572408D01*
X97941232Y-109423212D01*
X97839414Y-109283072D01*
X97716928Y-109160586D01*
X97716924Y-109160583D01*
X97716922Y-109160581D01*
X97585247Y-109064913D01*
X97585236Y-109064906D01*
X97576788Y-109058768D01*
X97576787Y-109058767D01*
X97576785Y-109058766D01*
X97427591Y-108982749D01*
X97426311Y-108982000D01*
X97422440Y-108980124D01*
X97422438Y-108980123D01*
X97346005Y-108955288D01*
X97257701Y-108926596D01*
X97257696Y-108926595D01*
X97086617Y-108899500D01*
X97086614Y-108899500D01*
X97086611Y-108899500D01*
X96913389Y-108899500D01*
X96913386Y-108899500D01*
X96913383Y-108899500D01*
X96742302Y-108926595D01*
X96742297Y-108926596D01*
X96577561Y-108980123D01*
X96573685Y-108982000D01*
X96572407Y-108982749D01*
X96423209Y-109058768D01*
X96283078Y-109160580D01*
X96160580Y-109283078D01*
X96058768Y-109423209D01*
X95982749Y-109572407D01*
X95982000Y-109573685D01*
X95980123Y-109577561D01*
X95926596Y-109742297D01*
X95926596Y-109742299D01*
X95899500Y-109913381D01*
X95575500Y-109913381D01*
X95575500Y-105102525D01*
X95537984Y-104962515D01*
X95513278Y-104919723D01*
X95465510Y-104836985D01*
X94888015Y-104259490D01*
X94762485Y-104187016D01*
X94622475Y-104149500D01*
X94622474Y-104149500D01*
X92913867Y-104149500D01*
X92883274Y-104144654D01*
X92870588Y-104140532D01*
X92821095Y-104104578D01*
X92819667Y-104102613D01*
X92801282Y-104054629D01*
X92800803Y-104050024D01*
X92800418Y-104034511D01*
X92800497Y-104033006D01*
X92800500Y-104032985D01*
X92800499Y-103395073D01*
X92805346Y-103364477D01*
X92808867Y-103353642D01*
X92844833Y-103304144D01*
X92903020Y-103285239D01*
X92913957Y-103285239D01*
X92933165Y-103287120D01*
X92934247Y-103287334D01*
X92940648Y-103288823D01*
X93077522Y-103325499D01*
X93077524Y-103325500D01*
X93077525Y-103325500D01*
X93077526Y-103325500D01*
X93222474Y-103325500D01*
X95143654Y-103325500D01*
X95174247Y-103330346D01*
X95192559Y-103336296D01*
X95235196Y-103363829D01*
X95237726Y-103366610D01*
X95249706Y-103382831D01*
X95251825Y-103386414D01*
X95251828Y-103386417D01*
X95251830Y-103386420D01*
X95363580Y-103498170D01*
X95499610Y-103578618D01*
X95651373Y-103622709D01*
X95686837Y-103625500D01*
X96313162Y-103625499D01*
X96348627Y-103622709D01*
X96500390Y-103578618D01*
X96636420Y-103498170D01*
X96668911Y-103465677D01*
X96693966Y-103447474D01*
X96705853Y-103441417D01*
X96766281Y-103431847D01*
X96771319Y-103432645D01*
X96825830Y-103460421D01*
X96861224Y-103495814D01*
X96863580Y-103498170D01*
X96999610Y-103578618D01*
X97151373Y-103622709D01*
X97186837Y-103625500D01*
X97813162Y-103625499D01*
X97848627Y-103622709D01*
X97851390Y-103621906D01*
X97882112Y-103618023D01*
X97900530Y-103618601D01*
X97950465Y-103633961D01*
X97954845Y-103636740D01*
X97971795Y-103650320D01*
X98511985Y-104190510D01*
X98631463Y-104259490D01*
X98637515Y-104262984D01*
X98777525Y-104300500D01*
X98777526Y-104300500D01*
X101022474Y-104300500D01*
X101022475Y-104300500D01*
X101162485Y-104262984D01*
X101168537Y-104259490D01*
X101288015Y-104190510D01*
X101730922Y-103747600D01*
X101740640Y-103739078D01*
X101750853Y-103731241D01*
X101761607Y-103724055D01*
X101863015Y-103665509D01*
X101965509Y-103563015D01*
X101983651Y-103531593D01*
X102037982Y-103437489D01*
X102037982Y-103437487D01*
X102037984Y-103437485D01*
X102075500Y-103297475D01*
X102075500Y-102925054D01*
X102080347Y-102894457D01*
X102083868Y-102883622D01*
X102119834Y-102834124D01*
X102178021Y-102815219D01*
X102181167Y-102815219D01*
X102239356Y-102834125D01*
X102328687Y-102899028D01*
X102328689Y-102899030D01*
X102355281Y-102918351D01*
X102355282Y-102918351D01*
X102379251Y-102935765D01*
X102379253Y-102935766D01*
X102581483Y-103038808D01*
X102797343Y-103108945D01*
X102797344Y-103108945D01*
X102797347Y-103108946D01*
X102841803Y-103115987D01*
X103021510Y-103144450D01*
X103248487Y-103144450D01*
X103248490Y-103144450D01*
X103337337Y-103130377D01*
X103472652Y-103108946D01*
X103472652Y-103108945D01*
X103472654Y-103108945D01*
X103472657Y-103108945D01*
X103472660Y-103108943D01*
X103475236Y-103108536D01*
X103480043Y-103106544D01*
X103688517Y-103038808D01*
X103890747Y-102935766D01*
X104074368Y-102802358D01*
X104234858Y-102641868D01*
X104368266Y-102458247D01*
X104471308Y-102256017D01*
X104541445Y-102040157D01*
X104542742Y-102031970D01*
X104544955Y-102017998D01*
X104544955Y-102017996D01*
X104576950Y-101815990D01*
X104576950Y-101589008D01*
X104557426Y-101465742D01*
X104541446Y-101364847D01*
X104540223Y-101361081D01*
X104471308Y-101148983D01*
X104368266Y-100946753D01*
X104234858Y-100763132D01*
X104074368Y-100602642D01*
X104074364Y-100602639D01*
X104074361Y-100602636D01*
X104056438Y-100589614D01*
X104024520Y-100566424D01*
X104002618Y-100544522D01*
X103994778Y-100533731D01*
X103975871Y-100475542D01*
X103975871Y-100474536D01*
X103990546Y-100422671D01*
X103994082Y-100416922D01*
X104008636Y-100398559D01*
X104084043Y-100323675D01*
X103995748Y-100235380D01*
X103726873Y-99966503D01*
X103699096Y-99911987D01*
X103708667Y-99851555D01*
X103708868Y-99851163D01*
X103736512Y-99797500D01*
X103770000Y-99797500D01*
X103770000Y-99797498D01*
X103982132Y-99797498D01*
X103982132Y-99797499D01*
X104250117Y-100065485D01*
X104268322Y-100090542D01*
X104279409Y-100112301D01*
X104290200Y-100157247D01*
X104290200Y-100252356D01*
X104294057Y-100271743D01*
X104296872Y-100285895D01*
X104297221Y-100293298D01*
X104295670Y-100298966D01*
X104295907Y-100300497D01*
X104304024Y-100321853D01*
X104305640Y-100329973D01*
X104319012Y-100397203D01*
X104319015Y-100397213D01*
X104375534Y-100533663D01*
X104375536Y-100533665D01*
X104447655Y-100641600D01*
X104447656Y-100641600D01*
X104456664Y-100655082D01*
X104457592Y-100656470D01*
X104562030Y-100760908D01*
X104684836Y-100842964D01*
X104821291Y-100899486D01*
X104966151Y-100928300D01*
X104966152Y-100928300D01*
X105113848Y-100928300D01*
X105113849Y-100928300D01*
X105258709Y-100899486D01*
X105395164Y-100842964D01*
X105517970Y-100760908D01*
X105622408Y-100656470D01*
X105704464Y-100533664D01*
X105760986Y-100397209D01*
X105789800Y-100252349D01*
X105789800Y-100104651D01*
X105760986Y-99959791D01*
X105704464Y-99823336D01*
X105622408Y-99700530D01*
X105570715Y-99648837D01*
X105517973Y-99596094D01*
X105516975Y-99595427D01*
X105509616Y-99590510D01*
X105496741Y-99581907D01*
X105395170Y-99514038D01*
X105395158Y-99514032D01*
X105258707Y-99457513D01*
X105113853Y-99428700D01*
X105113851Y-99428700D01*
X105113849Y-99428700D01*
X104966151Y-99428700D01*
X104966148Y-99428700D01*
X104966145Y-99428700D01*
X104821292Y-99457513D01*
X104821290Y-99457513D01*
X104684838Y-99514033D01*
X104562026Y-99596093D01*
X104551508Y-99606612D01*
X104526448Y-99624818D01*
X104516299Y-99629989D01*
X104455867Y-99639560D01*
X104401353Y-99611784D01*
X104395565Y-99605995D01*
X104374110Y-99573884D01*
X104340439Y-99492593D01*
X104319049Y-99460581D01*
X104319048Y-99460580D01*
X103982132Y-99797498D01*
X103770000Y-99797498D01*
X103770000Y-99626373D01*
X103788907Y-99568182D01*
X103798990Y-99556376D01*
X104087584Y-99267781D01*
X104102575Y-99255477D01*
X104118489Y-99244843D01*
X104135606Y-99235696D01*
X104146195Y-99231311D01*
X104276273Y-99144396D01*
X104386896Y-99033773D01*
X104387423Y-99032985D01*
X104473804Y-98903707D01*
X104473807Y-98903700D01*
X104473811Y-98903695D01*
X104497477Y-98846559D01*
X104513656Y-98820155D01*
X104522320Y-98810011D01*
X104573589Y-98778262D01*
X104573633Y-98778251D01*
X104630081Y-98780760D01*
X104637942Y-98783486D01*
X104660502Y-98794704D01*
X104684836Y-98810964D01*
X104821291Y-98867486D01*
X104966151Y-98896300D01*
X104966152Y-98896300D01*
X105113848Y-98896300D01*
X105113849Y-98896300D01*
X105258709Y-98867486D01*
X105395164Y-98810964D01*
X105517970Y-98728908D01*
X105622408Y-98624470D01*
X105704464Y-98501664D01*
X105760986Y-98365209D01*
X105789800Y-98220349D01*
X105789800Y-98072651D01*
X105760986Y-97927791D01*
X105704464Y-97791336D01*
X105622408Y-97668530D01*
X105573526Y-97619648D01*
X105517978Y-97564099D01*
X105517974Y-97564096D01*
X105517970Y-97564092D01*
X105494825Y-97548627D01*
X105442224Y-97513480D01*
X105395169Y-97482038D01*
X105395158Y-97482032D01*
X105258707Y-97425513D01*
X105113853Y-97396700D01*
X105113851Y-97396700D01*
X105113849Y-97396700D01*
X104966151Y-97396700D01*
X104966148Y-97396700D01*
X104966145Y-97396700D01*
X104821292Y-97425513D01*
X104821290Y-97425513D01*
X104684838Y-97482033D01*
X104562033Y-97564088D01*
X104457596Y-97668524D01*
X104457589Y-97668533D01*
X104375533Y-97791337D01*
X104367488Y-97810761D01*
X104351301Y-97837175D01*
X104342638Y-97847317D01*
X104291372Y-97879062D01*
X104291328Y-97879073D01*
X104234877Y-97876563D01*
X104227023Y-97873839D01*
X104204462Y-97862621D01*
X104155733Y-97830062D01*
X104132988Y-97809037D01*
X104124729Y-97798561D01*
X104103570Y-97741572D01*
X104103568Y-97741526D01*
X104117068Y-97687160D01*
X104121274Y-97679985D01*
X104136678Y-97660047D01*
X104181179Y-97615546D01*
X104234858Y-97561868D01*
X104368266Y-97378247D01*
X104471308Y-97176017D01*
X104541445Y-96960157D01*
X104541446Y-96960152D01*
X104561304Y-96834772D01*
X104576950Y-96735990D01*
X104576950Y-96509008D01*
X104548439Y-96329000D01*
X104541446Y-96284847D01*
X104538410Y-96275501D01*
X104471308Y-96068983D01*
X104368266Y-95866753D01*
X104234858Y-95683132D01*
X104074368Y-95522642D01*
X104044783Y-95501147D01*
X103899198Y-95395372D01*
X103899172Y-95395355D01*
X103890747Y-95389234D01*
X103890746Y-95389233D01*
X103890744Y-95389232D01*
X103885923Y-95386775D01*
X103885919Y-95386773D01*
X103797191Y-95341565D01*
X103797191Y-95341564D01*
X103797189Y-95341564D01*
X103688516Y-95286191D01*
X103577124Y-95249998D01*
X103472652Y-95216053D01*
X103472650Y-95216052D01*
X103472648Y-95216052D01*
X103248490Y-95180550D01*
X103248487Y-95180550D01*
X103248484Y-95180550D01*
X103021516Y-95180550D01*
X103021513Y-95180550D01*
X103021509Y-95180550D01*
X102797351Y-95216051D01*
X102581486Y-95286190D01*
X102379254Y-95389231D01*
X102379249Y-95389235D01*
X102263928Y-95473022D01*
X102236328Y-95487085D01*
X102225491Y-95490606D01*
X102164306Y-95490605D01*
X102114807Y-95454641D01*
X102114789Y-95454616D01*
X102112939Y-95452068D01*
X102094050Y-95393903D01*
X102094050Y-94746075D01*
X102091731Y-94737422D01*
X102056534Y-94606065D01*
X102045824Y-94587515D01*
X101984060Y-94480535D01*
X101163015Y-93659490D01*
X101143140Y-93648015D01*
X101048744Y-93593515D01*
X101048739Y-93593513D01*
X101037485Y-93587016D01*
X101037484Y-93587015D01*
X101037481Y-93587014D01*
X100990775Y-93574499D01*
X100990775Y-93574500D01*
X100942220Y-93561489D01*
X100942175Y-93561476D01*
X100897475Y-93549500D01*
X97552525Y-93549500D01*
X97517129Y-93558984D01*
X97484848Y-93567634D01*
X97484846Y-93567634D01*
X97459224Y-93574499D01*
X97457291Y-93575017D01*
X97412513Y-93587015D01*
X97286986Y-93659489D01*
X94878132Y-96068339D01*
X94853076Y-96086544D01*
X94841193Y-96092599D01*
X94780775Y-96102173D01*
X94779313Y-96101942D01*
X94731022Y-96079890D01*
X94726472Y-96076059D01*
X94710982Y-96059656D01*
X94664689Y-95997816D01*
X94664687Y-95997813D01*
X94653026Y-95989084D01*
X94588385Y-95940694D01*
X94555228Y-95915873D01*
X94555229Y-95915873D01*
X94508886Y-95898588D01*
X94427114Y-95868088D01*
X94427113Y-95868087D01*
X94388895Y-95863979D01*
X94385849Y-95863651D01*
X94385834Y-95863649D01*
X94370488Y-95862000D01*
X94370485Y-95862000D01*
X94370481Y-95862000D01*
X92954521Y-95862000D01*
X92954513Y-95862000D01*
X92954481Y-95862003D01*
X92919681Y-95865744D01*
X92888743Y-95864195D01*
X92875937Y-95861504D01*
X92822878Y-95831034D01*
X92798516Y-95780110D01*
X92797135Y-95771393D01*
X92796484Y-95745336D01*
X92800500Y-95707985D01*
X92800499Y-94292016D01*
X92794412Y-94235386D01*
X92746628Y-94107274D01*
X92664687Y-93997813D01*
X92628476Y-93970706D01*
X92555228Y-93915873D01*
X92555227Y-93915872D01*
X92493886Y-93892993D01*
X92427114Y-93868088D01*
X92427113Y-93868087D01*
X92388895Y-93863979D01*
X92385849Y-93863651D01*
X92385834Y-93863649D01*
X92370488Y-93862000D01*
X92370485Y-93862000D01*
X92370481Y-93862000D01*
X92129521Y-93862000D01*
X92129515Y-93862001D01*
X92072883Y-93868088D01*
X92041067Y-93879954D01*
X92033358Y-93881506D01*
X92030004Y-93881116D01*
X92019859Y-93883268D01*
X91996093Y-93884719D01*
X91955466Y-93878662D01*
X91927118Y-93868089D01*
X91927115Y-93868088D01*
X91927114Y-93868088D01*
X91927111Y-93868087D01*
X91927108Y-93868087D01*
X91900179Y-93865192D01*
X91860074Y-93851798D01*
X91859545Y-93851482D01*
X91855498Y-93849006D01*
X91855062Y-93848810D01*
X91852318Y-93847175D01*
X91833805Y-93826030D01*
X91817543Y-93809301D01*
X91816420Y-93809946D01*
X91813641Y-93805105D01*
X91812834Y-93802078D01*
X91812013Y-93801141D01*
X91811716Y-93797887D01*
X91800500Y-93755817D01*
X91800500Y-93588313D01*
X91804007Y-93562196D01*
X91810778Y-93537443D01*
X91821052Y-93513181D01*
X91828618Y-93500390D01*
X91872709Y-93348627D01*
X91875500Y-93313163D01*
X91875499Y-92686838D01*
X91872709Y-92651373D01*
X91828618Y-92499610D01*
X91827972Y-92498518D01*
X91821054Y-92486821D01*
X91810778Y-92462551D01*
X91804009Y-92437807D01*
X91800500Y-92411684D01*
X91800500Y-92088313D01*
X91804007Y-92062196D01*
X91810778Y-92037443D01*
X91821052Y-92013181D01*
X91828618Y-92000390D01*
X91872709Y-91848627D01*
X91875500Y-91813163D01*
X91875499Y-91186838D01*
X91872709Y-91151373D01*
X91828618Y-90999610D01*
X91827972Y-90998518D01*
X91749935Y-90866565D01*
X91748582Y-90864080D01*
X91748323Y-90863734D01*
X91748171Y-90863582D01*
X91748170Y-90863580D01*
X91636420Y-90751830D01*
X91636417Y-90751828D01*
X91636416Y-90751827D01*
X91636414Y-90751825D01*
X91516689Y-90681020D01*
X91516683Y-90681017D01*
X91500392Y-90671383D01*
X91500391Y-90671382D01*
X91500390Y-90671382D01*
X91481064Y-90665767D01*
X91481059Y-90665765D01*
X91424508Y-90649336D01*
X91348631Y-90627291D01*
X91348626Y-90627290D01*
X91348625Y-90627290D01*
X91337259Y-90626396D01*
X91325896Y-90625502D01*
X91325895Y-90625501D01*
X91314782Y-90624627D01*
X91313163Y-90624500D01*
X91313161Y-90624500D01*
X90736847Y-90624500D01*
X90736842Y-90624500D01*
X90725556Y-90625388D01*
X90701375Y-90627290D01*
X90701363Y-90627293D01*
X90625492Y-90649336D01*
X90549610Y-90671382D01*
X90549603Y-90671384D01*
X90549602Y-90671384D01*
X90413586Y-90751824D01*
X90301826Y-90863584D01*
X90253938Y-90944558D01*
X90234198Y-90968420D01*
X90225652Y-90975955D01*
X90169500Y-91000257D01*
X90109788Y-90986913D01*
X90109782Y-90986909D01*
X90102782Y-90982769D01*
X90073925Y-90956885D01*
X90039332Y-90910674D01*
X90039330Y-90910672D01*
X90039329Y-90910670D01*
X90039327Y-90910668D01*
X89976631Y-90863734D01*
X89929981Y-90828812D01*
X89802010Y-90781083D01*
X89802007Y-90781082D01*
X89801995Y-90781080D01*
X89766767Y-90777293D01*
X89745434Y-90775000D01*
X89745432Y-90775000D01*
X89625002Y-90775000D01*
X89625001Y-90775000D01*
X89625000Y-90775001D01*
X89625000Y-90775002D01*
X89625000Y-91385319D01*
X89620154Y-91415912D01*
X89616032Y-91428598D01*
X89580080Y-91478089D01*
X89575959Y-91481084D01*
X89517771Y-91500000D01*
X89475001Y-91500000D01*
X89475000Y-91500001D01*
X89475000Y-91500002D01*
X89475000Y-91535319D01*
X89470154Y-91565912D01*
X89466032Y-91578598D01*
X89430080Y-91628089D01*
X89425959Y-91631084D01*
X89367771Y-91650000D01*
X88775002Y-91650000D01*
X88775001Y-91650001D01*
X88775001Y-91650002D01*
X88775001Y-91795436D01*
X88781081Y-91852005D01*
X88781718Y-91854176D01*
X88782930Y-91856962D01*
X88828811Y-91979979D01*
X88904997Y-92081750D01*
X88919452Y-92109147D01*
X88923068Y-92119758D01*
X88923755Y-92121773D01*
X88924625Y-92182952D01*
X88924625Y-92182953D01*
X88923918Y-92185239D01*
X88896490Y-92228732D01*
X88893251Y-92231722D01*
X88876494Y-92244192D01*
X88863584Y-92251826D01*
X88863582Y-92251828D01*
X88786598Y-92328812D01*
X88751824Y-92363586D01*
X88671334Y-92499687D01*
X88671034Y-92500775D01*
X88670991Y-92500838D01*
X88670681Y-92502020D01*
X88665456Y-92520009D01*
X88665454Y-92520015D01*
X88642216Y-92599998D01*
X88627290Y-92651374D01*
X88624500Y-92686842D01*
X88624500Y-93313157D01*
X88626349Y-93336650D01*
X88627291Y-93348627D01*
X88627291Y-93348629D01*
X88631866Y-93364375D01*
X88640075Y-93392629D01*
X88671382Y-93500390D01*
X88684162Y-93522000D01*
X88687461Y-93531704D01*
X88687483Y-93533340D01*
X88689220Y-93537444D01*
X88695795Y-93561476D01*
X88695991Y-93562190D01*
X88699500Y-93588315D01*
X88699500Y-93749868D01*
X88694654Y-93780461D01*
X88690532Y-93793147D01*
X88654574Y-93842643D01*
X88649021Y-93846678D01*
X88601406Y-93865022D01*
X88572885Y-93868087D01*
X88572884Y-93868087D01*
X88549284Y-93876890D01*
X88518926Y-93883040D01*
X88492573Y-93884169D01*
X88453741Y-93878019D01*
X88427115Y-93868088D01*
X88427112Y-93868087D01*
X88427111Y-93868087D01*
X88427097Y-93868085D01*
X88400493Y-93865226D01*
X88382614Y-93863304D01*
X88370485Y-93862000D01*
X88370483Y-93862000D01*
X88130245Y-93862000D01*
X88129521Y-93862000D01*
X88129515Y-93862001D01*
X88072883Y-93868088D01*
X88041862Y-93879657D01*
X88034084Y-93881212D01*
X88030200Y-93880755D01*
X88018926Y-93883040D01*
X87992574Y-93884169D01*
X87953741Y-93878019D01*
X87927115Y-93868088D01*
X87927112Y-93868087D01*
X87927111Y-93868087D01*
X87927097Y-93868085D01*
X87900493Y-93865226D01*
X87882614Y-93863304D01*
X87870485Y-93862000D01*
X87870483Y-93862000D01*
X87630245Y-93862000D01*
X87629521Y-93862000D01*
X87629515Y-93862001D01*
X87572883Y-93868088D01*
X87541862Y-93879657D01*
X87534084Y-93881212D01*
X87530200Y-93880755D01*
X87518922Y-93883040D01*
X87511041Y-93883378D01*
X87506696Y-93883564D01*
X87447750Y-93867161D01*
X87409703Y-93819243D01*
X87407693Y-93813280D01*
X87407634Y-93813087D01*
X87407223Y-93811721D01*
X87407839Y-93752506D01*
X87412894Y-93736951D01*
X87437040Y-93697548D01*
X87498170Y-93636420D01*
X87578618Y-93500390D01*
X87622709Y-93348627D01*
X87625500Y-93313163D01*
X87625499Y-92686838D01*
X87622709Y-92651373D01*
X87578618Y-92499610D01*
X87577972Y-92498518D01*
X87499935Y-92366565D01*
X87498582Y-92364080D01*
X87498323Y-92363734D01*
X87498171Y-92363582D01*
X87498170Y-92363580D01*
X87386420Y-92251830D01*
X87386417Y-92251828D01*
X87386416Y-92251827D01*
X87386414Y-92251825D01*
X87266689Y-92181020D01*
X87266683Y-92181017D01*
X87250392Y-92171383D01*
X87250391Y-92171382D01*
X87250390Y-92171382D01*
X87231064Y-92165767D01*
X87231059Y-92165765D01*
X87174508Y-92149336D01*
X87098631Y-92127291D01*
X87098626Y-92127290D01*
X87098625Y-92127290D01*
X87087259Y-92126396D01*
X87075896Y-92125502D01*
X87075895Y-92125501D01*
X87064782Y-92124627D01*
X87063163Y-92124500D01*
X87063161Y-92124500D01*
X86486847Y-92124500D01*
X86486842Y-92124500D01*
X86475556Y-92125388D01*
X86451375Y-92127290D01*
X86451363Y-92127293D01*
X86375492Y-92149336D01*
X86299610Y-92171382D01*
X86299603Y-92171384D01*
X86299602Y-92171384D01*
X86163586Y-92251824D01*
X86051826Y-92363584D01*
X86003938Y-92444558D01*
X85984198Y-92468420D01*
X85975652Y-92475955D01*
X85919500Y-92500257D01*
X85859788Y-92486913D01*
X85859782Y-92486909D01*
X85852782Y-92482769D01*
X85823925Y-92456885D01*
X85809643Y-92437807D01*
X85789329Y-92410670D01*
X85789327Y-92410668D01*
X85726433Y-92363586D01*
X85679981Y-92328812D01*
X85552010Y-92281083D01*
X85552007Y-92281082D01*
X85551995Y-92281080D01*
X85516767Y-92277293D01*
X85495434Y-92275000D01*
X85495432Y-92275000D01*
X85375002Y-92275000D01*
X85375001Y-92275000D01*
X85375000Y-92275001D01*
X85375000Y-93724998D01*
X85375001Y-93724999D01*
X85495427Y-93724999D01*
X85495431Y-93724999D01*
X85495434Y-93724998D01*
X85497000Y-93724843D01*
X85497240Y-93724804D01*
X85552004Y-93718918D01*
X85552006Y-93718917D01*
X85679983Y-93671185D01*
X85789327Y-93589331D01*
X85789331Y-93589327D01*
X85822094Y-93545560D01*
X85844301Y-93523979D01*
X85845374Y-93523221D01*
X85853613Y-93517413D01*
X85912067Y-93499337D01*
X85969981Y-93519070D01*
X85976501Y-93523951D01*
X86002380Y-93552806D01*
X86051828Y-93636417D01*
X86051830Y-93636420D01*
X86063424Y-93648015D01*
X86085372Y-93681336D01*
X86087194Y-93685905D01*
X86088483Y-93690380D01*
X86090770Y-93694869D01*
X86092454Y-93699090D01*
X86093114Y-93709172D01*
X86099500Y-93735770D01*
X86099500Y-94064069D01*
X86116593Y-94150001D01*
X86124499Y-94189742D01*
X86124500Y-94189747D01*
X86124501Y-94189749D01*
X86173531Y-94308122D01*
X86174654Y-94309802D01*
X86187078Y-94336068D01*
X86195237Y-94362964D01*
X86199500Y-94391703D01*
X86199500Y-95707975D01*
X86199499Y-95707975D01*
X86199503Y-95708017D01*
X86203244Y-95742817D01*
X86201695Y-95773755D01*
X86199004Y-95786561D01*
X86168534Y-95839620D01*
X86117606Y-95863983D01*
X86108899Y-95865362D01*
X86082833Y-95866014D01*
X86060830Y-95863649D01*
X86053166Y-95862825D01*
X86053164Y-95862824D01*
X86045496Y-95862000D01*
X86045485Y-95862000D01*
X86045484Y-95862000D01*
X84522213Y-95862000D01*
X84491620Y-95857154D01*
X84468393Y-95849607D01*
X84428982Y-95825457D01*
X83889715Y-95286190D01*
X83614367Y-95010842D01*
X83338015Y-94734490D01*
X83338012Y-94734488D01*
X83223701Y-94668490D01*
X83223695Y-94668488D01*
X83212485Y-94662016D01*
X83212484Y-94662015D01*
X83212481Y-94662014D01*
X83169507Y-94650499D01*
X83169507Y-94650500D01*
X83120907Y-94637477D01*
X83120869Y-94637466D01*
X83082187Y-94627102D01*
X83053886Y-94614501D01*
X83044332Y-94608296D01*
X83005829Y-94560745D01*
X83002629Y-94499646D01*
X83005384Y-94489363D01*
X83017102Y-94463302D01*
X83017201Y-94462859D01*
X83017622Y-94462145D01*
X83018373Y-94460476D01*
X83020743Y-94456882D01*
X83020767Y-94456822D01*
X83020770Y-94456819D01*
X83020771Y-94456816D01*
X83020775Y-94456811D01*
X83073580Y-94329328D01*
X83100500Y-94193993D01*
X83100500Y-94056007D01*
X83073580Y-93920672D01*
X83044307Y-93850000D01*
X83020777Y-93793193D01*
X83020771Y-93793182D01*
X83015905Y-93785900D01*
X82944114Y-93678458D01*
X82846545Y-93580889D01*
X82846542Y-93580886D01*
X82755447Y-93520018D01*
X82731810Y-93504224D01*
X82731809Y-93504223D01*
X82731807Y-93504222D01*
X82703294Y-93492412D01*
X82686178Y-93483264D01*
X82670275Y-93472638D01*
X82655273Y-93460326D01*
X82527317Y-93332370D01*
X82373948Y-93179002D01*
X82373945Y-93178999D01*
X82373944Y-93178997D01*
X82344948Y-93150001D01*
X84525001Y-93150001D01*
X84525001Y-93150002D01*
X84525001Y-93295436D01*
X84531081Y-93352005D01*
X84531718Y-93354176D01*
X84532930Y-93356962D01*
X84578812Y-93479981D01*
X84658937Y-93587015D01*
X84660668Y-93589327D01*
X84660672Y-93589331D01*
X84660675Y-93589333D01*
X84660676Y-93589334D01*
X84770017Y-93671186D01*
X84859022Y-93704382D01*
X84897990Y-93718916D01*
X84897998Y-93718918D01*
X84954566Y-93724999D01*
X85074999Y-93724999D01*
X85075000Y-93724999D01*
X85075000Y-93150001D01*
X85074999Y-93150000D01*
X85074998Y-93150000D01*
X84525003Y-93150000D01*
X84525002Y-93150000D01*
X84525001Y-93150001D01*
X82344948Y-93150001D01*
X82089668Y-92894722D01*
X82089667Y-92894721D01*
X81983130Y-92823536D01*
X81983120Y-92823531D01*
X81910322Y-92793378D01*
X81910467Y-92793025D01*
X81910463Y-92793022D01*
X81910317Y-92793376D01*
X81867987Y-92775842D01*
X81865365Y-92774645D01*
X81857768Y-92772851D01*
X81855183Y-92772597D01*
X81739069Y-92749500D01*
X81040180Y-92749500D01*
X81009587Y-92744654D01*
X80996901Y-92740532D01*
X80947401Y-92704568D01*
X80947399Y-92704565D01*
X84525000Y-92704565D01*
X84525000Y-92849999D01*
X84525001Y-92850000D01*
X85074998Y-92850000D01*
X85074999Y-92850000D01*
X85075000Y-92849999D01*
X85075000Y-92275001D01*
X85074999Y-92275000D01*
X85074998Y-92275000D01*
X84954835Y-92275000D01*
X84954569Y-92275000D01*
X84954562Y-92275001D01*
X84897995Y-92281081D01*
X84897993Y-92281082D01*
X84883818Y-92286368D01*
X84883810Y-92286370D01*
X84770017Y-92328812D01*
X84660676Y-92410664D01*
X84660664Y-92410676D01*
X84578812Y-92520017D01*
X84531083Y-92647988D01*
X84531082Y-92647991D01*
X84531080Y-92648003D01*
X84530718Y-92651373D01*
X84525000Y-92704565D01*
X80947399Y-92704565D01*
X80947394Y-92704558D01*
X80944400Y-92700436D01*
X80925500Y-92642256D01*
X80925500Y-91204565D01*
X88775000Y-91204565D01*
X88775000Y-91349999D01*
X88775001Y-91350000D01*
X89324998Y-91350000D01*
X89324999Y-91350000D01*
X89325000Y-91349999D01*
X89325000Y-90775001D01*
X89324999Y-90775000D01*
X89324998Y-90775000D01*
X89204835Y-90775000D01*
X89204569Y-90775000D01*
X89204562Y-90775001D01*
X89147995Y-90781081D01*
X89147993Y-90781082D01*
X89133818Y-90786368D01*
X89133810Y-90786370D01*
X89020017Y-90828812D01*
X88910676Y-90910664D01*
X88910664Y-90910676D01*
X88828812Y-91020017D01*
X88781083Y-91147988D01*
X88781082Y-91147991D01*
X88781080Y-91148003D01*
X88777152Y-91184549D01*
X88775000Y-91204565D01*
X80925500Y-91204565D01*
X80925500Y-89385932D01*
X80925500Y-89385931D01*
X80900501Y-89260256D01*
X80851465Y-89141873D01*
X80811168Y-89081564D01*
X80780277Y-89035331D01*
X80039669Y-88294723D01*
X80039665Y-88294720D01*
X79983337Y-88257083D01*
X79933125Y-88223533D01*
X79823336Y-88178057D01*
X79823330Y-88178055D01*
X79814747Y-88174500D01*
X79814745Y-88174499D01*
X79814744Y-88174499D01*
X79689069Y-88149500D01*
X79051133Y-88149500D01*
X79020539Y-88144654D01*
X78997313Y-88137107D01*
X78957904Y-88112957D01*
X78876866Y-88031920D01*
X78876865Y-88031919D01*
X78735398Y-87948256D01*
X78577569Y-87902402D01*
X78577568Y-87902401D01*
X78577565Y-87902401D01*
X78568380Y-87901678D01*
X78568373Y-87901677D01*
X78554140Y-87900558D01*
X78554139Y-87900557D01*
X78542653Y-87899654D01*
X78540694Y-87899500D01*
X78540692Y-87899500D01*
X77459307Y-87899500D01*
X77459306Y-87899500D01*
X77458454Y-87899566D01*
X77446772Y-87900485D01*
X77446773Y-87900486D01*
X77422441Y-87902400D01*
X77422437Y-87902400D01*
X77422434Y-87902401D01*
X77422427Y-87902403D01*
X77393073Y-87910931D01*
X77264603Y-87948255D01*
X77152614Y-88014484D01*
X77152609Y-88014487D01*
X77123136Y-88031918D01*
X77123135Y-88031918D01*
X77123135Y-88031919D01*
X77090404Y-88064649D01*
X77090396Y-88064656D01*
X77045636Y-88109416D01*
X77020580Y-88127620D01*
X76998820Y-88138708D01*
X76953873Y-88149500D01*
X76659556Y-88149500D01*
X76641074Y-88147759D01*
X76623076Y-88144338D01*
X76605245Y-88139178D01*
X76557891Y-88120505D01*
X76531564Y-88110123D01*
X76531565Y-88110123D01*
X76443108Y-88099500D01*
X76443106Y-88099500D01*
X76443102Y-88099500D01*
X75331898Y-88099500D01*
X75331893Y-88099500D01*
X75331888Y-88099500D01*
X75243434Y-88110123D01*
X75102663Y-88165635D01*
X75102660Y-88165636D01*
X75102660Y-88165637D01*
X75102656Y-88165640D01*
X75102565Y-88165708D01*
X74982083Y-88257073D01*
X74982073Y-88257083D01*
X74890708Y-88377565D01*
X74890634Y-88377664D01*
X74847847Y-88486165D01*
X74832122Y-88512840D01*
X74825497Y-88520872D01*
X74773885Y-88553732D01*
X74712815Y-88549979D01*
X74669034Y-88516071D01*
X74665293Y-88510922D01*
X74653293Y-88489060D01*
X74610272Y-88379969D01*
X74609493Y-88377834D01*
X74609363Y-88377662D01*
X74609362Y-88377660D01*
X74609361Y-88377659D01*
X74609361Y-88377658D01*
X74517922Y-88257078D01*
X74517917Y-88257074D01*
X74402734Y-88169727D01*
X74401398Y-88168562D01*
X74397341Y-88165638D01*
X74397339Y-88165637D01*
X74324992Y-88137107D01*
X74256563Y-88110122D01*
X74168110Y-88099500D01*
X74168106Y-88099500D01*
X74168102Y-88099500D01*
X73056898Y-88099500D01*
X73056893Y-88099500D01*
X73056890Y-88099500D01*
X72968432Y-88110123D01*
X72894752Y-88139178D01*
X72876923Y-88144338D01*
X72858932Y-88147758D01*
X72840444Y-88149500D01*
X72051133Y-88149500D01*
X72020539Y-88144654D01*
X71997313Y-88137107D01*
X71957904Y-88112957D01*
X71876866Y-88031920D01*
X71876865Y-88031919D01*
X71735398Y-87948256D01*
X71577569Y-87902402D01*
X71577568Y-87902401D01*
X71577565Y-87902401D01*
X71568380Y-87901678D01*
X71568373Y-87901677D01*
X71554140Y-87900558D01*
X71554139Y-87900557D01*
X71542653Y-87899654D01*
X71540694Y-87899500D01*
X71540692Y-87899500D01*
X70459307Y-87899500D01*
X70459306Y-87899500D01*
X70458454Y-87899566D01*
X70446772Y-87900485D01*
X70446773Y-87900486D01*
X70422441Y-87902400D01*
X70422437Y-87902400D01*
X70422434Y-87902401D01*
X70422427Y-87902403D01*
X70393073Y-87910931D01*
X70264603Y-87948255D01*
X70152614Y-88014484D01*
X70152609Y-88014487D01*
X70123136Y-88031918D01*
X70123135Y-88031918D01*
X70123135Y-88031919D01*
X70090404Y-88064649D01*
X70090396Y-88064656D01*
X70045636Y-88109416D01*
X70020580Y-88127620D01*
X69998820Y-88138708D01*
X69953873Y-88149500D01*
X69560927Y-88149500D01*
X69498092Y-88161999D01*
X69498091Y-88161998D01*
X69436994Y-88174153D01*
X69435468Y-88174428D01*
X69435256Y-88174499D01*
X69435255Y-88174499D01*
X69435252Y-88174500D01*
X69435247Y-88174501D01*
X69435244Y-88174503D01*
X69435239Y-88174505D01*
X69316875Y-88223532D01*
X69210337Y-88294717D01*
X68244717Y-89260337D01*
X68173532Y-89366875D01*
X68124499Y-89485253D01*
X68124488Y-89485311D01*
X68107938Y-89568514D01*
X68100711Y-89604845D01*
X68099500Y-89610931D01*
X68099500Y-91489069D01*
X68123394Y-91609191D01*
X68123395Y-91609197D01*
X68124491Y-91614706D01*
X68124492Y-91614706D01*
X68124500Y-91614747D01*
X68173532Y-91733123D01*
X68239362Y-91831646D01*
X68244722Y-91839668D01*
X68384418Y-91979365D01*
X68402623Y-92004422D01*
X68413709Y-92026179D01*
X68424500Y-92071125D01*
X68424500Y-92919792D01*
X68419654Y-92950386D01*
X68416133Y-92961222D01*
X68380169Y-93010722D01*
X68321979Y-93029628D01*
X68312511Y-93029628D01*
X68277914Y-93023386D01*
X68232381Y-93006403D01*
X68232373Y-93006401D01*
X68232371Y-93006401D01*
X68212521Y-93004267D01*
X68172824Y-93000000D01*
X68172822Y-93000000D01*
X67800002Y-93000000D01*
X67800001Y-93000000D01*
X67800000Y-93000001D01*
X67800000Y-94499999D01*
X67800001Y-94500000D01*
X68172821Y-94500000D01*
X68172824Y-94500000D01*
X68232370Y-94493598D01*
X68232377Y-94493596D01*
X68276213Y-94477246D01*
X68306563Y-94471096D01*
X68317951Y-94470608D01*
X68376897Y-94487005D01*
X68414947Y-94534918D01*
X68418257Y-94543792D01*
X68424500Y-94578391D01*
X68424500Y-94662079D01*
X68419653Y-94692676D01*
X68415961Y-94704037D01*
X68379995Y-94753535D01*
X68323367Y-94772428D01*
X68312765Y-94772595D01*
X68283586Y-94768676D01*
X68232806Y-94753923D01*
X68228096Y-94752269D01*
X68223688Y-94752096D01*
X68204140Y-94750558D01*
X68204139Y-94750557D01*
X68192653Y-94749654D01*
X68190694Y-94749500D01*
X68190692Y-94749500D01*
X67109307Y-94749500D01*
X67109306Y-94749500D01*
X67108454Y-94749566D01*
X67096772Y-94750485D01*
X67096773Y-94750486D01*
X67072441Y-94752400D01*
X67072437Y-94752400D01*
X67072434Y-94752401D01*
X67072427Y-94752403D01*
X67043073Y-94760931D01*
X66914603Y-94798255D01*
X66773131Y-94881921D01*
X66731087Y-94923964D01*
X66706029Y-94942169D01*
X66694147Y-94948223D01*
X66633719Y-94957795D01*
X66628686Y-94956998D01*
X66574169Y-94929222D01*
X66526866Y-94881920D01*
X66526865Y-94881919D01*
X66385398Y-94798256D01*
X66227569Y-94752402D01*
X66227568Y-94752401D01*
X66227565Y-94752401D01*
X66218380Y-94751678D01*
X66218373Y-94751677D01*
X66204140Y-94750558D01*
X66204139Y-94750557D01*
X66192653Y-94749654D01*
X66190694Y-94749500D01*
X66190692Y-94749500D01*
X65109307Y-94749500D01*
X65109306Y-94749500D01*
X65108454Y-94749566D01*
X65096772Y-94750485D01*
X65096773Y-94750486D01*
X65072441Y-94752400D01*
X65072437Y-94752400D01*
X65072434Y-94752401D01*
X65072427Y-94752403D01*
X65043073Y-94760931D01*
X64914603Y-94798255D01*
X64802614Y-94864484D01*
X64802609Y-94864487D01*
X64773136Y-94881918D01*
X64773135Y-94881918D01*
X64773135Y-94881919D01*
X64740404Y-94914649D01*
X64740396Y-94914656D01*
X64695636Y-94959416D01*
X64670580Y-94977620D01*
X64648820Y-94988708D01*
X64603873Y-94999500D01*
X64510929Y-94999500D01*
X64458978Y-95009833D01*
X64458979Y-95009834D01*
X64386972Y-95024157D01*
X64385468Y-95024428D01*
X64385256Y-95024499D01*
X64385255Y-95024499D01*
X64385252Y-95024500D01*
X64385247Y-95024501D01*
X64385244Y-95024503D01*
X64385239Y-95024505D01*
X64266875Y-95073532D01*
X64160337Y-95144717D01*
X63344718Y-95960336D01*
X63344714Y-95960341D01*
X63289381Y-96043155D01*
X63289378Y-96043161D01*
X63284477Y-96050497D01*
X63284476Y-96050499D01*
X63273534Y-96066873D01*
X63224500Y-96185252D01*
X63224499Y-96185255D01*
X63224499Y-96185256D01*
X63222070Y-96197463D01*
X63222069Y-96197467D01*
X63219664Y-96209554D01*
X63219665Y-96209555D01*
X63199500Y-96310927D01*
X63199500Y-96573865D01*
X63194654Y-96604458D01*
X63187107Y-96627685D01*
X63162957Y-96667096D01*
X62670636Y-97159417D01*
X62645579Y-97177621D01*
X62623821Y-97188708D01*
X62578874Y-97199500D01*
X61614556Y-97199500D01*
X61596074Y-97197759D01*
X61578076Y-97194338D01*
X61560245Y-97189178D01*
X61495751Y-97163746D01*
X61486564Y-97160123D01*
X61486565Y-97160123D01*
X61398108Y-97149500D01*
X61398106Y-97149500D01*
X61398102Y-97149500D01*
X61044680Y-97149500D01*
X61014087Y-97144654D01*
X61001401Y-97140532D01*
X60951901Y-97104568D01*
X60951894Y-97104558D01*
X60948900Y-97100436D01*
X60930000Y-97042256D01*
X60930000Y-97014680D01*
X60934843Y-96984094D01*
X60935882Y-96980897D01*
X60938965Y-96971405D01*
X60974923Y-96921906D01*
X60975522Y-96921471D01*
X60979063Y-96918900D01*
X61037243Y-96900000D01*
X61754997Y-96900000D01*
X61754998Y-96900000D01*
X61754999Y-96899999D01*
X61754999Y-96868516D01*
X61754999Y-96867802D01*
X61754417Y-96864845D01*
X61748959Y-96830379D01*
X61740166Y-96774858D01*
X61740163Y-96774848D01*
X61740161Y-96774845D01*
X61740160Y-96774841D01*
X61682643Y-96661960D01*
X61682642Y-96661958D01*
X61682641Y-96661956D01*
X61593042Y-96572357D01*
X61571320Y-96561289D01*
X61545707Y-96548238D01*
X61520653Y-96530036D01*
X61517562Y-96526946D01*
X61511220Y-96520603D01*
X61483442Y-96466092D01*
X61483104Y-96463959D01*
X61488700Y-96412389D01*
X61490461Y-96407891D01*
X61500329Y-96388988D01*
X61569640Y-96285258D01*
X61626177Y-96148767D01*
X61626787Y-96145704D01*
X61639857Y-96080001D01*
X61639857Y-96080000D01*
X61303340Y-96080000D01*
X61245149Y-96061093D01*
X61227811Y-96037230D01*
X61224305Y-96034719D01*
X61222915Y-96030491D01*
X61209185Y-96011593D01*
X61204340Y-95981000D01*
X61204340Y-95971959D01*
X61205000Y-95969496D01*
X61205000Y-95890504D01*
X61204340Y-95888040D01*
X61204340Y-95879000D01*
X61211886Y-95855772D01*
X61216339Y-95831757D01*
X61221183Y-95827160D01*
X61223247Y-95820809D01*
X61243008Y-95806451D01*
X61260724Y-95789642D01*
X61268595Y-95787860D01*
X61272747Y-95784845D01*
X61281926Y-95784845D01*
X61303340Y-95780000D01*
X61639857Y-95780000D01*
X61626177Y-95711232D01*
X61569641Y-95574742D01*
X61487565Y-95451906D01*
X61383093Y-95347434D01*
X61383089Y-95347431D01*
X61260256Y-95265357D01*
X61123772Y-95208824D01*
X61123773Y-95208824D01*
X61123770Y-95208823D01*
X61123764Y-95208821D01*
X61051317Y-95194410D01*
X60978873Y-95180000D01*
X60978871Y-95180000D01*
X60505001Y-95180000D01*
X60505000Y-95180001D01*
X60505000Y-95180002D01*
X60505000Y-95531000D01*
X60486093Y-95589191D01*
X60436593Y-95625155D01*
X60406000Y-95630000D01*
X60304000Y-95630000D01*
X60245809Y-95611093D01*
X60209845Y-95561593D01*
X60205000Y-95531000D01*
X60205000Y-95180002D01*
X60205000Y-95180001D01*
X60204999Y-95180000D01*
X60204998Y-95180000D01*
X59731125Y-95180000D01*
X59622458Y-95201615D01*
X59586235Y-95208821D01*
X59586229Y-95208823D01*
X59586226Y-95208824D01*
X59449742Y-95265357D01*
X59326909Y-95347431D01*
X59222431Y-95451909D01*
X59140357Y-95574742D01*
X59096963Y-95679505D01*
X59078124Y-95705662D01*
X59075422Y-95712187D01*
X59071850Y-95714375D01*
X59070422Y-95716359D01*
X59064423Y-95721570D01*
X59062924Y-95719844D01*
X59023250Y-95744152D01*
X58962254Y-95739347D01*
X58915731Y-95699607D01*
X58915084Y-95698551D01*
X58900500Y-95646830D01*
X58900500Y-95084713D01*
X58905344Y-95054124D01*
X58905609Y-95053309D01*
X58912891Y-95030893D01*
X58937040Y-94991484D01*
X59337945Y-94590579D01*
X59362997Y-94572378D01*
X59384764Y-94561288D01*
X59429705Y-94550500D01*
X60628869Y-94550500D01*
X60659462Y-94555346D01*
X60677774Y-94561296D01*
X60720400Y-94588817D01*
X60722929Y-94591596D01*
X60734923Y-94607834D01*
X60751825Y-94636414D01*
X60751828Y-94636417D01*
X60751830Y-94636420D01*
X60863580Y-94748170D01*
X60863582Y-94748171D01*
X60864374Y-94748741D01*
X60866565Y-94749935D01*
X60905276Y-94772829D01*
X60999610Y-94828618D01*
X61151373Y-94872709D01*
X61186837Y-94875500D01*
X61763162Y-94875499D01*
X61798627Y-94872709D01*
X61950390Y-94828618D01*
X62086420Y-94748170D01*
X62198170Y-94636420D01*
X62246063Y-94555435D01*
X62265800Y-94531577D01*
X62274350Y-94524039D01*
X62330500Y-94499741D01*
X62390209Y-94513084D01*
X62397208Y-94517224D01*
X62426068Y-94543109D01*
X62460660Y-94589318D01*
X62460663Y-94589321D01*
X62460666Y-94589325D01*
X62460672Y-94589331D01*
X62460675Y-94589333D01*
X62460676Y-94589334D01*
X62570017Y-94671186D01*
X62661088Y-94705152D01*
X62697990Y-94718916D01*
X62697998Y-94718918D01*
X62754566Y-94724999D01*
X62874999Y-94724999D01*
X62875000Y-94724999D01*
X62875000Y-94150001D01*
X63175000Y-94150001D01*
X63175000Y-94724998D01*
X63175001Y-94724999D01*
X63295427Y-94724999D01*
X63295431Y-94724999D01*
X63295434Y-94724998D01*
X63297000Y-94724843D01*
X63297240Y-94724804D01*
X63352004Y-94718918D01*
X63352006Y-94718917D01*
X63479983Y-94671185D01*
X63589327Y-94589331D01*
X63589331Y-94589327D01*
X63671185Y-94479983D01*
X63672206Y-94477247D01*
X63693824Y-94419285D01*
X63718916Y-94352009D01*
X63718918Y-94352001D01*
X63725000Y-94295434D01*
X63725000Y-94150001D01*
X63724999Y-94150000D01*
X63724998Y-94150000D01*
X63175002Y-94150000D01*
X63175001Y-94150000D01*
X63175000Y-94150001D01*
X62875000Y-94150001D01*
X62875000Y-94019321D01*
X64671934Y-94019321D01*
X64681401Y-94107370D01*
X64681403Y-94107381D01*
X64724834Y-94223823D01*
X64731645Y-94242085D01*
X64731646Y-94242088D01*
X64731650Y-94242094D01*
X64817805Y-94357182D01*
X64817816Y-94357193D01*
X64848650Y-94380275D01*
X64932909Y-94443352D01*
X64932911Y-94443353D01*
X65067618Y-94493596D01*
X65067629Y-94493598D01*
X65127176Y-94500000D01*
X65499998Y-94500000D01*
X65499999Y-94500000D01*
X65500000Y-94499999D01*
X65500000Y-93900001D01*
X65800000Y-93900001D01*
X65800000Y-94499999D01*
X65800001Y-94500000D01*
X66172820Y-94500000D01*
X66172824Y-94500000D01*
X66232370Y-94493598D01*
X66232381Y-94493596D01*
X66367088Y-94443353D01*
X66367090Y-94443352D01*
X66482184Y-94357192D01*
X66482192Y-94357184D01*
X66561351Y-94251442D01*
X66583557Y-94229861D01*
X66593285Y-94223003D01*
X66651736Y-94204928D01*
X66708511Y-94223822D01*
X66717155Y-94230102D01*
X66738213Y-94250861D01*
X66757539Y-94276677D01*
X66817805Y-94357182D01*
X66817816Y-94357193D01*
X66848650Y-94380275D01*
X66932909Y-94443352D01*
X66932911Y-94443353D01*
X67067618Y-94493596D01*
X67067629Y-94493598D01*
X67127176Y-94500000D01*
X67499998Y-94500000D01*
X67499999Y-94500000D01*
X67500000Y-94499999D01*
X67500000Y-93900001D01*
X67499999Y-93900000D01*
X67499998Y-93900000D01*
X65800002Y-93900000D01*
X65800001Y-93900000D01*
X65800000Y-93900001D01*
X65500000Y-93900001D01*
X65499999Y-93900000D01*
X65499998Y-93900000D01*
X64675002Y-93900000D01*
X64675001Y-93900000D01*
X64675000Y-93900001D01*
X64675000Y-93900002D01*
X64675000Y-94009888D01*
X64671934Y-94019321D01*
X62875000Y-94019321D01*
X62875000Y-93350323D01*
X63090129Y-93350323D01*
X63171804Y-93842284D01*
X63174999Y-93849997D01*
X63175000Y-93849998D01*
X63175000Y-93849999D01*
X63175001Y-93850000D01*
X63724997Y-93850000D01*
X63724998Y-93850000D01*
X63724999Y-93849999D01*
X63724999Y-93704569D01*
X63724999Y-93704567D01*
X63724983Y-93704382D01*
X63724969Y-93704298D01*
X63718918Y-93647995D01*
X63718917Y-93647993D01*
X63671186Y-93520018D01*
X63666062Y-93513174D01*
X63662829Y-93508855D01*
X63662829Y-93508854D01*
X63662824Y-93508848D01*
X63656695Y-93500661D01*
X63620399Y-93452175D01*
X64675000Y-93452175D01*
X64675000Y-93599999D01*
X64675001Y-93600000D01*
X65499998Y-93600000D01*
X65499999Y-93600000D01*
X65500000Y-93599999D01*
X65500000Y-93000001D01*
X65800000Y-93000001D01*
X65800000Y-93599999D01*
X65800001Y-93600000D01*
X67499998Y-93600000D01*
X67499999Y-93600000D01*
X67500000Y-93599999D01*
X67500000Y-93000001D01*
X67499999Y-93000000D01*
X67499998Y-93000000D01*
X67127177Y-93000000D01*
X67127176Y-93000000D01*
X67067629Y-93006401D01*
X67067627Y-93006401D01*
X67067620Y-93006402D01*
X67067618Y-93006403D01*
X67022085Y-93023386D01*
X66932913Y-93056645D01*
X66932910Y-93056646D01*
X66932904Y-93056650D01*
X66817816Y-93142805D01*
X66817811Y-93142810D01*
X66738650Y-93248555D01*
X66716439Y-93270140D01*
X66706715Y-93276995D01*
X66648260Y-93295070D01*
X66591480Y-93276171D01*
X66582845Y-93269897D01*
X66561786Y-93249136D01*
X66482192Y-93142816D01*
X66482191Y-93142815D01*
X66482189Y-93142812D01*
X66482184Y-93142807D01*
X66367090Y-93056647D01*
X66367088Y-93056646D01*
X66232381Y-93006403D01*
X66232373Y-93006401D01*
X66232371Y-93006401D01*
X66212521Y-93004267D01*
X66172824Y-93000000D01*
X66172822Y-93000000D01*
X65800002Y-93000000D01*
X65800001Y-93000000D01*
X65800000Y-93000001D01*
X65500000Y-93000001D01*
X65499999Y-93000000D01*
X65499998Y-93000000D01*
X65127177Y-93000000D01*
X65127176Y-93000000D01*
X65067629Y-93006401D01*
X65067627Y-93006401D01*
X65067620Y-93006402D01*
X65067618Y-93006403D01*
X65022085Y-93023386D01*
X64932913Y-93056645D01*
X64932910Y-93056646D01*
X64932904Y-93056650D01*
X64817816Y-93142805D01*
X64817805Y-93142816D01*
X64731650Y-93257904D01*
X64731646Y-93257910D01*
X64731645Y-93257913D01*
X64706524Y-93325264D01*
X64682195Y-93390496D01*
X64681404Y-93392616D01*
X64681403Y-93392619D01*
X64681401Y-93392627D01*
X64678029Y-93423999D01*
X64675000Y-93452175D01*
X63620399Y-93452175D01*
X63589331Y-93410672D01*
X63589327Y-93410668D01*
X63589322Y-93410664D01*
X63479981Y-93328812D01*
X63352010Y-93281083D01*
X63352007Y-93281082D01*
X63351995Y-93281080D01*
X63313992Y-93276995D01*
X63295434Y-93275000D01*
X63295432Y-93275000D01*
X63175002Y-93275000D01*
X63175001Y-93275000D01*
X63175000Y-93275001D01*
X63174999Y-93275002D01*
X63167464Y-93293195D01*
X63150002Y-93313638D01*
X63134191Y-93335402D01*
X63130348Y-93336650D01*
X63127727Y-93339720D01*
X63090129Y-93350323D01*
X62875000Y-93350323D01*
X62875000Y-93275001D01*
X62874999Y-93275000D01*
X62874998Y-93275000D01*
X62754835Y-93275000D01*
X62754569Y-93275000D01*
X62754562Y-93275001D01*
X62697995Y-93281081D01*
X62697993Y-93281082D01*
X62683818Y-93286368D01*
X62683810Y-93286370D01*
X62570017Y-93328812D01*
X62460676Y-93410664D01*
X62460663Y-93410677D01*
X62427903Y-93454439D01*
X62405693Y-93476023D01*
X62396385Y-93482585D01*
X62337931Y-93500661D01*
X62280016Y-93480926D01*
X62280014Y-93480925D01*
X62273503Y-93476051D01*
X62247621Y-93447197D01*
X62199935Y-93366564D01*
X62198742Y-93364375D01*
X62198171Y-93363582D01*
X62198170Y-93363580D01*
X62086420Y-93251830D01*
X62086417Y-93251828D01*
X62086416Y-93251827D01*
X62086414Y-93251825D01*
X61966687Y-93181019D01*
X61966682Y-93181016D01*
X61950392Y-93171383D01*
X61950391Y-93171382D01*
X61950390Y-93171382D01*
X61931064Y-93165767D01*
X61931061Y-93165766D01*
X61869003Y-93147737D01*
X61845543Y-93140921D01*
X61798627Y-93127290D01*
X61798628Y-93127290D01*
X61775896Y-93125502D01*
X61775895Y-93125501D01*
X61764782Y-93124627D01*
X61763163Y-93124500D01*
X61763161Y-93124500D01*
X61186847Y-93124500D01*
X61186842Y-93124500D01*
X61175556Y-93125388D01*
X61151375Y-93127290D01*
X61151363Y-93127293D01*
X61040335Y-93159550D01*
X60999610Y-93171382D01*
X60999603Y-93171384D01*
X60999602Y-93171384D01*
X60863586Y-93251824D01*
X60751825Y-93363585D01*
X60737742Y-93387399D01*
X60717998Y-93411266D01*
X60703555Y-93423999D01*
X60658174Y-93446677D01*
X60654492Y-93447440D01*
X60634404Y-93449500D01*
X59077525Y-93449500D01*
X59011879Y-93467090D01*
X58943553Y-93485398D01*
X58943549Y-93485399D01*
X58937515Y-93487015D01*
X58937510Y-93487017D01*
X58811987Y-93559488D01*
X57909487Y-94461988D01*
X57837017Y-94587509D01*
X57827496Y-94623044D01*
X57811455Y-94682909D01*
X57805608Y-94704729D01*
X57799500Y-94727525D01*
X57799500Y-98647474D01*
X57812795Y-98697094D01*
X57812797Y-98697099D01*
X57829425Y-98759158D01*
X57835214Y-98780761D01*
X57836323Y-98784898D01*
X57836322Y-98784899D01*
X57836325Y-98784906D01*
X57837014Y-98787481D01*
X57837015Y-98787484D01*
X57837016Y-98787485D01*
X57909490Y-98913015D01*
X58436985Y-99440510D01*
X58456448Y-99451747D01*
X58548548Y-99504921D01*
X58558770Y-99510821D01*
X58558781Y-99510827D01*
X58558784Y-99510831D01*
X58558799Y-99510837D01*
X58562515Y-99512984D01*
X58702525Y-99550500D01*
X58702526Y-99550500D01*
X58847474Y-99550500D01*
X58959820Y-99550500D01*
X58990408Y-99555343D01*
X59003095Y-99559466D01*
X59052595Y-99595427D01*
X59052596Y-99595428D01*
X59055591Y-99599550D01*
X59074500Y-99657740D01*
X59074500Y-100397477D01*
X59074499Y-100397477D01*
X59079713Y-100416931D01*
X59090071Y-100455586D01*
X59090071Y-100455587D01*
X59090072Y-100455587D01*
X59090072Y-100455588D01*
X59112016Y-100537485D01*
X59184490Y-100663015D01*
X59461985Y-100940510D01*
X59461987Y-100940511D01*
X59462536Y-100940906D01*
X59464534Y-100941981D01*
X59572333Y-101004220D01*
X59572340Y-101004222D01*
X59572342Y-101004223D01*
X59572344Y-101004225D01*
X59587515Y-101012984D01*
X59727525Y-101050500D01*
X59842370Y-101050500D01*
X59872958Y-101055343D01*
X59885645Y-101059466D01*
X59935145Y-101095427D01*
X59935148Y-101095431D01*
X59939181Y-101100982D01*
X59957521Y-101148589D01*
X59960588Y-101177114D01*
X59960588Y-101177117D01*
X59970859Y-101204654D01*
X59977089Y-101240760D01*
X59977040Y-101243945D01*
X59976424Y-101251714D01*
X59976791Y-101260279D01*
X59976747Y-101263175D01*
X59974903Y-101268566D01*
X59970518Y-101296260D01*
X59960590Y-101322879D01*
X59960587Y-101322888D01*
X59958157Y-101345494D01*
X59950072Y-101375385D01*
X59944619Y-101387557D01*
X59903573Y-101432932D01*
X59903572Y-101432932D01*
X59897618Y-101436351D01*
X59848319Y-101449500D01*
X59077525Y-101449500D01*
X59053910Y-101455827D01*
X58973925Y-101477259D01*
X58973912Y-101477263D01*
X58945136Y-101484974D01*
X58945135Y-101484973D01*
X58937514Y-101487015D01*
X58937511Y-101487017D01*
X58926360Y-101493454D01*
X58926354Y-101493457D01*
X58811987Y-101559487D01*
X58811988Y-101559488D01*
X58009487Y-102361987D01*
X58001686Y-102375501D01*
X58001685Y-102375500D01*
X57955675Y-102455197D01*
X57955662Y-102455220D01*
X57954711Y-102456865D01*
X57954709Y-102456870D01*
X57937019Y-102487506D01*
X57937017Y-102487509D01*
X57917058Y-102561999D01*
X57899500Y-102627525D01*
X57899500Y-105747477D01*
X57909512Y-105784840D01*
X57909513Y-105784842D01*
X57930612Y-105863583D01*
X57933537Y-105874501D01*
X57933538Y-105874505D01*
X57937015Y-105887486D01*
X58003116Y-106001975D01*
X58009490Y-106013015D01*
X58936985Y-106940510D01*
X58955724Y-106951329D01*
X59044398Y-107002525D01*
X59044399Y-107002525D01*
X59044401Y-107002526D01*
X59062515Y-107012984D01*
X59202525Y-107050500D01*
X61128869Y-107050500D01*
X61159462Y-107055346D01*
X61177774Y-107061296D01*
X61220400Y-107088817D01*
X61222929Y-107091596D01*
X61234923Y-107107834D01*
X61251825Y-107136414D01*
X61251828Y-107136417D01*
X61251830Y-107136420D01*
X61363580Y-107248170D01*
X61499610Y-107328618D01*
X61651373Y-107372709D01*
X61686837Y-107375500D01*
X62263162Y-107375499D01*
X62298627Y-107372709D01*
X62450390Y-107328618D01*
X62586420Y-107248170D01*
X62698170Y-107136420D01*
X62746063Y-107055435D01*
X62765800Y-107031577D01*
X62774350Y-107024039D01*
X62830500Y-106999741D01*
X62890209Y-107013084D01*
X62897208Y-107017224D01*
X62926068Y-107043109D01*
X62960660Y-107089318D01*
X62960663Y-107089321D01*
X62960666Y-107089325D01*
X62960672Y-107089331D01*
X62960675Y-107089333D01*
X62960676Y-107089334D01*
X63070017Y-107171186D01*
X63161088Y-107205152D01*
X63197990Y-107218916D01*
X63197998Y-107218918D01*
X63254566Y-107224999D01*
X63374999Y-107224999D01*
X63375000Y-107224999D01*
X63375000Y-106650001D01*
X63675000Y-106650001D01*
X63675000Y-107224998D01*
X63675001Y-107224999D01*
X63795427Y-107224999D01*
X63795431Y-107224999D01*
X63795434Y-107224998D01*
X63797000Y-107224843D01*
X63797240Y-107224804D01*
X63852004Y-107218918D01*
X63852006Y-107218917D01*
X63979983Y-107171185D01*
X64089327Y-107089331D01*
X64089331Y-107089327D01*
X64171185Y-106979983D01*
X64218916Y-106852009D01*
X64218918Y-106852001D01*
X64225000Y-106795434D01*
X64225000Y-106650001D01*
X64224999Y-106650000D01*
X64224998Y-106650000D01*
X63675002Y-106650000D01*
X63675001Y-106650000D01*
X63675000Y-106650001D01*
X63375000Y-106650001D01*
X63375000Y-105775001D01*
X63675000Y-105775001D01*
X63675000Y-106349999D01*
X63675001Y-106350000D01*
X64224997Y-106350000D01*
X64224998Y-106350000D01*
X64224999Y-106349999D01*
X64224999Y-106204569D01*
X64224999Y-106204567D01*
X64224983Y-106204382D01*
X64224969Y-106204298D01*
X64218918Y-106147995D01*
X64218917Y-106147993D01*
X64190498Y-106071796D01*
X64171186Y-106020017D01*
X64089334Y-105910676D01*
X64089332Y-105910674D01*
X64089331Y-105910672D01*
X64089327Y-105910668D01*
X64084716Y-105907216D01*
X63979981Y-105828812D01*
X63852010Y-105781083D01*
X63852007Y-105781082D01*
X63851995Y-105781080D01*
X63816767Y-105777293D01*
X63795434Y-105775000D01*
X63795432Y-105775000D01*
X63675002Y-105775000D01*
X63675001Y-105775000D01*
X63675000Y-105775001D01*
X63375000Y-105775001D01*
X63374999Y-105775000D01*
X63374998Y-105775000D01*
X63254835Y-105775000D01*
X63254569Y-105775000D01*
X63254562Y-105775001D01*
X63197995Y-105781081D01*
X63197993Y-105781082D01*
X63183818Y-105786368D01*
X63183810Y-105786370D01*
X63070017Y-105828812D01*
X62960676Y-105910664D01*
X62960663Y-105910677D01*
X62927903Y-105954439D01*
X62905693Y-105976023D01*
X62896385Y-105982585D01*
X62837931Y-106000661D01*
X62780016Y-105980926D01*
X62780014Y-105980925D01*
X62773503Y-105976051D01*
X62747621Y-105947197D01*
X62699935Y-105866564D01*
X62698742Y-105864375D01*
X62698173Y-105863585D01*
X62698172Y-105863583D01*
X62698171Y-105863582D01*
X62698170Y-105863580D01*
X62586420Y-105751830D01*
X62586417Y-105751828D01*
X62586416Y-105751827D01*
X62586414Y-105751825D01*
X62466689Y-105681020D01*
X62466683Y-105681017D01*
X62450392Y-105671383D01*
X62450391Y-105671382D01*
X62450390Y-105671382D01*
X62431064Y-105665767D01*
X62431059Y-105665765D01*
X62374508Y-105649336D01*
X62298631Y-105627291D01*
X62298626Y-105627290D01*
X62298625Y-105627290D01*
X62287259Y-105626396D01*
X62275896Y-105625502D01*
X62275895Y-105625501D01*
X62264782Y-105624627D01*
X62263163Y-105624500D01*
X62263161Y-105624500D01*
X61686847Y-105624500D01*
X61686842Y-105624500D01*
X61675556Y-105625388D01*
X61651375Y-105627290D01*
X61651363Y-105627293D01*
X61589549Y-105645252D01*
X61499610Y-105671382D01*
X61499603Y-105671384D01*
X61499602Y-105671384D01*
X61363586Y-105751824D01*
X61251826Y-105863584D01*
X61237740Y-105887402D01*
X61218000Y-105911263D01*
X61203558Y-105923996D01*
X61158174Y-105946677D01*
X61154492Y-105947440D01*
X61134404Y-105949500D01*
X59559713Y-105949500D01*
X59529120Y-105944654D01*
X59505893Y-105937107D01*
X59466482Y-105912957D01*
X59040582Y-105487057D01*
X59022376Y-105461998D01*
X59011288Y-105440236D01*
X59000500Y-105395294D01*
X59000500Y-105057984D01*
X59005344Y-105027395D01*
X59007741Y-105020017D01*
X59007891Y-105019553D01*
X59043853Y-104970054D01*
X59102043Y-104951144D01*
X59160230Y-104970045D01*
X59160855Y-104970499D01*
X59165462Y-104973846D01*
X59189592Y-104998941D01*
X59190039Y-104999610D01*
X59219295Y-105043396D01*
X59222434Y-105048093D01*
X59326906Y-105152565D01*
X59449742Y-105234641D01*
X59586229Y-105291176D01*
X59586235Y-105291178D01*
X59728800Y-105319535D01*
X59730542Y-105319926D01*
X59731126Y-105319998D01*
X59731128Y-105319999D01*
X59731132Y-105320000D01*
X60204998Y-105320000D01*
X60204999Y-105320000D01*
X60205000Y-105319999D01*
X60205000Y-104969000D01*
X60223907Y-104910809D01*
X60273407Y-104874845D01*
X60304000Y-104870000D01*
X60406000Y-104870000D01*
X60464191Y-104888907D01*
X60500155Y-104938407D01*
X60505000Y-104969000D01*
X60505000Y-105319999D01*
X60505001Y-105320000D01*
X60505002Y-105320000D01*
X60978868Y-105320000D01*
X60978870Y-105320000D01*
X60982782Y-105319364D01*
X60984952Y-105318789D01*
X61123764Y-105291178D01*
X61123770Y-105291176D01*
X61260257Y-105234641D01*
X61383093Y-105152565D01*
X61487565Y-105048093D01*
X61569641Y-104925257D01*
X61626177Y-104788767D01*
X61626657Y-104786358D01*
X61639857Y-104720001D01*
X61639857Y-104720000D01*
X61303340Y-104720000D01*
X61245149Y-104701093D01*
X61227811Y-104677230D01*
X61224305Y-104674719D01*
X61222915Y-104670491D01*
X61209185Y-104651593D01*
X61204340Y-104621000D01*
X61204340Y-104611959D01*
X61205000Y-104609496D01*
X61205000Y-104530504D01*
X61204340Y-104528040D01*
X61204340Y-104519000D01*
X61211886Y-104495772D01*
X61216339Y-104471757D01*
X61221183Y-104467160D01*
X61223247Y-104460809D01*
X61243008Y-104446451D01*
X61260724Y-104429642D01*
X61268595Y-104427860D01*
X61272747Y-104424845D01*
X61281926Y-104424845D01*
X61303340Y-104420000D01*
X61639857Y-104420000D01*
X61626177Y-104351232D01*
X61569641Y-104214742D01*
X61569639Y-104214739D01*
X61569637Y-104214735D01*
X61528184Y-104152697D01*
X61524233Y-104146785D01*
X61507625Y-104087898D01*
X61528802Y-104030495D01*
X61579675Y-103996501D01*
X61614500Y-103993104D01*
X61700000Y-104000000D01*
X61719230Y-103782044D01*
X61729637Y-103745806D01*
X61740163Y-103725151D01*
X61740164Y-103725147D01*
X61750533Y-103659687D01*
X61755000Y-103631486D01*
X61755000Y-103600001D01*
X61748040Y-103583199D01*
X61740887Y-103536611D01*
X61744486Y-103495821D01*
X61753753Y-103390796D01*
X61777702Y-103334495D01*
X61830171Y-103303021D01*
X61852370Y-103300500D01*
X62539068Y-103300500D01*
X62539069Y-103300500D01*
X62664744Y-103275501D01*
X62783127Y-103226465D01*
X62889669Y-103155277D01*
X63630277Y-102414669D01*
X63701465Y-102308127D01*
X63704993Y-102299610D01*
X63704995Y-102299606D01*
X63735898Y-102224998D01*
X63750501Y-102189744D01*
X63775500Y-102064069D01*
X63775500Y-101914492D01*
X63777401Y-101895182D01*
X63777983Y-101892256D01*
X63781135Y-101876409D01*
X63786766Y-101857848D01*
X63790586Y-101848627D01*
X63798580Y-101829328D01*
X63825500Y-101693993D01*
X63825500Y-101556007D01*
X63816439Y-101510453D01*
X63813701Y-101496692D01*
X63812486Y-101465742D01*
X63813248Y-101459309D01*
X63814054Y-101452494D01*
X63839114Y-101397537D01*
X63839144Y-101397504D01*
X63887407Y-101368306D01*
X63895460Y-101366204D01*
X63920445Y-101363000D01*
X64593098Y-101363000D01*
X64623689Y-101367844D01*
X64649106Y-101376103D01*
X64651125Y-101376759D01*
X64680352Y-101392030D01*
X64707284Y-101412453D01*
X64707285Y-101412454D01*
X64747267Y-101442774D01*
X64749817Y-101444997D01*
X64749820Y-101444999D01*
X64752446Y-101446853D01*
X64755004Y-101447786D01*
X64771778Y-101454401D01*
X64893436Y-101502377D01*
X64981898Y-101513000D01*
X64981900Y-101513000D01*
X66093100Y-101513000D01*
X66093102Y-101513000D01*
X66181564Y-101502377D01*
X66322342Y-101446861D01*
X66442922Y-101355422D01*
X66534361Y-101234842D01*
X66534367Y-101234828D01*
X66573353Y-101135969D01*
X66576532Y-101127904D01*
X66577148Y-101126341D01*
X66592873Y-101099663D01*
X66599511Y-101091617D01*
X66651120Y-101058765D01*
X66712190Y-101062521D01*
X66755969Y-101096433D01*
X66759706Y-101101577D01*
X66771708Y-101123445D01*
X66815632Y-101234828D01*
X66815638Y-101234841D01*
X66818562Y-101238898D01*
X66819727Y-101240234D01*
X66902966Y-101350000D01*
X66907078Y-101355422D01*
X67027658Y-101446861D01*
X67027659Y-101446861D01*
X67027834Y-101446994D01*
X67029998Y-101447784D01*
X67046778Y-101454401D01*
X67168436Y-101502377D01*
X67256898Y-101513000D01*
X67256900Y-101513000D01*
X68368100Y-101513000D01*
X68368102Y-101513000D01*
X68456564Y-101502377D01*
X68597342Y-101446861D01*
X68717922Y-101355422D01*
X68809361Y-101234842D01*
X68864877Y-101094064D01*
X68875500Y-101005602D01*
X68875500Y-100911857D01*
X68880344Y-100881268D01*
X68887891Y-100858037D01*
X68912040Y-100818628D01*
X69052589Y-100678079D01*
X69077641Y-100659878D01*
X69099408Y-100648788D01*
X69144349Y-100638000D01*
X69264232Y-100638000D01*
X69265792Y-100638000D01*
X69265808Y-100638001D01*
X69354487Y-100638001D01*
X69385074Y-100642844D01*
X69395911Y-100646366D01*
X69408599Y-100655583D01*
X69412678Y-100656909D01*
X69415197Y-100660377D01*
X69445411Y-100682327D01*
X69464321Y-100740517D01*
X69464321Y-100745392D01*
X69451058Y-100794890D01*
X69432217Y-100827525D01*
X69432217Y-100827526D01*
X69430842Y-100829907D01*
X69423305Y-100842962D01*
X69423304Y-100842964D01*
X69412017Y-100862511D01*
X69412016Y-100862514D01*
X69385415Y-100961790D01*
X69374500Y-101002525D01*
X69374500Y-109022475D01*
X69378656Y-109037984D01*
X69412016Y-109162485D01*
X69484490Y-109288015D01*
X72896005Y-112699530D01*
X72923781Y-112754045D01*
X72925000Y-112769532D01*
X72925000Y-113400500D01*
X72906093Y-113458691D01*
X72856593Y-113494655D01*
X72826000Y-113499500D01*
X58003635Y-113499500D01*
X58001228Y-113499470D01*
X57998800Y-113499410D01*
X57996385Y-113499322D01*
X57664274Y-113483006D01*
X57659416Y-113482647D01*
X57654559Y-113482168D01*
X57649753Y-113481575D01*
X57324482Y-113433325D01*
X57319733Y-113432501D01*
X57314941Y-113431548D01*
X57310196Y-113430483D01*
X56991231Y-113350586D01*
X56986568Y-113349296D01*
X56981913Y-113347885D01*
X56977279Y-113346355D01*
X56667665Y-113235572D01*
X56663137Y-113233825D01*
X56658653Y-113231968D01*
X56654205Y-113229997D01*
X56356941Y-113089401D01*
X56352594Y-113087213D01*
X56348303Y-113084919D01*
X56344082Y-113082527D01*
X56062037Y-112913477D01*
X56057924Y-112910872D01*
X56053878Y-112908168D01*
X56049913Y-112905375D01*
X55785814Y-112709505D01*
X55781992Y-112706523D01*
X55778215Y-112703424D01*
X55774527Y-112700243D01*
X55639130Y-112577526D01*
X55530893Y-112479426D01*
X55527373Y-112476076D01*
X55523922Y-112472625D01*
X55520572Y-112469105D01*
X55520567Y-112469100D01*
X55356441Y-112288014D01*
X55299729Y-112225442D01*
X55296574Y-112221783D01*
X55293475Y-112218006D01*
X55290493Y-112214184D01*
X55094623Y-111950085D01*
X55091839Y-111946134D01*
X55089110Y-111942049D01*
X55086521Y-111937960D01*
X55037958Y-111856938D01*
X54917464Y-111655906D01*
X54915079Y-111651696D01*
X54912768Y-111647372D01*
X54910610Y-111643084D01*
X54907011Y-111635476D01*
X54770001Y-111345793D01*
X54768034Y-111341355D01*
X54766859Y-111338519D01*
X54766168Y-111336851D01*
X54764426Y-111332333D01*
X54761231Y-111323402D01*
X54653638Y-111022701D01*
X54652122Y-111018113D01*
X54650701Y-111013430D01*
X54649423Y-111008809D01*
X54569504Y-110689758D01*
X54568449Y-110685057D01*
X54567492Y-110680246D01*
X54566677Y-110675547D01*
X54518415Y-110350190D01*
X54517828Y-110345436D01*
X54517349Y-110340569D01*
X54516995Y-110335783D01*
X54508526Y-110163381D01*
X62149500Y-110163381D01*
X62149500Y-110336617D01*
X62176595Y-110507696D01*
X62176596Y-110507701D01*
X62185592Y-110535386D01*
X62228340Y-110666952D01*
X62230125Y-110672443D01*
X62231997Y-110676307D01*
X62232745Y-110677585D01*
X62232902Y-110677893D01*
X62232908Y-110677903D01*
X62282091Y-110774434D01*
X62308761Y-110826777D01*
X62308765Y-110826784D01*
X62308768Y-110826788D01*
X62410586Y-110966928D01*
X62533072Y-111089414D01*
X62673212Y-111191232D01*
X62822407Y-111267250D01*
X62828254Y-111270229D01*
X62831227Y-111271067D01*
X62992293Y-111323401D01*
X62992297Y-111323402D01*
X62992303Y-111323403D01*
X63163383Y-111350500D01*
X63336614Y-111350500D01*
X63336617Y-111350500D01*
X63475843Y-111328447D01*
X63507702Y-111323402D01*
X63507706Y-111323401D01*
X63672438Y-111269876D01*
X63672438Y-111269875D01*
X63673182Y-111269634D01*
X63675899Y-111268113D01*
X63716632Y-111247359D01*
X63826788Y-111191232D01*
X63966928Y-111089414D01*
X64089414Y-110966928D01*
X64191232Y-110826788D01*
X64269873Y-110672445D01*
X64269874Y-110672440D01*
X64269876Y-110672438D01*
X64271100Y-110668669D01*
X64271369Y-110668057D01*
X64271655Y-110666960D01*
X64323401Y-110507706D01*
X64323402Y-110507702D01*
X64328837Y-110473385D01*
X64350500Y-110336617D01*
X64350500Y-110163381D01*
X64323403Y-109992303D01*
X64323402Y-109992297D01*
X64323401Y-109992293D01*
X64269876Y-109827561D01*
X64269874Y-109827558D01*
X64269873Y-109827557D01*
X64269873Y-109827555D01*
X64268090Y-109824055D01*
X64267842Y-109823420D01*
X64267250Y-109822408D01*
X64191232Y-109673212D01*
X64089414Y-109533072D01*
X63966928Y-109410586D01*
X63966924Y-109410583D01*
X63966922Y-109410581D01*
X63835247Y-109314913D01*
X63835236Y-109314906D01*
X63826788Y-109308768D01*
X63826787Y-109308767D01*
X63826785Y-109308766D01*
X63677591Y-109232749D01*
X63676311Y-109232000D01*
X63672440Y-109230124D01*
X63672438Y-109230123D01*
X63596005Y-109205288D01*
X63507701Y-109176596D01*
X63507696Y-109176595D01*
X63336617Y-109149500D01*
X63336614Y-109149500D01*
X63336611Y-109149500D01*
X63163389Y-109149500D01*
X63163386Y-109149500D01*
X63163383Y-109149500D01*
X62992302Y-109176595D01*
X62992297Y-109176596D01*
X62827561Y-109230123D01*
X62823685Y-109232000D01*
X62822407Y-109232749D01*
X62673209Y-109308768D01*
X62533078Y-109410580D01*
X62410580Y-109533078D01*
X62308768Y-109673209D01*
X62232749Y-109822407D01*
X62232000Y-109823685D01*
X62230123Y-109827561D01*
X62176596Y-109992297D01*
X62176595Y-109992302D01*
X62149500Y-110163381D01*
X54508526Y-110163381D01*
X54500675Y-110003568D01*
X54500589Y-110001197D01*
X54500528Y-109998733D01*
X54500500Y-109996363D01*
X54500500Y-104420000D01*
X55040142Y-104420000D01*
X55040143Y-104420000D01*
X55376660Y-104420000D01*
X55434851Y-104438907D01*
X55452188Y-104462769D01*
X55455695Y-104465281D01*
X55457084Y-104469508D01*
X55470815Y-104488407D01*
X55475660Y-104519000D01*
X55475660Y-104528040D01*
X55475000Y-104530504D01*
X55475000Y-104609496D01*
X55475660Y-104611959D01*
X55475660Y-104621000D01*
X55468113Y-104644227D01*
X55463661Y-104668243D01*
X55458816Y-104672839D01*
X55456753Y-104679191D01*
X55436991Y-104693548D01*
X55419276Y-104710358D01*
X55411404Y-104712139D01*
X55407253Y-104715155D01*
X55398074Y-104715155D01*
X55376660Y-104720000D01*
X55040143Y-104720000D01*
X55053822Y-104788768D01*
X55110356Y-104925254D01*
X55189295Y-105043396D01*
X55192434Y-105048093D01*
X55296906Y-105152565D01*
X55419742Y-105234641D01*
X55556229Y-105291176D01*
X55556235Y-105291178D01*
X55698800Y-105319535D01*
X55700542Y-105319926D01*
X55701126Y-105319998D01*
X55701128Y-105319999D01*
X55701132Y-105320000D01*
X56024998Y-105320000D01*
X56024999Y-105320000D01*
X56025000Y-105319999D01*
X56025000Y-104969000D01*
X56043907Y-104910809D01*
X56093407Y-104874845D01*
X56124000Y-104870000D01*
X56226000Y-104870000D01*
X56284191Y-104888907D01*
X56320155Y-104938407D01*
X56325000Y-104969000D01*
X56325000Y-105319999D01*
X56325001Y-105320000D01*
X56325002Y-105320000D01*
X56648868Y-105320000D01*
X56648870Y-105320000D01*
X56652782Y-105319364D01*
X56654952Y-105318789D01*
X56793764Y-105291178D01*
X56793770Y-105291176D01*
X56930257Y-105234641D01*
X57053093Y-105152565D01*
X57157565Y-105048093D01*
X57239641Y-104925257D01*
X57296177Y-104788767D01*
X57296657Y-104786358D01*
X57309857Y-104720001D01*
X57309857Y-104720000D01*
X56973340Y-104720000D01*
X56915149Y-104701093D01*
X56897811Y-104677230D01*
X56894305Y-104674719D01*
X56892915Y-104670491D01*
X56879185Y-104651593D01*
X56874340Y-104621000D01*
X56874340Y-104611959D01*
X56875000Y-104609496D01*
X56875000Y-104530504D01*
X56874340Y-104528040D01*
X56874340Y-104519000D01*
X56881886Y-104495772D01*
X56886339Y-104471757D01*
X56891183Y-104467160D01*
X56893247Y-104460809D01*
X56913008Y-104446451D01*
X56930724Y-104429642D01*
X56938595Y-104427860D01*
X56942747Y-104424845D01*
X56951926Y-104424845D01*
X56973340Y-104420000D01*
X57309857Y-104420000D01*
X57296177Y-104351232D01*
X57239641Y-104214742D01*
X57157565Y-104091906D01*
X57053093Y-103987434D01*
X57053089Y-103987431D01*
X56930256Y-103905357D01*
X56824690Y-103861630D01*
X56793770Y-103848823D01*
X56793764Y-103848821D01*
X56721317Y-103834410D01*
X56648873Y-103820000D01*
X56648871Y-103820000D01*
X56325001Y-103820000D01*
X56325000Y-103820001D01*
X56325000Y-103820002D01*
X56325000Y-104171000D01*
X56306093Y-104229191D01*
X56256593Y-104265155D01*
X56226000Y-104270000D01*
X56124000Y-104270000D01*
X56065809Y-104251093D01*
X56029845Y-104201593D01*
X56025000Y-104171000D01*
X56025000Y-103820002D01*
X56025000Y-103820001D01*
X56024999Y-103820000D01*
X56024998Y-103820000D01*
X55701125Y-103820000D01*
X55599948Y-103840126D01*
X55556235Y-103848821D01*
X55556229Y-103848823D01*
X55556226Y-103848824D01*
X55419742Y-103905357D01*
X55296909Y-103987431D01*
X55192431Y-104091909D01*
X55110356Y-104214744D01*
X55053822Y-104351230D01*
X55053822Y-104351232D01*
X55040142Y-104420000D01*
X54500500Y-104420000D01*
X54500500Y-95780000D01*
X55040142Y-95780000D01*
X55040143Y-95780000D01*
X55376660Y-95780000D01*
X55434851Y-95798907D01*
X55452188Y-95822769D01*
X55455695Y-95825281D01*
X55457084Y-95829508D01*
X55470815Y-95848407D01*
X55475660Y-95879000D01*
X55475660Y-95888040D01*
X55475000Y-95890504D01*
X55475000Y-95969496D01*
X55475660Y-95971959D01*
X55475660Y-95981000D01*
X55468113Y-96004227D01*
X55463661Y-96028243D01*
X55458816Y-96032839D01*
X55456753Y-96039191D01*
X55436991Y-96053548D01*
X55419276Y-96070358D01*
X55411404Y-96072139D01*
X55407253Y-96075155D01*
X55398074Y-96075155D01*
X55376660Y-96080000D01*
X55040143Y-96080000D01*
X55053822Y-96148768D01*
X55110356Y-96285254D01*
X55192299Y-96407892D01*
X55192434Y-96408093D01*
X55296906Y-96512565D01*
X55419742Y-96594641D01*
X55556229Y-96651176D01*
X55556235Y-96651178D01*
X55698800Y-96679535D01*
X55700542Y-96679926D01*
X55701126Y-96679998D01*
X55701128Y-96679999D01*
X55701132Y-96680000D01*
X56024998Y-96680000D01*
X56024999Y-96680000D01*
X56025000Y-96679999D01*
X56025000Y-96329000D01*
X56043907Y-96270809D01*
X56093407Y-96234845D01*
X56124000Y-96230000D01*
X56226000Y-96230000D01*
X56284191Y-96248907D01*
X56320155Y-96298407D01*
X56325000Y-96329000D01*
X56325000Y-96679999D01*
X56325001Y-96680000D01*
X56325002Y-96680000D01*
X56648868Y-96680000D01*
X56648870Y-96680000D01*
X56652782Y-96679364D01*
X56654952Y-96678789D01*
X56793764Y-96651178D01*
X56793770Y-96651176D01*
X56930257Y-96594641D01*
X57053093Y-96512565D01*
X57157565Y-96408093D01*
X57239641Y-96285257D01*
X57296177Y-96148767D01*
X57296787Y-96145704D01*
X57309857Y-96080001D01*
X57309857Y-96080000D01*
X56973340Y-96080000D01*
X56915149Y-96061093D01*
X56897811Y-96037230D01*
X56894305Y-96034719D01*
X56892915Y-96030491D01*
X56879185Y-96011593D01*
X56874340Y-95981000D01*
X56874340Y-95971959D01*
X56875000Y-95969496D01*
X56875000Y-95890504D01*
X56874340Y-95888040D01*
X56874340Y-95879000D01*
X56881886Y-95855772D01*
X56886339Y-95831757D01*
X56891183Y-95827160D01*
X56893247Y-95820809D01*
X56913008Y-95806451D01*
X56930724Y-95789642D01*
X56938595Y-95787860D01*
X56942747Y-95784845D01*
X56951926Y-95784845D01*
X56973340Y-95780000D01*
X57309857Y-95780000D01*
X57296177Y-95711232D01*
X57239641Y-95574742D01*
X57157565Y-95451906D01*
X57053093Y-95347434D01*
X57053089Y-95347431D01*
X56930256Y-95265357D01*
X56793772Y-95208824D01*
X56793773Y-95208824D01*
X56793770Y-95208823D01*
X56793764Y-95208821D01*
X56721317Y-95194410D01*
X56648873Y-95180000D01*
X56648871Y-95180000D01*
X56325001Y-95180000D01*
X56325000Y-95180001D01*
X56325000Y-95180002D01*
X56325000Y-95531000D01*
X56306093Y-95589191D01*
X56256593Y-95625155D01*
X56226000Y-95630000D01*
X56124000Y-95630000D01*
X56065809Y-95611093D01*
X56029845Y-95561593D01*
X56025000Y-95531000D01*
X56025000Y-95180002D01*
X56025000Y-95180001D01*
X56024999Y-95180000D01*
X56024998Y-95180000D01*
X55701125Y-95180000D01*
X55592458Y-95201615D01*
X55556235Y-95208821D01*
X55556229Y-95208823D01*
X55556226Y-95208824D01*
X55419742Y-95265357D01*
X55296909Y-95347431D01*
X55192431Y-95451909D01*
X55110356Y-95574744D01*
X55053822Y-95711230D01*
X55053822Y-95711232D01*
X55040142Y-95780000D01*
X54500500Y-95780000D01*
X54500500Y-90003635D01*
X54500529Y-90001236D01*
X54500530Y-90001191D01*
X54500590Y-89998759D01*
X54500674Y-89996442D01*
X54502417Y-89960979D01*
X54504755Y-89913381D01*
X62649500Y-89913381D01*
X62649500Y-90086617D01*
X62676595Y-90257696D01*
X62676596Y-90257701D01*
X62694533Y-90312903D01*
X62728340Y-90416952D01*
X62730123Y-90422437D01*
X62732001Y-90426314D01*
X62732751Y-90427595D01*
X62773156Y-90506898D01*
X62773157Y-90506898D01*
X62808765Y-90576784D01*
X62808768Y-90576788D01*
X62910586Y-90716928D01*
X63033072Y-90839414D01*
X63173212Y-90941232D01*
X63322407Y-91017250D01*
X63328254Y-91020229D01*
X63331227Y-91021067D01*
X63492293Y-91073401D01*
X63492297Y-91073402D01*
X63492303Y-91073403D01*
X63663383Y-91100500D01*
X63836614Y-91100500D01*
X63836617Y-91100500D01*
X63992890Y-91075748D01*
X64007702Y-91073402D01*
X64007706Y-91073401D01*
X64172438Y-91019876D01*
X64172438Y-91019875D01*
X64173182Y-91019634D01*
X64175899Y-91018113D01*
X64212218Y-90999608D01*
X64326788Y-90941232D01*
X64466928Y-90839414D01*
X64589414Y-90716928D01*
X64691232Y-90576788D01*
X64769873Y-90422445D01*
X64769874Y-90422440D01*
X64769876Y-90422438D01*
X64771100Y-90418669D01*
X64771369Y-90418057D01*
X64771655Y-90416960D01*
X64823401Y-90257706D01*
X64823402Y-90257702D01*
X64839339Y-90157081D01*
X64850500Y-90086617D01*
X64850500Y-89913381D01*
X64823403Y-89742303D01*
X64823402Y-89742297D01*
X64819769Y-89731116D01*
X64769876Y-89577561D01*
X64769874Y-89577558D01*
X64769873Y-89577557D01*
X64769873Y-89577555D01*
X64768090Y-89574055D01*
X64767842Y-89573420D01*
X64767250Y-89572408D01*
X64691232Y-89423212D01*
X64589414Y-89283072D01*
X64466928Y-89160586D01*
X64466924Y-89160583D01*
X64466922Y-89160581D01*
X64335247Y-89064913D01*
X64335236Y-89064906D01*
X64326788Y-89058768D01*
X64326787Y-89058767D01*
X64326785Y-89058766D01*
X64177591Y-88982749D01*
X64176311Y-88982000D01*
X64172440Y-88980124D01*
X64172438Y-88980123D01*
X64096005Y-88955288D01*
X64007701Y-88926596D01*
X64007696Y-88926595D01*
X63836617Y-88899500D01*
X63836614Y-88899500D01*
X63836611Y-88899500D01*
X63663389Y-88899500D01*
X63663386Y-88899500D01*
X63663383Y-88899500D01*
X63492302Y-88926595D01*
X63492297Y-88926596D01*
X63327561Y-88980123D01*
X63323685Y-88982000D01*
X63322407Y-88982749D01*
X63173209Y-89058768D01*
X63033078Y-89160580D01*
X62910580Y-89283078D01*
X62808768Y-89423209D01*
X62732749Y-89572407D01*
X62732000Y-89573685D01*
X62730123Y-89577561D01*
X62676596Y-89742297D01*
X62676595Y-89742302D01*
X62649500Y-89913381D01*
X54504755Y-89913381D01*
X54505185Y-89904637D01*
X54505185Y-89904636D01*
X54515287Y-89699000D01*
X54516994Y-89664237D01*
X54517350Y-89659416D01*
X54517827Y-89654578D01*
X54518416Y-89649804D01*
X54518424Y-89649749D01*
X54566681Y-89324423D01*
X54567498Y-89319720D01*
X54568450Y-89314932D01*
X54569499Y-89310261D01*
X54649427Y-88991172D01*
X54650701Y-88986568D01*
X54652127Y-88981865D01*
X54653619Y-88977351D01*
X54764438Y-88667631D01*
X54766179Y-88663121D01*
X54768024Y-88658666D01*
X54769984Y-88654240D01*
X54910618Y-88356895D01*
X54912770Y-88352621D01*
X54915090Y-88348280D01*
X54917440Y-88344134D01*
X55086541Y-88062005D01*
X55089115Y-88057939D01*
X55091835Y-88053868D01*
X55094595Y-88049951D01*
X55290525Y-87785771D01*
X55293480Y-87781984D01*
X55296575Y-87778212D01*
X55299747Y-87774536D01*
X55520602Y-87530860D01*
X55523922Y-87527373D01*
X55527382Y-87523912D01*
X55530860Y-87520602D01*
X55774547Y-87299737D01*
X55778213Y-87296575D01*
X55778214Y-87296574D01*
X55781991Y-87293475D01*
X55785771Y-87290525D01*
X56049951Y-87094595D01*
X56053868Y-87091835D01*
X56057939Y-87089115D01*
X56062005Y-87086541D01*
X56344134Y-86917440D01*
X56348280Y-86915090D01*
X56352621Y-86912770D01*
X56356895Y-86910618D01*
X56654240Y-86769984D01*
X56658651Y-86768030D01*
X56663134Y-86766174D01*
X56667631Y-86764438D01*
X56977351Y-86653619D01*
X56981865Y-86652127D01*
X56986574Y-86650698D01*
X56991172Y-86649427D01*
X57310261Y-86569499D01*
X57314932Y-86568450D01*
X57319720Y-86567498D01*
X57324423Y-86566681D01*
X57649826Y-86518413D01*
X57654571Y-86517827D01*
X57659433Y-86517348D01*
X57664243Y-86516994D01*
X57970606Y-86501944D01*
X57996437Y-86500675D01*
X57998763Y-86500589D01*
X58001263Y-86500528D01*
X58003637Y-86500500D01*
X102996363Y-86500500D01*
X102998740Y-86500528D01*
G37*
%TD.AperFunction*%
%TA.AperFunction,Conductor*%
G36*
X89845214Y-110379125D02*
G01*
X89845215Y-110379125D01*
X89851094Y-110380056D01*
X89851095Y-110380056D01*
X89852907Y-110380343D01*
X89852912Y-110380345D01*
X89852913Y-110380345D01*
X89860319Y-110382751D01*
X89859760Y-110384471D01*
X89905611Y-110407833D01*
X89923750Y-110432759D01*
X89926141Y-110437434D01*
X89937000Y-110482513D01*
X89937000Y-110504266D01*
X89937187Y-110506269D01*
X89937188Y-110506283D01*
X89938257Y-110517677D01*
X89938464Y-110519886D01*
X89938411Y-110538919D01*
X89938214Y-110540900D01*
X89938214Y-110540901D01*
X89936280Y-110560354D01*
X89911712Y-110616389D01*
X89911708Y-110616393D01*
X89903025Y-110626146D01*
X89878584Y-110646052D01*
X89869336Y-110651391D01*
X89841805Y-110667286D01*
X89841801Y-110667288D01*
X89832424Y-110672703D01*
X89832422Y-110672704D01*
X89832422Y-110672705D01*
X89820669Y-110684457D01*
X89820654Y-110684470D01*
X89770709Y-110734416D01*
X89745653Y-110752620D01*
X89723893Y-110763708D01*
X89678946Y-110774500D01*
X89633232Y-110774500D01*
X89612028Y-110776488D01*
X89575655Y-110773130D01*
X89566861Y-110770624D01*
X89516080Y-110736493D01*
X89495425Y-110684650D01*
X89494749Y-110677433D01*
X89499872Y-110635503D01*
X89535146Y-110534699D01*
X89537999Y-110504273D01*
X89538000Y-110504273D01*
X89538000Y-110487015D01*
X89538202Y-110483859D01*
X89539530Y-110480513D01*
X89542843Y-110459594D01*
X89543849Y-110456498D01*
X89546965Y-110446905D01*
X89560008Y-110428950D01*
X89560786Y-110426994D01*
X89561979Y-110426238D01*
X89582923Y-110397406D01*
X89583522Y-110396971D01*
X89587063Y-110394400D01*
X89645243Y-110375500D01*
X89822321Y-110375500D01*
X89845214Y-110379125D01*
G37*
%TD.AperFunction*%
%TA.AperFunction,Conductor*%
G36*
X92096319Y-108157645D02*
G01*
X92150830Y-108185421D01*
X92205010Y-108239600D01*
X92238580Y-108273170D01*
X92238582Y-108273171D01*
X92238583Y-108273172D01*
X92238586Y-108273173D01*
X92239378Y-108273745D01*
X92241575Y-108274942D01*
X92374601Y-108353614D01*
X92374609Y-108353618D01*
X92374612Y-108353619D01*
X92456673Y-108377459D01*
X92479443Y-108387311D01*
X92497026Y-108397709D01*
X92500300Y-108399645D01*
X92519911Y-108414856D01*
X93157417Y-109052362D01*
X93175622Y-109077420D01*
X93186709Y-109099179D01*
X93197500Y-109144125D01*
X93197500Y-110475865D01*
X93192654Y-110506458D01*
X93185107Y-110529685D01*
X93160957Y-110569096D01*
X93070636Y-110659417D01*
X93045579Y-110677621D01*
X93023821Y-110688708D01*
X92978874Y-110699500D01*
X92753278Y-110699500D01*
X92722686Y-110694655D01*
X92707750Y-110689802D01*
X92699457Y-110687107D01*
X92660050Y-110662959D01*
X92623919Y-110626829D01*
X92623917Y-110626828D01*
X92623916Y-110626827D01*
X92623123Y-110626255D01*
X92620919Y-110625055D01*
X92542939Y-110578937D01*
X92519073Y-110559192D01*
X92511539Y-110550646D01*
X92487240Y-110494493D01*
X92500588Y-110434783D01*
X92504730Y-110427778D01*
X92530608Y-110398930D01*
X92576827Y-110364331D01*
X92576831Y-110364327D01*
X92658685Y-110254983D01*
X92658687Y-110254979D01*
X92680485Y-110196534D01*
X92706416Y-110127009D01*
X92706418Y-110127001D01*
X92712500Y-110070434D01*
X92712500Y-109950001D01*
X92712499Y-109950000D01*
X92712498Y-109950000D01*
X91262503Y-109950000D01*
X91262502Y-109950000D01*
X91262501Y-109950001D01*
X91262501Y-109950002D01*
X91262501Y-110070436D01*
X91268581Y-110127005D01*
X91271073Y-110135500D01*
X91268331Y-110136304D01*
X91275333Y-110182787D01*
X91272668Y-110190043D01*
X91307221Y-110239566D01*
X91312919Y-110248767D01*
X91316311Y-110254979D01*
X91387613Y-110350228D01*
X91398168Y-110364327D01*
X91398170Y-110364329D01*
X91438349Y-110394407D01*
X91441935Y-110397091D01*
X91463521Y-110419303D01*
X91470085Y-110428614D01*
X91488161Y-110487068D01*
X91468428Y-110544980D01*
X91463556Y-110551489D01*
X91434694Y-110577379D01*
X91415940Y-110588470D01*
X91387143Y-110599871D01*
X91370596Y-110603570D01*
X91315832Y-110600234D01*
X91306068Y-110596762D01*
X91298813Y-110593554D01*
X91298801Y-110593584D01*
X91221456Y-110561547D01*
X91166827Y-110538919D01*
X91166822Y-110538918D01*
X91166784Y-110538910D01*
X91158057Y-110537174D01*
X91129003Y-110526454D01*
X91117365Y-110519936D01*
X91075834Y-110475005D01*
X91075831Y-110474998D01*
X91072090Y-110466881D01*
X91063000Y-110425443D01*
X91063000Y-110292802D01*
X91062358Y-110288890D01*
X91060579Y-110269921D01*
X91060444Y-110267058D01*
X91058747Y-110257068D01*
X91059833Y-110256883D01*
X91057133Y-110242026D01*
X91056507Y-110214213D01*
X91060241Y-110190892D01*
X91059978Y-110190835D01*
X91059574Y-110190798D01*
X91059578Y-110190748D01*
X91058859Y-110190591D01*
X91061430Y-110178818D01*
X91062150Y-110178975D01*
X91062151Y-110178970D01*
X91062249Y-110178693D01*
X91063000Y-110178958D01*
X91063000Y-109942805D01*
X91062359Y-109938902D01*
X91060146Y-109915301D01*
X91015293Y-109787118D01*
X90982215Y-109742299D01*
X90936045Y-109679740D01*
X90934857Y-109678046D01*
X90934764Y-109677942D01*
X90934651Y-109677851D01*
X90934650Y-109677850D01*
X90934645Y-109677846D01*
X90848259Y-109614090D01*
X90848256Y-109614088D01*
X90847306Y-109613386D01*
X90847275Y-109613364D01*
X90838177Y-109606649D01*
X90838069Y-109606570D01*
X90825383Y-109597207D01*
X90825380Y-109597206D01*
X90698992Y-109552981D01*
X90679395Y-109543598D01*
X90673551Y-109539962D01*
X90669965Y-109536970D01*
X90659867Y-109531450D01*
X90657505Y-109529980D01*
X90657155Y-109529565D01*
X91262500Y-109529565D01*
X91262500Y-109649999D01*
X91262501Y-109650000D01*
X91837498Y-109650000D01*
X91837499Y-109650000D01*
X91837500Y-109649999D01*
X91837500Y-109100001D01*
X92137500Y-109100001D01*
X92137500Y-109649999D01*
X92137501Y-109650000D01*
X92712497Y-109650000D01*
X92712498Y-109650000D01*
X92712499Y-109649999D01*
X92712499Y-109529569D01*
X92712499Y-109529566D01*
X92712483Y-109529382D01*
X92712469Y-109529298D01*
X92706418Y-109472995D01*
X92706417Y-109472993D01*
X92683141Y-109410586D01*
X92658686Y-109345017D01*
X92576834Y-109235676D01*
X92576833Y-109235675D01*
X92576831Y-109235672D01*
X92576827Y-109235668D01*
X92571927Y-109232000D01*
X92467481Y-109153812D01*
X92339510Y-109106083D01*
X92339507Y-109106082D01*
X92339495Y-109106080D01*
X92304267Y-109102293D01*
X92282934Y-109100000D01*
X92282932Y-109100000D01*
X92137502Y-109100000D01*
X92137501Y-109100000D01*
X92137500Y-109100001D01*
X91837500Y-109100001D01*
X91837499Y-109100000D01*
X91837498Y-109100000D01*
X91692067Y-109100000D01*
X91691870Y-109100016D01*
X91691762Y-109100033D01*
X91635495Y-109106081D01*
X91635493Y-109106082D01*
X91621350Y-109111356D01*
X91621343Y-109111358D01*
X91507517Y-109153812D01*
X91398176Y-109235664D01*
X91398164Y-109235676D01*
X91316312Y-109345017D01*
X91268583Y-109472988D01*
X91268582Y-109472991D01*
X91268580Y-109473003D01*
X91263646Y-109518898D01*
X91262500Y-109529565D01*
X90657155Y-109529565D01*
X90655692Y-109527828D01*
X90639797Y-109515923D01*
X90555079Y-109431206D01*
X90555078Y-109431205D01*
X90548672Y-109427506D01*
X90524605Y-109408016D01*
X90516369Y-109398869D01*
X90491485Y-109342975D01*
X90502941Y-109285390D01*
X90504197Y-109283078D01*
X90507743Y-109276546D01*
X90524738Y-109253784D01*
X91337945Y-108440578D01*
X91362997Y-108422377D01*
X91384764Y-108411287D01*
X91429705Y-108400499D01*
X91588157Y-108400499D01*
X91588162Y-108400499D01*
X91623627Y-108397709D01*
X91775390Y-108353618D01*
X91911420Y-108273170D01*
X91993911Y-108190678D01*
X92018966Y-108172474D01*
X92030853Y-108166417D01*
X92091281Y-108156847D01*
X92096319Y-108157645D01*
G37*
%TD.AperFunction*%
%TA.AperFunction,Conductor*%
G36*
X81595989Y-98368907D02*
G01*
X81631953Y-98418407D01*
X81632864Y-98421370D01*
X81673256Y-98560398D01*
X81756919Y-98701865D01*
X81873135Y-98818081D01*
X82014602Y-98901744D01*
X82172431Y-98947598D01*
X82209306Y-98950500D01*
X82673867Y-98950500D01*
X82704458Y-98955345D01*
X82716795Y-98959353D01*
X82727684Y-98962891D01*
X82767097Y-98987042D01*
X83107224Y-99327169D01*
X83107223Y-99327169D01*
X83160624Y-99380569D01*
X83197831Y-99417776D01*
X83233708Y-99441748D01*
X83304366Y-99488961D01*
X83304370Y-99488963D01*
X83304373Y-99488965D01*
X83304387Y-99488971D01*
X83304389Y-99488972D01*
X83348707Y-99507329D01*
X83422756Y-99538001D01*
X83548431Y-99563000D01*
X83703788Y-99563000D01*
X83734379Y-99567845D01*
X83744779Y-99571224D01*
X83794280Y-99607187D01*
X83813188Y-99665378D01*
X83798598Y-99717109D01*
X83795592Y-99722014D01*
X83781186Y-99740287D01*
X83711926Y-99809548D01*
X83634488Y-99886986D01*
X83634487Y-99886988D01*
X83578719Y-99983585D01*
X83578713Y-99983596D01*
X83562017Y-100012511D01*
X83524500Y-100152525D01*
X83524500Y-100530850D01*
X83519653Y-100561447D01*
X83515961Y-100572808D01*
X83479995Y-100622306D01*
X83423367Y-100641199D01*
X83412765Y-100641366D01*
X83383586Y-100637447D01*
X83348629Y-100627291D01*
X83346670Y-100627137D01*
X83344713Y-100626983D01*
X83344710Y-100626982D01*
X83323885Y-100625343D01*
X83313163Y-100624500D01*
X83313158Y-100624500D01*
X82736847Y-100624500D01*
X82736842Y-100624500D01*
X82725556Y-100625388D01*
X82701375Y-100627290D01*
X82701363Y-100627293D01*
X82549603Y-100671384D01*
X82549602Y-100671384D01*
X82413586Y-100751824D01*
X82301826Y-100863584D01*
X82253938Y-100944558D01*
X82234198Y-100968420D01*
X82225652Y-100975955D01*
X82169500Y-101000257D01*
X82109788Y-100986913D01*
X82109782Y-100986909D01*
X82102782Y-100982769D01*
X82073925Y-100956885D01*
X82052619Y-100928424D01*
X82039329Y-100910670D01*
X82039327Y-100910668D01*
X82022398Y-100897995D01*
X81929981Y-100828812D01*
X81802010Y-100781083D01*
X81802007Y-100781082D01*
X81801995Y-100781080D01*
X81766767Y-100777293D01*
X81745434Y-100775000D01*
X81745432Y-100775000D01*
X81625002Y-100775000D01*
X81625001Y-100775000D01*
X81625000Y-100775001D01*
X81625000Y-102224998D01*
X81625001Y-102224999D01*
X81745427Y-102224999D01*
X81745431Y-102224999D01*
X81745434Y-102224998D01*
X81747000Y-102224843D01*
X81747240Y-102224804D01*
X81802004Y-102218918D01*
X81802006Y-102218917D01*
X81929983Y-102171185D01*
X82039327Y-102089331D01*
X82039331Y-102089327D01*
X82072094Y-102045560D01*
X82094301Y-102023979D01*
X82102785Y-102017998D01*
X82103613Y-102017413D01*
X82162067Y-101999337D01*
X82219981Y-102019070D01*
X82224601Y-102022529D01*
X82226498Y-102023949D01*
X82252379Y-102052805D01*
X82301825Y-102136414D01*
X82301827Y-102136416D01*
X82301828Y-102136417D01*
X82301830Y-102136420D01*
X82413580Y-102248170D01*
X82413582Y-102248171D01*
X82414378Y-102248745D01*
X82416575Y-102249942D01*
X82481584Y-102288388D01*
X82481589Y-102288390D01*
X82481595Y-102288394D01*
X82549610Y-102328618D01*
X82701373Y-102372709D01*
X82736837Y-102375500D01*
X83109819Y-102375499D01*
X83140405Y-102380342D01*
X83143035Y-102381196D01*
X83153092Y-102384464D01*
X83202594Y-102420424D01*
X83202596Y-102420427D01*
X83205591Y-102424549D01*
X83224500Y-102482739D01*
X83224500Y-102884819D01*
X83219654Y-102915412D01*
X83215532Y-102928098D01*
X83179580Y-102977589D01*
X83175459Y-102980584D01*
X83117271Y-102999500D01*
X78277525Y-102999500D01*
X78256361Y-103005171D01*
X78229792Y-103012290D01*
X78229791Y-103012289D01*
X78137518Y-103037014D01*
X78137517Y-103037014D01*
X78011985Y-103109490D01*
X77384484Y-103736991D01*
X77318331Y-103851571D01*
X77318330Y-103851577D01*
X77312016Y-103862511D01*
X77287005Y-103955854D01*
X77277025Y-103993104D01*
X77274500Y-104002526D01*
X77274500Y-106647477D01*
X77274499Y-106647477D01*
X77279896Y-106667616D01*
X77287604Y-106696380D01*
X77287604Y-106696381D01*
X77287605Y-106696381D01*
X77287605Y-106696382D01*
X77312016Y-106787485D01*
X77384490Y-106913015D01*
X77936985Y-107465510D01*
X78062515Y-107537984D01*
X78202525Y-107575500D01*
X78202526Y-107575500D01*
X78347474Y-107575500D01*
X78393654Y-107575500D01*
X78424247Y-107580346D01*
X78442559Y-107586296D01*
X78485196Y-107613829D01*
X78487726Y-107616610D01*
X78499706Y-107632831D01*
X78501825Y-107636414D01*
X78501828Y-107636417D01*
X78501830Y-107636420D01*
X78613580Y-107748170D01*
X78613582Y-107748171D01*
X78614375Y-107748743D01*
X78616574Y-107749941D01*
X78664897Y-107778519D01*
X78749610Y-107828618D01*
X78901373Y-107872709D01*
X78936837Y-107875500D01*
X79563162Y-107875499D01*
X79598627Y-107872709D01*
X79750390Y-107828618D01*
X79886420Y-107748170D01*
X79998170Y-107636420D01*
X79998173Y-107636414D01*
X80001989Y-107631496D01*
X80002315Y-107631749D01*
X80017211Y-107613737D01*
X80030809Y-107601749D01*
X80086961Y-107577450D01*
X80126866Y-107581855D01*
X80137337Y-107585257D01*
X80184008Y-107617515D01*
X80189288Y-107624105D01*
X80193651Y-107629551D01*
X80201599Y-107641052D01*
X80281916Y-107776861D01*
X80281917Y-107776862D01*
X80281919Y-107776865D01*
X80398135Y-107893081D01*
X80539602Y-107976744D01*
X80697431Y-108022598D01*
X80734306Y-108025500D01*
X80734311Y-108025500D01*
X81665689Y-108025500D01*
X81665694Y-108025500D01*
X81702569Y-108022598D01*
X81860398Y-107976744D01*
X82001865Y-107893081D01*
X82118081Y-107776865D01*
X82201744Y-107635398D01*
X82228591Y-107542985D01*
X82241775Y-107514968D01*
X82246536Y-107507963D01*
X82294879Y-107470463D01*
X82356034Y-107468540D01*
X82406292Y-107502484D01*
X82411288Y-107508849D01*
X82426170Y-107535379D01*
X82456640Y-107617075D01*
X82456645Y-107617085D01*
X82456646Y-107617088D01*
X82456647Y-107617090D01*
X82456650Y-107617094D01*
X82542805Y-107732182D01*
X82542816Y-107732193D01*
X82599036Y-107774279D01*
X82657909Y-107818352D01*
X82657911Y-107818353D01*
X82792618Y-107868596D01*
X82792629Y-107868598D01*
X82852176Y-107875000D01*
X83149998Y-107875000D01*
X83149999Y-107875000D01*
X83150000Y-107874999D01*
X83150000Y-107225001D01*
X83450000Y-107225001D01*
X83450000Y-107874999D01*
X83450001Y-107875000D01*
X83747820Y-107875000D01*
X83747824Y-107875000D01*
X83807370Y-107868598D01*
X83807381Y-107868596D01*
X83942088Y-107818353D01*
X83942090Y-107818352D01*
X84057184Y-107732192D01*
X84057192Y-107732184D01*
X84143352Y-107617090D01*
X84143353Y-107617088D01*
X84193596Y-107482381D01*
X84193598Y-107482370D01*
X84200000Y-107422824D01*
X84200000Y-107225001D01*
X84199999Y-107225000D01*
X84199998Y-107225000D01*
X83450002Y-107225000D01*
X83450001Y-107225000D01*
X83450000Y-107225001D01*
X83150000Y-107225001D01*
X83150000Y-107189680D01*
X83152324Y-107175001D01*
X84525001Y-107175001D01*
X84525001Y-107175002D01*
X84525001Y-107295436D01*
X84531081Y-107352005D01*
X84531718Y-107354176D01*
X84532930Y-107356962D01*
X84578812Y-107479981D01*
X84614708Y-107527932D01*
X84660668Y-107589327D01*
X84660672Y-107589331D01*
X84660675Y-107589333D01*
X84660676Y-107589334D01*
X84770017Y-107671186D01*
X84823786Y-107691240D01*
X84897990Y-107718916D01*
X84897998Y-107718918D01*
X84954566Y-107724999D01*
X85099999Y-107724999D01*
X85100000Y-107724999D01*
X85100000Y-107175001D01*
X85099999Y-107175000D01*
X85099998Y-107175000D01*
X84525003Y-107175000D01*
X84525002Y-107175000D01*
X84525001Y-107175001D01*
X83152324Y-107175001D01*
X83154843Y-107159094D01*
X83158965Y-107146405D01*
X83168182Y-107133717D01*
X83168907Y-107131489D01*
X83170801Y-107130112D01*
X83194923Y-107096906D01*
X83195522Y-107096471D01*
X83199063Y-107093900D01*
X83257243Y-107075000D01*
X83299998Y-107075000D01*
X83299999Y-107075000D01*
X83300000Y-107074999D01*
X83300000Y-107039680D01*
X83304843Y-107009094D01*
X83306977Y-107002526D01*
X83308965Y-106996405D01*
X83344923Y-106946906D01*
X83345522Y-106946471D01*
X83349063Y-106943900D01*
X83407243Y-106925000D01*
X84199998Y-106925000D01*
X84199999Y-106925000D01*
X84200000Y-106924999D01*
X84200000Y-106727175D01*
X84193598Y-106667629D01*
X84193596Y-106667618D01*
X84143353Y-106532911D01*
X84143352Y-106532909D01*
X84089275Y-106460672D01*
X84057757Y-106418569D01*
X84048802Y-106404189D01*
X84041458Y-106389774D01*
X84031885Y-106329347D01*
X84057503Y-106277056D01*
X84064212Y-106269912D01*
X84085980Y-106252475D01*
X84092989Y-106248330D01*
X84101865Y-106243081D01*
X84218081Y-106126865D01*
X84233993Y-106099958D01*
X84233994Y-106099958D01*
X84259459Y-106056898D01*
X84270872Y-106037599D01*
X84290610Y-106013740D01*
X84303956Y-106001973D01*
X84360107Y-105977674D01*
X84400015Y-105982079D01*
X84412989Y-105986295D01*
X84455621Y-106013821D01*
X84458147Y-106016597D01*
X84470137Y-106032831D01*
X84501827Y-106086416D01*
X84501828Y-106086417D01*
X84501830Y-106086420D01*
X84613580Y-106198170D01*
X84613582Y-106198171D01*
X84614377Y-106198744D01*
X84616574Y-106199941D01*
X84694562Y-106246063D01*
X84718426Y-106265807D01*
X84721599Y-106269405D01*
X84725963Y-106274356D01*
X84750258Y-106330511D01*
X84736910Y-106390217D01*
X84732773Y-106397212D01*
X84706890Y-106426068D01*
X84660677Y-106460663D01*
X84660664Y-106460676D01*
X84578812Y-106570017D01*
X84531083Y-106697988D01*
X84531082Y-106697991D01*
X84531080Y-106698003D01*
X84526294Y-106742524D01*
X84525000Y-106754565D01*
X84525000Y-106874999D01*
X84525001Y-106875000D01*
X85135320Y-106875000D01*
X85165908Y-106879843D01*
X85178595Y-106883966D01*
X85228095Y-106919927D01*
X85228096Y-106919928D01*
X85231091Y-106924050D01*
X85250000Y-106982240D01*
X85250000Y-107024999D01*
X85250001Y-107025000D01*
X85285320Y-107025000D01*
X85315908Y-107029843D01*
X85328595Y-107033966D01*
X85378095Y-107069927D01*
X85378096Y-107069928D01*
X85381091Y-107074050D01*
X85400000Y-107132240D01*
X85400000Y-107724998D01*
X85400001Y-107724999D01*
X85545427Y-107724999D01*
X85545431Y-107724999D01*
X85545434Y-107724998D01*
X85547000Y-107724843D01*
X85547240Y-107724804D01*
X85602004Y-107718918D01*
X85602006Y-107718917D01*
X85676215Y-107691239D01*
X85706563Y-107685089D01*
X85717952Y-107684601D01*
X85776897Y-107700998D01*
X85814947Y-107748911D01*
X85818257Y-107757785D01*
X85824500Y-107792384D01*
X85824500Y-108793417D01*
X85819654Y-108824011D01*
X85816133Y-108834847D01*
X85780169Y-108884347D01*
X85721979Y-108903253D01*
X85713801Y-108903253D01*
X85675916Y-108895717D01*
X85666855Y-108891964D01*
X85629326Y-108876419D01*
X85613319Y-108873235D01*
X85493997Y-108849500D01*
X85493995Y-108849500D01*
X85493993Y-108849500D01*
X85356007Y-108849500D01*
X85356004Y-108849500D01*
X85356003Y-108849500D01*
X85236682Y-108873235D01*
X85236679Y-108873235D01*
X85220672Y-108876420D01*
X85220670Y-108876420D01*
X85189262Y-108889429D01*
X85186261Y-108890455D01*
X85184750Y-108890477D01*
X85173584Y-108893865D01*
X85154826Y-108897597D01*
X85135508Y-108899500D01*
X77467080Y-108899500D01*
X77408889Y-108880593D01*
X77372925Y-108831093D01*
X77372476Y-108829673D01*
X77366131Y-108809098D01*
X75675000Y-103325000D01*
X75523895Y-103303021D01*
X74535250Y-103159217D01*
X74480387Y-103132131D01*
X74451922Y-103077969D01*
X74450500Y-103061248D01*
X74450500Y-103051133D01*
X74455345Y-103020542D01*
X74461636Y-103001179D01*
X74462892Y-102997312D01*
X74487043Y-102957901D01*
X74568081Y-102876865D01*
X74651744Y-102735398D01*
X74697598Y-102577569D01*
X74700500Y-102540694D01*
X74700500Y-102494321D01*
X74946934Y-102494321D01*
X74956111Y-102579671D01*
X74956401Y-102582370D01*
X74956403Y-102582381D01*
X74978591Y-102641869D01*
X75006645Y-102717085D01*
X75006646Y-102717088D01*
X75006650Y-102717094D01*
X75092805Y-102832182D01*
X75092816Y-102832193D01*
X75128663Y-102859028D01*
X75207909Y-102918352D01*
X75207911Y-102918353D01*
X75342618Y-102968596D01*
X75342629Y-102968598D01*
X75402176Y-102975000D01*
X75549998Y-102975000D01*
X75549999Y-102975000D01*
X75550000Y-102974999D01*
X75550000Y-102150001D01*
X75850000Y-102150001D01*
X75850000Y-102974999D01*
X75850001Y-102975000D01*
X75997820Y-102975000D01*
X75997824Y-102975000D01*
X76057370Y-102968598D01*
X76057381Y-102968596D01*
X76192088Y-102918353D01*
X76192090Y-102918352D01*
X76307184Y-102832192D01*
X76307192Y-102832184D01*
X76393352Y-102717090D01*
X76393353Y-102717088D01*
X76443596Y-102582381D01*
X76443598Y-102582370D01*
X76450000Y-102522824D01*
X76450000Y-102150001D01*
X76449999Y-102150000D01*
X76449998Y-102150000D01*
X75850002Y-102150000D01*
X75850001Y-102150000D01*
X75850000Y-102150001D01*
X75550000Y-102150001D01*
X75549999Y-102150000D01*
X75549998Y-102150000D01*
X74950002Y-102150000D01*
X74950001Y-102150000D01*
X74950000Y-102150001D01*
X74950000Y-102150002D01*
X74950000Y-102484888D01*
X74946934Y-102494321D01*
X74700500Y-102494321D01*
X74700500Y-101526133D01*
X74705344Y-101495544D01*
X74706022Y-101493457D01*
X74712891Y-101472313D01*
X74737040Y-101432904D01*
X74771468Y-101398476D01*
X74796524Y-101380273D01*
X74804710Y-101376102D01*
X74865141Y-101366534D01*
X74919656Y-101394314D01*
X74947012Y-101446383D01*
X74948481Y-101454359D01*
X74949779Y-101474511D01*
X74950000Y-101474511D01*
X74950000Y-101477163D01*
X74950000Y-101849999D01*
X74950001Y-101850000D01*
X75549998Y-101850000D01*
X75549999Y-101850000D01*
X75550000Y-101849999D01*
X75550000Y-101025001D01*
X75850000Y-101025001D01*
X75850000Y-101849999D01*
X75850001Y-101850000D01*
X76449998Y-101850000D01*
X76449999Y-101850000D01*
X76450000Y-101849999D01*
X76450000Y-101650001D01*
X80775001Y-101650001D01*
X80775001Y-101650002D01*
X80775001Y-101795436D01*
X80781081Y-101852005D01*
X80781718Y-101854176D01*
X80782930Y-101856962D01*
X80828812Y-101979981D01*
X80910664Y-102089322D01*
X80910668Y-102089327D01*
X80910672Y-102089331D01*
X80910675Y-102089333D01*
X80910676Y-102089334D01*
X81020017Y-102171186D01*
X81078741Y-102193088D01*
X81147990Y-102218916D01*
X81147998Y-102218918D01*
X81204566Y-102224999D01*
X81324999Y-102224999D01*
X81325000Y-102224999D01*
X81325000Y-101650001D01*
X81324999Y-101650000D01*
X81324998Y-101650000D01*
X80775003Y-101650000D01*
X80775002Y-101650000D01*
X80775001Y-101650001D01*
X76450000Y-101650001D01*
X76450000Y-101477175D01*
X76443598Y-101417629D01*
X76443596Y-101417618D01*
X76420399Y-101355424D01*
X76393355Y-101282913D01*
X76385152Y-101271956D01*
X76377133Y-101261243D01*
X76376257Y-101260074D01*
X76375027Y-101258431D01*
X76375026Y-101258429D01*
X76375015Y-101258414D01*
X76375011Y-101258409D01*
X76334703Y-101204565D01*
X80775000Y-101204565D01*
X80775000Y-101349999D01*
X80775001Y-101350000D01*
X81324998Y-101350000D01*
X81324999Y-101350000D01*
X81325000Y-101349999D01*
X81325000Y-100775001D01*
X81324999Y-100775000D01*
X81324998Y-100775000D01*
X81204835Y-100775000D01*
X81204569Y-100775000D01*
X81204562Y-100775001D01*
X81147995Y-100781081D01*
X81147993Y-100781082D01*
X81133818Y-100786368D01*
X81133810Y-100786370D01*
X81020017Y-100828812D01*
X80910676Y-100910664D01*
X80910664Y-100910676D01*
X80828812Y-101020017D01*
X80781083Y-101147988D01*
X80781082Y-101147991D01*
X80781080Y-101148003D01*
X80777633Y-101180068D01*
X80775000Y-101204565D01*
X76334703Y-101204565D01*
X76316364Y-101180068D01*
X76307190Y-101167813D01*
X76307182Y-101167805D01*
X76192094Y-101081650D01*
X76192088Y-101081646D01*
X76192085Y-101081645D01*
X76174269Y-101075000D01*
X76057381Y-101031403D01*
X76057373Y-101031401D01*
X76057371Y-101031401D01*
X76037521Y-101029267D01*
X75997824Y-101025000D01*
X75997822Y-101025000D01*
X75850002Y-101025000D01*
X75850001Y-101025000D01*
X75850000Y-101025001D01*
X75550000Y-101025001D01*
X75549999Y-101025000D01*
X75549998Y-101025000D01*
X75399508Y-101025000D01*
X75399508Y-101024556D01*
X75378398Y-101022925D01*
X75368645Y-101020876D01*
X75315584Y-100990409D01*
X75290566Y-100934572D01*
X75301938Y-100876859D01*
X75305526Y-100870231D01*
X75322578Y-100847366D01*
X75632470Y-100537474D01*
X75657525Y-100519272D01*
X75669408Y-100513217D01*
X75729836Y-100503647D01*
X75731331Y-100503884D01*
X75779567Y-100525921D01*
X75784117Y-100529751D01*
X75799537Y-100546056D01*
X75799814Y-100546425D01*
X75799858Y-100546556D01*
X75799893Y-100546531D01*
X75838884Y-100598616D01*
X75838888Y-100598618D01*
X75839262Y-100598973D01*
X75841035Y-100600226D01*
X75906343Y-100649116D01*
X75951224Y-100682714D01*
X76071992Y-100727757D01*
X76082695Y-100731749D01*
X76082696Y-100731749D01*
X76082701Y-100731751D01*
X76082704Y-100731751D01*
X76083256Y-100731957D01*
X76084434Y-100732126D01*
X76087950Y-100732315D01*
X76140826Y-100738000D01*
X76140830Y-100738000D01*
X77559170Y-100738000D01*
X77559174Y-100738000D01*
X77617299Y-100731751D01*
X77662948Y-100714724D01*
X77747148Y-100683319D01*
X77750470Y-100682148D01*
X77754030Y-100680962D01*
X77761614Y-100673102D01*
X77861116Y-100598616D01*
X77945212Y-100486278D01*
X77946405Y-100483081D01*
X77994249Y-100354804D01*
X77994831Y-100353243D01*
X78000839Y-100337133D01*
X77997652Y-100326560D01*
X77998195Y-100318104D01*
X78000500Y-100296674D01*
X78000500Y-100028326D01*
X77994251Y-99970201D01*
X77992872Y-99966503D01*
X77990347Y-99959733D01*
X77984471Y-99933660D01*
X77982698Y-99913139D01*
X77988573Y-99870018D01*
X77994251Y-99854799D01*
X78000045Y-99800902D01*
X78010996Y-99765140D01*
X78011218Y-99764720D01*
X78013853Y-99759883D01*
X78014044Y-99759385D01*
X78015590Y-99756469D01*
X78035728Y-99736964D01*
X78051473Y-99719964D01*
X78050769Y-99718877D01*
X78053490Y-99717114D01*
X78053492Y-99717114D01*
X78054592Y-99716401D01*
X78054960Y-99716292D01*
X78056366Y-99715509D01*
X78056542Y-99715825D01*
X78057998Y-99715395D01*
X78059541Y-99713901D01*
X78066306Y-99712939D01*
X78108403Y-99700500D01*
X80122474Y-99700500D01*
X80122475Y-99700500D01*
X80262485Y-99662984D01*
X80274626Y-99655973D01*
X80274630Y-99655973D01*
X80274630Y-99655972D01*
X80285840Y-99649500D01*
X80388015Y-99590510D01*
X80915510Y-99063015D01*
X80987984Y-98937485D01*
X80995582Y-98909128D01*
X81025500Y-98797475D01*
X81025500Y-98449000D01*
X81044407Y-98390809D01*
X81093907Y-98354845D01*
X81124500Y-98350000D01*
X81537798Y-98350000D01*
X81595989Y-98368907D01*
G37*
%TD.AperFunction*%
%TA.AperFunction,Conductor*%
G36*
X82209191Y-104119407D02*
G01*
X82245155Y-104168907D01*
X82250000Y-104199500D01*
X82250000Y-104699999D01*
X82264405Y-104714130D01*
X82278338Y-104718362D01*
X82315249Y-104767160D01*
X82316429Y-104828334D01*
X82315161Y-104832218D01*
X82311917Y-104841500D01*
X82298256Y-104864601D01*
X82270672Y-104959541D01*
X82269798Y-104962045D01*
X82267807Y-104964662D01*
X82258221Y-104985032D01*
X82253462Y-104992034D01*
X82237660Y-105004292D01*
X82232755Y-105010742D01*
X82227188Y-105012416D01*
X82205119Y-105029536D01*
X82143964Y-105031459D01*
X82093706Y-104997515D01*
X82088708Y-104991146D01*
X82073829Y-104964624D01*
X82043353Y-104882911D01*
X82043352Y-104882909D01*
X81972871Y-104788759D01*
X81957193Y-104767816D01*
X81957182Y-104767805D01*
X81842094Y-104681650D01*
X81842088Y-104681646D01*
X81842085Y-104681645D01*
X81707381Y-104631403D01*
X81707373Y-104631401D01*
X81707371Y-104631401D01*
X81687521Y-104629267D01*
X81647824Y-104625000D01*
X81647822Y-104625000D01*
X81350002Y-104625000D01*
X81350001Y-104625000D01*
X81350000Y-104625001D01*
X81350000Y-104625002D01*
X81350000Y-105310319D01*
X81345154Y-105340912D01*
X81341032Y-105353598D01*
X81305080Y-105403089D01*
X81300959Y-105406084D01*
X81242771Y-105425000D01*
X81200001Y-105425000D01*
X81200000Y-105425001D01*
X81200000Y-105425002D01*
X81200000Y-105460319D01*
X81195154Y-105490912D01*
X81191032Y-105503598D01*
X81155080Y-105553089D01*
X81150959Y-105556084D01*
X81092771Y-105575000D01*
X80300001Y-105575000D01*
X80300000Y-105575001D01*
X80300000Y-105575002D01*
X80300000Y-105734888D01*
X80296934Y-105744321D01*
X80306401Y-105832370D01*
X80306403Y-105832381D01*
X80356646Y-105967088D01*
X80356647Y-105967090D01*
X80356650Y-105967094D01*
X80442241Y-106081429D01*
X80451197Y-106095812D01*
X80458540Y-106110223D01*
X80468112Y-106170655D01*
X80442499Y-106222939D01*
X80435795Y-106230078D01*
X80414026Y-106247519D01*
X80398140Y-106256914D01*
X80281917Y-106373137D01*
X80266810Y-106398682D01*
X80266808Y-106398685D01*
X80258695Y-106412402D01*
X80238954Y-106436264D01*
X80224510Y-106448998D01*
X80179134Y-106471676D01*
X80175453Y-106472439D01*
X80155359Y-106474500D01*
X80106346Y-106474500D01*
X80075750Y-106469653D01*
X80057437Y-106463702D01*
X80014815Y-106436183D01*
X80012285Y-106433403D01*
X80000288Y-106417161D01*
X79998173Y-106413585D01*
X79998171Y-106413582D01*
X79998170Y-106413580D01*
X79886420Y-106301830D01*
X79886417Y-106301828D01*
X79886416Y-106301827D01*
X79886414Y-106301825D01*
X79805441Y-106253938D01*
X79781574Y-106234194D01*
X79777945Y-106230078D01*
X79774038Y-106225646D01*
X79749740Y-106169493D01*
X79763087Y-106109785D01*
X79767230Y-106102778D01*
X79793108Y-106073930D01*
X79839327Y-106039331D01*
X79839331Y-106039327D01*
X79921185Y-105929983D01*
X79924721Y-105920504D01*
X79937037Y-105887482D01*
X79968916Y-105802009D01*
X79968918Y-105802001D01*
X79975000Y-105745434D01*
X79975000Y-105625001D01*
X79974999Y-105625000D01*
X79974998Y-105625000D01*
X79364680Y-105625000D01*
X79334087Y-105620154D01*
X79321401Y-105616032D01*
X79271901Y-105580068D01*
X79271894Y-105580058D01*
X79268900Y-105575936D01*
X79250000Y-105517756D01*
X79250000Y-105475002D01*
X79250000Y-105475001D01*
X79249999Y-105475000D01*
X79249998Y-105475000D01*
X79214680Y-105475000D01*
X79184087Y-105470154D01*
X79171401Y-105466032D01*
X79121901Y-105430068D01*
X79121894Y-105430058D01*
X79118900Y-105425936D01*
X79100000Y-105367756D01*
X79100000Y-104850112D01*
X79315878Y-104850112D01*
X79396673Y-105316968D01*
X79399999Y-105324997D01*
X79400000Y-105324998D01*
X79400000Y-105324999D01*
X79400001Y-105325000D01*
X79974997Y-105325000D01*
X79974998Y-105325000D01*
X79974999Y-105324999D01*
X79974999Y-105204569D01*
X79974999Y-105204567D01*
X79974984Y-105204388D01*
X79974969Y-105204297D01*
X79968918Y-105147995D01*
X79968917Y-105147993D01*
X79954418Y-105109118D01*
X79954417Y-105109116D01*
X79942504Y-105077175D01*
X80300000Y-105077175D01*
X80300000Y-105274999D01*
X80300001Y-105275000D01*
X81049998Y-105275000D01*
X81049999Y-105275000D01*
X81050000Y-105274999D01*
X81050000Y-104625001D01*
X81049999Y-104625000D01*
X81049998Y-104625000D01*
X80752177Y-104625000D01*
X80752176Y-104625000D01*
X80692629Y-104631401D01*
X80692627Y-104631401D01*
X80692620Y-104631402D01*
X80692618Y-104631403D01*
X80634859Y-104652946D01*
X80557913Y-104681645D01*
X80557910Y-104681646D01*
X80557904Y-104681650D01*
X80442816Y-104767805D01*
X80442805Y-104767816D01*
X80356650Y-104882904D01*
X80356646Y-104882910D01*
X80356645Y-104882913D01*
X80342916Y-104919722D01*
X80310127Y-105007635D01*
X80306404Y-105017616D01*
X80306403Y-105017619D01*
X80306401Y-105017627D01*
X80303680Y-105042937D01*
X80300000Y-105077175D01*
X79942504Y-105077175D01*
X79921186Y-105020017D01*
X79839331Y-104910672D01*
X79839327Y-104910668D01*
X79802251Y-104882913D01*
X79729981Y-104828812D01*
X79602010Y-104781083D01*
X79602007Y-104781082D01*
X79601995Y-104781080D01*
X79566767Y-104777293D01*
X79545434Y-104775000D01*
X79545432Y-104775000D01*
X79400002Y-104775000D01*
X79400001Y-104775000D01*
X79400000Y-104775001D01*
X79399999Y-104775002D01*
X79392464Y-104793195D01*
X79375002Y-104813638D01*
X79359191Y-104835402D01*
X79355348Y-104836650D01*
X79352727Y-104839720D01*
X79315878Y-104850112D01*
X79100000Y-104850112D01*
X79100000Y-104775002D01*
X79100000Y-104775001D01*
X79099999Y-104775000D01*
X79099998Y-104775000D01*
X78954567Y-104775000D01*
X78954370Y-104775016D01*
X78954262Y-104775033D01*
X78897995Y-104781081D01*
X78897993Y-104781082D01*
X78883850Y-104786356D01*
X78883843Y-104786358D01*
X78770017Y-104828812D01*
X78660676Y-104910664D01*
X78660664Y-104910676D01*
X78578814Y-105020015D01*
X78572736Y-105036312D01*
X78552675Y-105068898D01*
X78552348Y-105069775D01*
X78551142Y-105070573D01*
X78547164Y-105074873D01*
X78546115Y-105073902D01*
X78501336Y-105103560D01*
X78440208Y-105100908D01*
X78392314Y-105062833D01*
X78391961Y-105062300D01*
X78375500Y-105007635D01*
X78375500Y-104359713D01*
X78380344Y-104329124D01*
X78380974Y-104327184D01*
X78387891Y-104305893D01*
X78412040Y-104266484D01*
X78537945Y-104140579D01*
X78562997Y-104122378D01*
X78584764Y-104111288D01*
X78629705Y-104100500D01*
X82151000Y-104100500D01*
X82209191Y-104119407D01*
G37*
%TD.AperFunction*%
%TA.AperFunction,Conductor*%
G36*
X98354457Y-100130345D02*
G01*
X98366794Y-100134353D01*
X98377683Y-100137891D01*
X98417095Y-100162042D01*
X98855593Y-100600539D01*
X98868972Y-100617173D01*
X98878139Y-100631495D01*
X98893585Y-100690692D01*
X98893428Y-100693355D01*
X98877451Y-100741720D01*
X98875301Y-100745007D01*
X98862460Y-100760812D01*
X98860145Y-100763126D01*
X98726730Y-100946755D01*
X98623690Y-101148986D01*
X98553552Y-101364850D01*
X98518050Y-101589008D01*
X98518050Y-101815991D01*
X98553551Y-102040146D01*
X98564068Y-102072513D01*
X98613614Y-102224999D01*
X98623692Y-102256017D01*
X98653276Y-102314078D01*
X98726393Y-102457579D01*
X98726410Y-102457612D01*
X98726409Y-102457612D01*
X98726730Y-102458241D01*
X98726732Y-102458244D01*
X98726734Y-102458247D01*
X98860142Y-102641868D01*
X99020632Y-102802358D01*
X99204253Y-102935766D01*
X99340468Y-103005171D01*
X99357368Y-103022071D01*
X99371325Y-103029175D01*
X99378459Y-103043162D01*
X99383733Y-103048436D01*
X99385342Y-103051745D01*
X99388642Y-103058864D01*
X99386883Y-103059678D01*
X99399126Y-103083680D01*
X99389582Y-103144116D01*
X99346336Y-103187400D01*
X99344751Y-103188208D01*
X99343804Y-103188690D01*
X99298823Y-103199500D01*
X99134713Y-103199500D01*
X99104120Y-103194654D01*
X99080893Y-103187107D01*
X99041482Y-103162957D01*
X98413276Y-102534751D01*
X98395071Y-102509693D01*
X98382992Y-102485986D01*
X98381828Y-102481855D01*
X98380172Y-102479960D01*
X98379644Y-102474102D01*
X98374595Y-102456182D01*
X98373620Y-102456361D01*
X98372709Y-102451374D01*
X98372030Y-102449036D01*
X98328618Y-102299610D01*
X98302834Y-102256012D01*
X98249940Y-102166572D01*
X98248584Y-102164083D01*
X98248323Y-102163734D01*
X98248171Y-102163582D01*
X98248170Y-102163580D01*
X98136420Y-102051830D01*
X98136417Y-102051828D01*
X98136416Y-102051827D01*
X98136414Y-102051825D01*
X98055441Y-102003938D01*
X98031574Y-101984194D01*
X98028399Y-101980593D01*
X98024038Y-101975646D01*
X97999740Y-101919493D01*
X98013087Y-101859785D01*
X98017230Y-101852778D01*
X98043108Y-101823930D01*
X98089327Y-101789331D01*
X98089331Y-101789327D01*
X98171185Y-101679983D01*
X98172256Y-101677113D01*
X98187601Y-101635969D01*
X98218916Y-101552009D01*
X98218918Y-101552001D01*
X98225000Y-101495434D01*
X98225000Y-101375001D01*
X98224999Y-101375000D01*
X98224998Y-101375000D01*
X97614680Y-101375000D01*
X97584087Y-101370154D01*
X97571401Y-101366032D01*
X97521901Y-101330068D01*
X97521894Y-101330058D01*
X97518900Y-101325936D01*
X97500000Y-101267756D01*
X97500000Y-101225002D01*
X97500000Y-101225001D01*
X97499999Y-101225000D01*
X97499998Y-101225000D01*
X97464680Y-101225000D01*
X97434087Y-101220154D01*
X97421401Y-101216032D01*
X97371901Y-101180068D01*
X97371894Y-101180058D01*
X97368900Y-101175936D01*
X97350000Y-101117756D01*
X97350000Y-100600112D01*
X97565878Y-100600112D01*
X97646673Y-101066968D01*
X97649999Y-101074997D01*
X97650000Y-101074998D01*
X97650000Y-101074999D01*
X97650001Y-101075000D01*
X98224997Y-101075000D01*
X98224998Y-101075000D01*
X98224999Y-101074999D01*
X98224999Y-100954569D01*
X98224999Y-100954567D01*
X98224983Y-100954382D01*
X98224969Y-100954298D01*
X98218918Y-100897995D01*
X98218917Y-100897993D01*
X98193114Y-100828812D01*
X98171186Y-100770017D01*
X98089334Y-100660676D01*
X98089333Y-100660675D01*
X98089331Y-100660672D01*
X98089327Y-100660668D01*
X98089140Y-100660528D01*
X97979981Y-100578812D01*
X97852010Y-100531083D01*
X97852007Y-100531082D01*
X97851995Y-100531080D01*
X97816767Y-100527293D01*
X97795434Y-100525000D01*
X97795432Y-100525000D01*
X97650002Y-100525000D01*
X97650001Y-100525000D01*
X97650000Y-100525001D01*
X97649999Y-100525002D01*
X97642464Y-100543195D01*
X97625002Y-100563638D01*
X97609191Y-100585402D01*
X97605348Y-100586650D01*
X97602727Y-100589720D01*
X97565878Y-100600112D01*
X97350000Y-100600112D01*
X97350000Y-100525002D01*
X97350000Y-100525001D01*
X97349999Y-100525000D01*
X97349998Y-100525000D01*
X97204567Y-100525000D01*
X97204370Y-100525016D01*
X97204262Y-100525033D01*
X97147995Y-100531081D01*
X97147993Y-100531082D01*
X97133850Y-100536356D01*
X97133843Y-100536358D01*
X97020017Y-100578812D01*
X96918246Y-100654997D01*
X96890847Y-100669452D01*
X96887334Y-100670649D01*
X96878224Y-100673754D01*
X96817046Y-100674625D01*
X96813447Y-100673512D01*
X96763440Y-100638256D01*
X96757483Y-100629327D01*
X96750152Y-100616931D01*
X96748170Y-100613580D01*
X96719992Y-100585402D01*
X96688764Y-100554173D01*
X96668990Y-100525894D01*
X96668401Y-100524626D01*
X96664226Y-100514936D01*
X96660483Y-100507589D01*
X96659722Y-100505952D01*
X96658908Y-100499257D01*
X96650500Y-100464228D01*
X96650500Y-100240180D01*
X96655343Y-100209594D01*
X96655615Y-100208758D01*
X96659465Y-100196905D01*
X96695423Y-100147406D01*
X96698263Y-100145344D01*
X96699563Y-100144400D01*
X96757743Y-100125500D01*
X98323866Y-100125500D01*
X98354457Y-100130345D01*
G37*
%TD.AperFunction*%
%TA.AperFunction,Conductor*%
G36*
X87808378Y-98467845D02*
G01*
X87820715Y-98471853D01*
X87831604Y-98475391D01*
X87871017Y-98499542D01*
X89695150Y-100323675D01*
X90539288Y-101167813D01*
X91378385Y-102006909D01*
X91396592Y-102031970D01*
X91401556Y-102041713D01*
X91411126Y-102102145D01*
X91383347Y-102156661D01*
X91336468Y-102182918D01*
X91330873Y-102184262D01*
X91307750Y-102187000D01*
X91129521Y-102187000D01*
X91129515Y-102187001D01*
X91072883Y-102193088D01*
X91041862Y-102204657D01*
X91034084Y-102206212D01*
X91030200Y-102205755D01*
X91018926Y-102208040D01*
X90992574Y-102209169D01*
X90953741Y-102203019D01*
X90927115Y-102193088D01*
X90927114Y-102193087D01*
X90927112Y-102193087D01*
X90927089Y-102193084D01*
X90896019Y-102189745D01*
X90887507Y-102188830D01*
X90870485Y-102187000D01*
X90870483Y-102187000D01*
X90630245Y-102187000D01*
X90629521Y-102187000D01*
X90629515Y-102187001D01*
X90572883Y-102193088D01*
X90541862Y-102204657D01*
X90534084Y-102206212D01*
X90530200Y-102205755D01*
X90518926Y-102208040D01*
X90492574Y-102209169D01*
X90453741Y-102203019D01*
X90427115Y-102193088D01*
X90427114Y-102193087D01*
X90427112Y-102193087D01*
X90427089Y-102193084D01*
X90396019Y-102189745D01*
X90387507Y-102188830D01*
X90370485Y-102187000D01*
X90370483Y-102187000D01*
X90130245Y-102187000D01*
X90129521Y-102187000D01*
X90129515Y-102187001D01*
X90072883Y-102193088D01*
X90041862Y-102204657D01*
X90034084Y-102206212D01*
X90030200Y-102205755D01*
X90018926Y-102208040D01*
X89992574Y-102209169D01*
X89953741Y-102203019D01*
X89927115Y-102193088D01*
X89927114Y-102193087D01*
X89927112Y-102193087D01*
X89927089Y-102193084D01*
X89896019Y-102189745D01*
X89887507Y-102188830D01*
X89870485Y-102187000D01*
X89870483Y-102187000D01*
X89630245Y-102187000D01*
X89629521Y-102187000D01*
X89629515Y-102187001D01*
X89572883Y-102193088D01*
X89541862Y-102204657D01*
X89534084Y-102206212D01*
X89530200Y-102205755D01*
X89518926Y-102208040D01*
X89492574Y-102209169D01*
X89453741Y-102203019D01*
X89427115Y-102193088D01*
X89427114Y-102193087D01*
X89427112Y-102193087D01*
X89427089Y-102193084D01*
X89396019Y-102189745D01*
X89387507Y-102188830D01*
X89370485Y-102187000D01*
X89370483Y-102187000D01*
X89130245Y-102187000D01*
X89129521Y-102187000D01*
X89129515Y-102187001D01*
X89072883Y-102193088D01*
X89041862Y-102204657D01*
X89034084Y-102206212D01*
X89030200Y-102205755D01*
X89018926Y-102208040D01*
X88992574Y-102209169D01*
X88953741Y-102203019D01*
X88927115Y-102193088D01*
X88927114Y-102193087D01*
X88927112Y-102193087D01*
X88927089Y-102193084D01*
X88896019Y-102189745D01*
X88887507Y-102188830D01*
X88870485Y-102187000D01*
X88870483Y-102187000D01*
X88630245Y-102187000D01*
X88629521Y-102187000D01*
X88629515Y-102187001D01*
X88572883Y-102193088D01*
X88541862Y-102204657D01*
X88534084Y-102206212D01*
X88530200Y-102205755D01*
X88518926Y-102208040D01*
X88492574Y-102209169D01*
X88453741Y-102203019D01*
X88427115Y-102193088D01*
X88427114Y-102193087D01*
X88427112Y-102193087D01*
X88427089Y-102193084D01*
X88396019Y-102189745D01*
X88387507Y-102188830D01*
X88370485Y-102187000D01*
X88370483Y-102187000D01*
X88130245Y-102187000D01*
X88129521Y-102187000D01*
X88129515Y-102187001D01*
X88072883Y-102193088D01*
X88041862Y-102204657D01*
X88034084Y-102206212D01*
X88030200Y-102205755D01*
X88018926Y-102208040D01*
X87992574Y-102209169D01*
X87953741Y-102203019D01*
X87927115Y-102193088D01*
X87927114Y-102193087D01*
X87927112Y-102193087D01*
X87927089Y-102193084D01*
X87896019Y-102189745D01*
X87887507Y-102188830D01*
X87870485Y-102187000D01*
X87870483Y-102187000D01*
X87630245Y-102187000D01*
X87629521Y-102187000D01*
X87629515Y-102187001D01*
X87572883Y-102193088D01*
X87541862Y-102204657D01*
X87534084Y-102206212D01*
X87530200Y-102205755D01*
X87518926Y-102208040D01*
X87492574Y-102209169D01*
X87453741Y-102203019D01*
X87427115Y-102193088D01*
X87427114Y-102193087D01*
X87427112Y-102193087D01*
X87427089Y-102193084D01*
X87396019Y-102189745D01*
X87387507Y-102188830D01*
X87370485Y-102187000D01*
X87370483Y-102187000D01*
X87130245Y-102187000D01*
X87129521Y-102187000D01*
X87129515Y-102187001D01*
X87072883Y-102193088D01*
X87041862Y-102204657D01*
X87034084Y-102206212D01*
X87030200Y-102205755D01*
X87018926Y-102208040D01*
X86992574Y-102209169D01*
X86953741Y-102203019D01*
X86927115Y-102193088D01*
X86927114Y-102193087D01*
X86927112Y-102193087D01*
X86927089Y-102193084D01*
X86896019Y-102189745D01*
X86887507Y-102188830D01*
X86870485Y-102187000D01*
X86870483Y-102187000D01*
X86629523Y-102187000D01*
X86629521Y-102187000D01*
X86629513Y-102187000D01*
X86629481Y-102187003D01*
X86594681Y-102190744D01*
X86563743Y-102189195D01*
X86550937Y-102186504D01*
X86497878Y-102156034D01*
X86473516Y-102105110D01*
X86472135Y-102096393D01*
X86471484Y-102070336D01*
X86475500Y-102032985D01*
X86475499Y-101792016D01*
X86469412Y-101735386D01*
X86460610Y-101711789D01*
X86454458Y-101681431D01*
X86453328Y-101655082D01*
X86459482Y-101616236D01*
X86463488Y-101605497D01*
X86463488Y-101605495D01*
X86469412Y-101589614D01*
X86475500Y-101532985D01*
X86475499Y-101292016D01*
X86469412Y-101235386D01*
X86460610Y-101211789D01*
X86454458Y-101181431D01*
X86454273Y-101177114D01*
X86453328Y-101155078D01*
X86459479Y-101116243D01*
X86469412Y-101089614D01*
X86475500Y-101032985D01*
X86475499Y-100792016D01*
X86469412Y-100735386D01*
X86460610Y-100711789D01*
X86454458Y-100681431D01*
X86454438Y-100680962D01*
X86453328Y-100655079D01*
X86459480Y-100616241D01*
X86461795Y-100610036D01*
X86469412Y-100589614D01*
X86475500Y-100532985D01*
X86475499Y-100292016D01*
X86469412Y-100235386D01*
X86460610Y-100211789D01*
X86454458Y-100181431D01*
X86453328Y-100155078D01*
X86459481Y-100116237D01*
X86460950Y-100112301D01*
X86463804Y-100104648D01*
X86469412Y-100089614D01*
X86475500Y-100032985D01*
X86475499Y-99792016D01*
X86469412Y-99735386D01*
X86421628Y-99607274D01*
X86421132Y-99606612D01*
X86392112Y-99567845D01*
X86339687Y-99497813D01*
X86339683Y-99497810D01*
X86334679Y-99492806D01*
X86335366Y-99492118D01*
X86322560Y-99478940D01*
X86315706Y-99469218D01*
X86297629Y-99410764D01*
X86316524Y-99353987D01*
X86322802Y-99345345D01*
X86335229Y-99332746D01*
X86334678Y-99332195D01*
X86339679Y-99327192D01*
X86339687Y-99327187D01*
X86421628Y-99217726D01*
X86469412Y-99089614D01*
X86475500Y-99032985D01*
X86475499Y-98792016D01*
X86469412Y-98735386D01*
X86464967Y-98723469D01*
X86460289Y-98710927D01*
X86454230Y-98682365D01*
X86452962Y-98661603D01*
X86452778Y-98658595D01*
X86458837Y-98617962D01*
X86469412Y-98589614D01*
X86472307Y-98562678D01*
X86485700Y-98522573D01*
X86485991Y-98522084D01*
X86488493Y-98517996D01*
X86488689Y-98517556D01*
X86490321Y-98514820D01*
X86511473Y-98496299D01*
X86528191Y-98480036D01*
X86527551Y-98478921D01*
X86532386Y-98476145D01*
X86533144Y-98475942D01*
X86533146Y-98475942D01*
X86535414Y-98475337D01*
X86536355Y-98474514D01*
X86539615Y-98474217D01*
X86581680Y-98463000D01*
X87777787Y-98463000D01*
X87808378Y-98467845D01*
G37*
%TD.AperFunction*%
%TA.AperFunction,Conductor*%
G36*
X92046257Y-96121979D02*
G01*
X92072886Y-96131912D01*
X92129515Y-96138000D01*
X92370484Y-96137999D01*
X92405320Y-96134254D01*
X92436251Y-96135802D01*
X92446710Y-96138000D01*
X92449061Y-96138494D01*
X92502120Y-96168965D01*
X92526481Y-96219884D01*
X92527861Y-96228593D01*
X92528514Y-96254666D01*
X92524500Y-96292009D01*
X92524500Y-96292013D01*
X92524500Y-96532978D01*
X92524501Y-96532984D01*
X92530588Y-96589618D01*
X92542158Y-96620640D01*
X92543712Y-96628415D01*
X92543255Y-96632299D01*
X92545539Y-96643569D01*
X92546669Y-96669922D01*
X92540519Y-96708756D01*
X92530589Y-96735381D01*
X92530588Y-96735386D01*
X92530587Y-96735390D01*
X92529929Y-96741514D01*
X92529082Y-96749394D01*
X92525684Y-96781007D01*
X92524500Y-96792018D01*
X92524500Y-97032978D01*
X92524501Y-97032984D01*
X92530588Y-97089618D01*
X92542158Y-97120640D01*
X92543712Y-97128415D01*
X92543255Y-97132299D01*
X92545539Y-97143569D01*
X92546008Y-97154496D01*
X92546657Y-97169655D01*
X92546669Y-97169922D01*
X92540519Y-97208756D01*
X92530589Y-97235381D01*
X92530588Y-97235386D01*
X92530587Y-97235389D01*
X92530586Y-97235393D01*
X92528911Y-97250983D01*
X92528911Y-97250984D01*
X92525586Y-97281915D01*
X92524500Y-97292017D01*
X92524500Y-97292018D01*
X92524500Y-97532978D01*
X92524501Y-97532984D01*
X92530588Y-97589618D01*
X92542158Y-97620640D01*
X92543712Y-97628415D01*
X92543255Y-97632299D01*
X92545539Y-97643569D01*
X92546669Y-97669922D01*
X92540519Y-97708756D01*
X92530589Y-97735381D01*
X92530588Y-97735386D01*
X92530587Y-97735389D01*
X92530586Y-97735393D01*
X92526512Y-97773301D01*
X92524500Y-97792018D01*
X92524500Y-98032978D01*
X92524501Y-98032984D01*
X92530588Y-98089618D01*
X92542158Y-98120640D01*
X92543712Y-98128415D01*
X92543255Y-98132299D01*
X92545539Y-98143569D01*
X92546669Y-98169922D01*
X92540519Y-98208756D01*
X92530589Y-98235381D01*
X92530588Y-98235386D01*
X92530587Y-98235389D01*
X92530586Y-98235393D01*
X92524500Y-98292014D01*
X92524500Y-98292018D01*
X92524500Y-98532978D01*
X92524501Y-98532984D01*
X92530588Y-98589618D01*
X92542158Y-98620640D01*
X92543712Y-98628415D01*
X92543255Y-98632299D01*
X92545539Y-98643569D01*
X92546669Y-98669922D01*
X92540519Y-98708755D01*
X92533003Y-98728910D01*
X92530588Y-98735384D01*
X92530084Y-98739481D01*
X92530021Y-98740659D01*
X92524970Y-98787648D01*
X92524500Y-98792018D01*
X92524500Y-99032978D01*
X92524501Y-99032984D01*
X92530588Y-99089618D01*
X92542158Y-99120640D01*
X92543712Y-99128415D01*
X92543255Y-99132299D01*
X92545539Y-99143569D01*
X92546669Y-99169922D01*
X92540519Y-99208756D01*
X92530589Y-99235381D01*
X92530588Y-99235384D01*
X92530588Y-99235385D01*
X92530586Y-99235394D01*
X92529570Y-99244847D01*
X92527846Y-99260888D01*
X92524585Y-99291230D01*
X92524500Y-99292018D01*
X92524500Y-99532978D01*
X92524501Y-99532984D01*
X92530588Y-99589618D01*
X92542158Y-99620640D01*
X92543712Y-99628415D01*
X92543255Y-99632299D01*
X92545539Y-99643569D01*
X92546669Y-99669922D01*
X92540519Y-99708756D01*
X92530589Y-99735381D01*
X92530588Y-99735386D01*
X92530587Y-99735389D01*
X92530586Y-99735393D01*
X92528321Y-99756469D01*
X92524500Y-99792018D01*
X92524500Y-100032978D01*
X92524501Y-100032984D01*
X92530588Y-100089618D01*
X92542158Y-100120640D01*
X92543712Y-100128415D01*
X92543255Y-100132299D01*
X92545539Y-100143569D01*
X92546669Y-100169922D01*
X92540519Y-100208756D01*
X92530589Y-100235381D01*
X92530588Y-100235386D01*
X92530587Y-100235389D01*
X92530586Y-100235393D01*
X92524658Y-100290545D01*
X92524500Y-100292018D01*
X92524500Y-100532978D01*
X92524501Y-100532984D01*
X92530588Y-100589618D01*
X92542158Y-100620640D01*
X92543712Y-100628415D01*
X92543255Y-100632299D01*
X92545539Y-100643569D01*
X92545659Y-100646365D01*
X92546543Y-100666996D01*
X92546669Y-100669922D01*
X92540519Y-100708755D01*
X92531365Y-100733301D01*
X92530588Y-100735384D01*
X92530084Y-100739480D01*
X92530021Y-100740661D01*
X92525676Y-100781079D01*
X92524558Y-100791480D01*
X92524500Y-100792018D01*
X92524500Y-101032978D01*
X92524501Y-101032984D01*
X92530588Y-101089618D01*
X92543264Y-101123604D01*
X92544806Y-101131122D01*
X92544574Y-101133182D01*
X92546220Y-101140094D01*
X92548185Y-101157805D01*
X92542548Y-101203316D01*
X92530588Y-101235383D01*
X92530588Y-101235384D01*
X92530588Y-101235386D01*
X92526165Y-101276533D01*
X92524500Y-101292018D01*
X92524500Y-101345830D01*
X92514635Y-101388911D01*
X92511678Y-101395029D01*
X92469332Y-101439194D01*
X92409114Y-101450033D01*
X92370816Y-101436359D01*
X92365488Y-101433094D01*
X92347211Y-101418687D01*
X89429024Y-98500500D01*
X88400515Y-97471990D01*
X88400472Y-97471965D01*
X88286320Y-97406059D01*
X88286315Y-97406057D01*
X88274985Y-97399516D01*
X88274984Y-97399515D01*
X88274981Y-97399514D01*
X88220811Y-97384999D01*
X88220811Y-97385000D01*
X88172346Y-97372013D01*
X88172307Y-97372002D01*
X88134975Y-97362000D01*
X88134974Y-97362000D01*
X86587630Y-97362000D01*
X86557037Y-97357154D01*
X86544351Y-97353032D01*
X86494851Y-97317068D01*
X86494848Y-97317064D01*
X86490814Y-97311511D01*
X86472477Y-97263904D01*
X86469412Y-97235386D01*
X86459137Y-97207839D01*
X86452907Y-97171733D01*
X86452955Y-97168575D01*
X86453573Y-97160785D01*
X86453205Y-97152204D01*
X86453249Y-97149330D01*
X86455093Y-97143934D01*
X86459478Y-97116246D01*
X86469412Y-97089614D01*
X86475500Y-97032985D01*
X86475499Y-96792016D01*
X86469412Y-96735386D01*
X86460610Y-96711789D01*
X86454458Y-96681431D01*
X86454397Y-96679998D01*
X86453328Y-96655078D01*
X86459479Y-96616243D01*
X86469412Y-96589614D01*
X86475500Y-96532985D01*
X86475499Y-96292016D01*
X86471754Y-96257176D01*
X86473304Y-96226239D01*
X86473395Y-96225810D01*
X86475995Y-96213435D01*
X86506466Y-96160377D01*
X86557380Y-96136017D01*
X86566099Y-96134636D01*
X86592162Y-96133984D01*
X86629515Y-96138000D01*
X86870484Y-96137999D01*
X86927114Y-96131912D01*
X86950708Y-96123111D01*
X86981066Y-96116958D01*
X87007420Y-96115828D01*
X87046257Y-96121979D01*
X87072886Y-96131912D01*
X87129515Y-96138000D01*
X87370484Y-96137999D01*
X87427114Y-96131912D01*
X87450708Y-96123111D01*
X87481066Y-96116958D01*
X87507420Y-96115828D01*
X87546257Y-96121979D01*
X87572886Y-96131912D01*
X87629515Y-96138000D01*
X87870484Y-96137999D01*
X87927114Y-96131912D01*
X87950708Y-96123111D01*
X87981066Y-96116958D01*
X88007420Y-96115828D01*
X88046257Y-96121979D01*
X88072886Y-96131912D01*
X88129515Y-96138000D01*
X88370484Y-96137999D01*
X88427114Y-96131912D01*
X88450708Y-96123111D01*
X88481066Y-96116958D01*
X88507420Y-96115828D01*
X88546257Y-96121979D01*
X88572886Y-96131912D01*
X88629515Y-96138000D01*
X88870484Y-96137999D01*
X88927114Y-96131912D01*
X88950708Y-96123111D01*
X88981066Y-96116958D01*
X89007420Y-96115828D01*
X89046257Y-96121979D01*
X89072886Y-96131912D01*
X89129515Y-96138000D01*
X89370484Y-96137999D01*
X89427114Y-96131912D01*
X89450708Y-96123111D01*
X89481066Y-96116958D01*
X89507420Y-96115828D01*
X89546257Y-96121979D01*
X89572886Y-96131912D01*
X89629515Y-96138000D01*
X89870484Y-96137999D01*
X89927114Y-96131912D01*
X89950708Y-96123111D01*
X89981066Y-96116958D01*
X90007420Y-96115828D01*
X90046257Y-96121979D01*
X90072886Y-96131912D01*
X90129515Y-96138000D01*
X90370484Y-96137999D01*
X90427114Y-96131912D01*
X90450708Y-96123111D01*
X90481066Y-96116958D01*
X90507420Y-96115828D01*
X90546257Y-96121979D01*
X90572886Y-96131912D01*
X90629515Y-96138000D01*
X90870484Y-96137999D01*
X90927114Y-96131912D01*
X90950708Y-96123111D01*
X90981066Y-96116958D01*
X91007420Y-96115828D01*
X91046257Y-96121979D01*
X91072886Y-96131912D01*
X91129515Y-96138000D01*
X91370484Y-96137999D01*
X91427114Y-96131912D01*
X91450708Y-96123111D01*
X91481066Y-96116958D01*
X91507420Y-96115828D01*
X91546257Y-96121979D01*
X91572886Y-96131912D01*
X91629515Y-96138000D01*
X91870484Y-96137999D01*
X91927114Y-96131912D01*
X91950708Y-96123111D01*
X91981066Y-96116958D01*
X92007420Y-96115828D01*
X92046257Y-96121979D01*
G37*
%TD.AperFunction*%
%TA.AperFunction,Conductor*%
G36*
X74519161Y-98818795D02*
G01*
X74545418Y-98865674D01*
X74546762Y-98871269D01*
X74549500Y-98894392D01*
X74549500Y-99723864D01*
X74544654Y-99754457D01*
X74537107Y-99777684D01*
X74512957Y-99817095D01*
X73980590Y-100349462D01*
X73955529Y-100367669D01*
X73945786Y-100372633D01*
X73885354Y-100382203D01*
X73830838Y-100354424D01*
X73804577Y-100307529D01*
X73803234Y-100301934D01*
X73800500Y-100278827D01*
X73800500Y-100028330D01*
X73799168Y-100015946D01*
X73798799Y-100012511D01*
X73794251Y-99970201D01*
X73787988Y-99953412D01*
X73786415Y-99944611D01*
X73786908Y-99941039D01*
X73784961Y-99931430D01*
X73784832Y-99928412D01*
X73783831Y-99905078D01*
X73789983Y-99866240D01*
X73794251Y-99854799D01*
X73800500Y-99796674D01*
X73800500Y-99528326D01*
X73794251Y-99470201D01*
X73793884Y-99469218D01*
X73776014Y-99421305D01*
X73760820Y-99380569D01*
X73745213Y-99338724D01*
X73745212Y-99338722D01*
X73745099Y-99338419D01*
X73740558Y-99322097D01*
X73737841Y-99307629D01*
X73745682Y-99246950D01*
X73787197Y-99202741D01*
X73791455Y-99200382D01*
X73839395Y-99188001D01*
X73856683Y-99188001D01*
X73962091Y-99159756D01*
X73990336Y-99152188D01*
X74110165Y-99083005D01*
X74208005Y-98985165D01*
X74208005Y-98985163D01*
X74221929Y-98971240D01*
X74223760Y-98969407D01*
X74224265Y-98968901D01*
X74224282Y-98968892D01*
X74224304Y-98968862D01*
X74369413Y-98823754D01*
X74394464Y-98805553D01*
X74404215Y-98800585D01*
X74464645Y-98791016D01*
X74519161Y-98818795D01*
G37*
%TD.AperFunction*%
%TA.AperFunction,Conductor*%
G36*
X64558886Y-99467843D02*
G01*
X64569728Y-99471366D01*
X64604329Y-99496505D01*
X64619223Y-99507326D01*
X64619223Y-99507327D01*
X64619226Y-99507329D01*
X64619234Y-99507359D01*
X64638133Y-99565516D01*
X64638133Y-99590307D01*
X64634520Y-99601425D01*
X64625143Y-99679186D01*
X64625000Y-99681009D01*
X64625000Y-99681015D01*
X64625000Y-99712499D01*
X64625001Y-99712500D01*
X65422820Y-99712500D01*
X65453408Y-99717343D01*
X65466095Y-99721466D01*
X65515595Y-99757427D01*
X65515596Y-99757428D01*
X65518591Y-99761550D01*
X65537500Y-99819740D01*
X65537500Y-99897819D01*
X65532654Y-99928412D01*
X65528532Y-99941098D01*
X65492580Y-99990589D01*
X65488459Y-99993584D01*
X65430271Y-100012500D01*
X64625002Y-100012500D01*
X64625001Y-100012501D01*
X64625001Y-100012502D01*
X64625001Y-100043990D01*
X64636916Y-100119227D01*
X64638135Y-100134728D01*
X64638131Y-100159497D01*
X64619214Y-100217685D01*
X64569722Y-100253636D01*
X64558891Y-100257155D01*
X64528300Y-100262000D01*
X63772212Y-100262000D01*
X63741619Y-100257154D01*
X63718392Y-100249607D01*
X63678981Y-100225457D01*
X63409613Y-99956089D01*
X63391410Y-99931034D01*
X63385352Y-99919145D01*
X63375781Y-99858717D01*
X63376579Y-99853680D01*
X63404354Y-99799168D01*
X63700443Y-99503081D01*
X63725501Y-99484877D01*
X63747264Y-99473789D01*
X63792206Y-99463000D01*
X64528298Y-99463000D01*
X64558886Y-99467843D01*
G37*
%TD.AperFunction*%
%TA.AperFunction,Conductor*%
G36*
X73002680Y-97130345D02*
G01*
X73015017Y-97134353D01*
X73025906Y-97137891D01*
X73065319Y-97162042D01*
X73310186Y-97406909D01*
X73328393Y-97431970D01*
X73333357Y-97441713D01*
X73342927Y-97502145D01*
X73315148Y-97556661D01*
X73268269Y-97582918D01*
X73262674Y-97584262D01*
X73239551Y-97587000D01*
X71940822Y-97587000D01*
X71912824Y-97590009D01*
X71912823Y-97590010D01*
X71902784Y-97591089D01*
X71882702Y-97593248D01*
X71882697Y-97593249D01*
X71882695Y-97593250D01*
X71882691Y-97593251D01*
X71882689Y-97593252D01*
X71751224Y-97642284D01*
X71638890Y-97726378D01*
X71638878Y-97726390D01*
X71554784Y-97838724D01*
X71505752Y-97970189D01*
X71505749Y-97970197D01*
X71505748Y-97970204D01*
X71505748Y-97970206D01*
X71499500Y-98028329D01*
X71499500Y-98296670D01*
X71499499Y-98296670D01*
X71505748Y-98354793D01*
X71505749Y-98354800D01*
X71513148Y-98374637D01*
X71514510Y-98386755D01*
X71514080Y-98388848D01*
X71515038Y-98393573D01*
X71516167Y-98419923D01*
X71510016Y-98458759D01*
X71505750Y-98470195D01*
X71505748Y-98470202D01*
X71505746Y-98470215D01*
X71499500Y-98528328D01*
X71499500Y-98758733D01*
X71496434Y-98768166D01*
X71500976Y-98810412D01*
X71505704Y-98854386D01*
X71505749Y-98854799D01*
X71505750Y-98854803D01*
X71546371Y-98963711D01*
X71552522Y-98994067D01*
X71553010Y-99005449D01*
X71536613Y-99064397D01*
X71488700Y-99102447D01*
X71479826Y-99105757D01*
X71445227Y-99112000D01*
X71265025Y-99112000D01*
X71220283Y-99123988D01*
X71177613Y-99135422D01*
X71177606Y-99135421D01*
X71125017Y-99149514D01*
X71125014Y-99149515D01*
X70999485Y-99221989D01*
X70755590Y-99465883D01*
X70730537Y-99484086D01*
X70720794Y-99489051D01*
X70660363Y-99498626D01*
X70605844Y-99470852D01*
X70579578Y-99423951D01*
X70578235Y-99418356D01*
X70575501Y-99395249D01*
X70575501Y-99328309D01*
X70575500Y-99328291D01*
X70575500Y-97602911D01*
X70580344Y-97572322D01*
X70581428Y-97568985D01*
X70587891Y-97549091D01*
X70612040Y-97509682D01*
X70956143Y-97165579D01*
X70981195Y-97147378D01*
X71002962Y-97136288D01*
X71047903Y-97125500D01*
X72972089Y-97125500D01*
X73002680Y-97130345D01*
G37*
%TD.AperFunction*%
%TA.AperFunction,Conductor*%
G36*
X74787187Y-89050020D02*
G01*
X74801632Y-89061208D01*
X74804738Y-89061893D01*
X74812328Y-89069494D01*
X74830969Y-89083933D01*
X74834706Y-89089077D01*
X74838150Y-89095352D01*
X74840054Y-89097259D01*
X74843911Y-89103850D01*
X74890637Y-89222339D01*
X74890638Y-89222341D01*
X74890639Y-89222342D01*
X74982078Y-89342922D01*
X75102658Y-89434361D01*
X75102659Y-89434361D01*
X75102834Y-89434494D01*
X75104997Y-89435283D01*
X75173047Y-89462119D01*
X75243436Y-89489877D01*
X75331898Y-89500500D01*
X75331900Y-89500500D01*
X76443100Y-89500500D01*
X76443102Y-89500500D01*
X76531564Y-89489877D01*
X76586982Y-89468022D01*
X76605256Y-89460816D01*
X76623066Y-89455662D01*
X76641080Y-89452239D01*
X76659556Y-89450500D01*
X76948867Y-89450500D01*
X76979458Y-89455344D01*
X77002684Y-89462891D01*
X77042095Y-89487042D01*
X77123132Y-89568078D01*
X77123135Y-89568081D01*
X77264602Y-89651744D01*
X77422431Y-89697598D01*
X77459306Y-89700500D01*
X77459311Y-89700500D01*
X78540689Y-89700500D01*
X78540694Y-89700500D01*
X78577569Y-89697598D01*
X78735398Y-89651744D01*
X78876865Y-89568081D01*
X78954364Y-89490581D01*
X78979422Y-89472375D01*
X78999554Y-89462119D01*
X79001187Y-89461287D01*
X79046126Y-89450500D01*
X79298866Y-89450500D01*
X79329457Y-89455345D01*
X79341794Y-89459353D01*
X79352683Y-89462891D01*
X79392096Y-89487042D01*
X79584417Y-89679363D01*
X79602622Y-89704421D01*
X79613709Y-89726180D01*
X79624500Y-89771126D01*
X79624500Y-93073865D01*
X79619654Y-93104458D01*
X79612107Y-93127685D01*
X79587957Y-93167096D01*
X78045636Y-94709417D01*
X78020579Y-94727621D01*
X77998821Y-94738708D01*
X77953874Y-94749500D01*
X77866420Y-94749500D01*
X77835827Y-94744654D01*
X77823141Y-94740532D01*
X77773641Y-94704568D01*
X77773640Y-94704567D01*
X77766656Y-94694954D01*
X77754526Y-94670190D01*
X77754220Y-94670323D01*
X77751747Y-94664608D01*
X77751744Y-94664603D01*
X77751744Y-94664602D01*
X77668081Y-94523135D01*
X77551865Y-94406919D01*
X77410398Y-94323256D01*
X77252569Y-94277402D01*
X77252568Y-94277401D01*
X77252565Y-94277401D01*
X77243380Y-94276678D01*
X77243373Y-94276677D01*
X77229140Y-94275558D01*
X77229139Y-94275557D01*
X77217653Y-94274654D01*
X77215694Y-94274500D01*
X77215692Y-94274500D01*
X76584307Y-94274500D01*
X76584306Y-94274500D01*
X76583454Y-94274566D01*
X76571772Y-94275485D01*
X76571773Y-94275486D01*
X76547441Y-94277400D01*
X76547437Y-94277400D01*
X76547434Y-94277401D01*
X76547427Y-94277403D01*
X76518073Y-94285931D01*
X76389603Y-94323255D01*
X76248137Y-94406917D01*
X76131917Y-94523137D01*
X76048255Y-94664603D01*
X76002410Y-94822400D01*
X76002401Y-94822435D01*
X76002400Y-94822438D01*
X76000242Y-94849868D01*
X75999500Y-94859311D01*
X75999500Y-95940688D01*
X76000066Y-95947894D01*
X76001677Y-95968373D01*
X76001678Y-95968381D01*
X76002401Y-95977565D01*
X76002401Y-95977568D01*
X76002402Y-95977569D01*
X76005259Y-95987403D01*
X76005260Y-95987408D01*
X76047245Y-96131919D01*
X76047249Y-96131932D01*
X76047738Y-96133616D01*
X76048149Y-96135140D01*
X76048257Y-96135402D01*
X76103943Y-96229561D01*
X76114220Y-96253830D01*
X76120990Y-96278574D01*
X76124500Y-96304700D01*
X76124500Y-96410493D01*
X76105593Y-96468684D01*
X76056093Y-96504648D01*
X75994907Y-96504648D01*
X75987322Y-96500000D01*
X75975000Y-96500000D01*
X75546674Y-96500000D01*
X75488483Y-96481093D01*
X75452519Y-96431593D01*
X75452519Y-96370407D01*
X75488483Y-96320907D01*
X75490340Y-96319661D01*
X75492086Y-96318353D01*
X75492088Y-96318353D01*
X75492090Y-96318352D01*
X75607184Y-96232192D01*
X75607192Y-96232184D01*
X75693352Y-96117090D01*
X75693353Y-96117088D01*
X75743596Y-95982381D01*
X75743598Y-95982370D01*
X75750000Y-95922824D01*
X75750000Y-95550001D01*
X75749999Y-95550000D01*
X75749998Y-95550000D01*
X75150002Y-95550000D01*
X75150001Y-95550000D01*
X75150000Y-95550001D01*
X75150000Y-95550002D01*
X75150000Y-96394691D01*
X75147562Y-96394691D01*
X75149877Y-96424115D01*
X75117906Y-96476283D01*
X75061377Y-96499695D01*
X75053613Y-96500000D01*
X74946387Y-96500000D01*
X74888196Y-96481093D01*
X74852232Y-96431593D01*
X74852232Y-96394691D01*
X74850000Y-96394691D01*
X74850000Y-95550002D01*
X74850000Y-95550001D01*
X74849999Y-95550000D01*
X74849998Y-95550000D01*
X74250002Y-95550000D01*
X74250001Y-95550000D01*
X74250000Y-95550001D01*
X74250000Y-95550002D01*
X74250000Y-95898588D01*
X74245154Y-95929182D01*
X74241774Y-95939584D01*
X74205809Y-95989084D01*
X74147618Y-96007990D01*
X74095900Y-95993406D01*
X74094580Y-95992597D01*
X74090994Y-95990400D01*
X74072713Y-95975990D01*
X73874060Y-95777337D01*
X73874059Y-95777335D01*
X73776219Y-95679495D01*
X73776216Y-95679493D01*
X73775734Y-95679215D01*
X73717585Y-95645642D01*
X73717581Y-95645640D01*
X73656391Y-95610312D01*
X73656393Y-95610312D01*
X73641608Y-95606350D01*
X73628145Y-95602743D01*
X73619950Y-95600547D01*
X73577568Y-95589191D01*
X73522737Y-95574499D01*
X73522735Y-95574499D01*
X73376795Y-95574499D01*
X73376731Y-95574500D01*
X70648269Y-95574500D01*
X70648205Y-95574499D01*
X70646692Y-95574499D01*
X70640629Y-95574499D01*
X70502263Y-95574499D01*
X70475787Y-95581593D01*
X70420464Y-95596416D01*
X70420463Y-95596415D01*
X70368606Y-95610311D01*
X70368602Y-95610313D01*
X70248789Y-95679487D01*
X70248780Y-95679494D01*
X70248781Y-95679495D01*
X70044004Y-95884272D01*
X69989487Y-95912049D01*
X69929055Y-95902478D01*
X69885790Y-95859213D01*
X69875000Y-95814268D01*
X69875000Y-95650001D01*
X69875000Y-95650000D01*
X69874999Y-95650000D01*
X69751219Y-95650000D01*
X69693028Y-95631093D01*
X69657064Y-95581593D01*
X69657064Y-95520407D01*
X69659753Y-95513120D01*
X69659794Y-95513021D01*
X69659796Y-95513016D01*
X69700501Y-95414744D01*
X69704354Y-95395372D01*
X69725500Y-95289069D01*
X69725500Y-94877175D01*
X74250000Y-94877175D01*
X74250000Y-95249999D01*
X74250001Y-95250000D01*
X74849998Y-95250000D01*
X74849999Y-95250000D01*
X74850000Y-95249999D01*
X74850000Y-94425001D01*
X75150000Y-94425001D01*
X75150000Y-95249999D01*
X75150001Y-95250000D01*
X75749998Y-95250000D01*
X75749999Y-95250000D01*
X75750000Y-95249999D01*
X75750000Y-94877175D01*
X75743598Y-94817629D01*
X75743596Y-94817618D01*
X75693353Y-94682911D01*
X75693352Y-94682909D01*
X75637496Y-94608296D01*
X75607193Y-94567816D01*
X75607182Y-94567805D01*
X75492094Y-94481650D01*
X75492088Y-94481646D01*
X75492085Y-94481645D01*
X75487624Y-94479981D01*
X75357381Y-94431403D01*
X75357373Y-94431401D01*
X75357371Y-94431401D01*
X75337521Y-94429267D01*
X75297824Y-94425000D01*
X75297822Y-94425000D01*
X75150002Y-94425000D01*
X75150001Y-94425000D01*
X75150000Y-94425001D01*
X74850000Y-94425001D01*
X74849999Y-94425000D01*
X74849998Y-94425000D01*
X74702177Y-94425000D01*
X74702176Y-94425000D01*
X74642629Y-94431401D01*
X74642627Y-94431401D01*
X74642620Y-94431402D01*
X74642618Y-94431403D01*
X74610579Y-94443353D01*
X74507913Y-94481645D01*
X74507910Y-94481646D01*
X74507904Y-94481650D01*
X74392816Y-94567805D01*
X74392805Y-94567816D01*
X74306650Y-94682904D01*
X74306648Y-94682906D01*
X74306647Y-94682909D01*
X74306646Y-94682911D01*
X74263625Y-94798255D01*
X74256404Y-94817616D01*
X74256403Y-94817619D01*
X74256402Y-94817626D01*
X74256401Y-94817629D01*
X74250000Y-94877175D01*
X69725500Y-94877175D01*
X69725500Y-93272824D01*
X73049999Y-93272824D01*
X73056401Y-93332370D01*
X73056403Y-93332381D01*
X73085606Y-93410677D01*
X73106645Y-93467085D01*
X73106646Y-93467088D01*
X73106650Y-93467094D01*
X73192805Y-93582182D01*
X73192816Y-93582193D01*
X73216602Y-93599999D01*
X73307909Y-93668352D01*
X73307911Y-93668353D01*
X73442618Y-93718596D01*
X73442629Y-93718598D01*
X73502176Y-93725000D01*
X73649998Y-93725000D01*
X73649999Y-93725000D01*
X73650000Y-93724999D01*
X73650000Y-92900001D01*
X73950000Y-92900001D01*
X73950000Y-93724999D01*
X73950001Y-93725000D01*
X74097820Y-93725000D01*
X74097824Y-93725000D01*
X74157370Y-93718598D01*
X74157381Y-93718596D01*
X74292088Y-93668353D01*
X74292090Y-93668352D01*
X74407184Y-93582192D01*
X74407192Y-93582184D01*
X74493352Y-93467090D01*
X74493353Y-93467088D01*
X74543596Y-93332381D01*
X74543598Y-93332370D01*
X74550000Y-93272824D01*
X74550000Y-92900001D01*
X74549999Y-92900000D01*
X74549998Y-92900000D01*
X73950002Y-92900000D01*
X73950001Y-92900000D01*
X73950000Y-92900001D01*
X73650000Y-92900001D01*
X73649999Y-92900000D01*
X73649998Y-92900000D01*
X73050002Y-92900000D01*
X73050001Y-92900000D01*
X73050000Y-92900001D01*
X73050000Y-93272824D01*
X73049999Y-93272824D01*
X69725500Y-93272824D01*
X69725500Y-92227175D01*
X73050000Y-92227175D01*
X73050000Y-92599999D01*
X73050001Y-92600000D01*
X73649998Y-92600000D01*
X73649999Y-92600000D01*
X73650000Y-92599999D01*
X73650000Y-91775001D01*
X73950000Y-91775001D01*
X73950000Y-92599999D01*
X73950001Y-92600000D01*
X74549998Y-92600000D01*
X74549999Y-92600000D01*
X74550000Y-92599999D01*
X74550000Y-92227175D01*
X74543598Y-92167629D01*
X74543596Y-92167618D01*
X74493353Y-92032911D01*
X74493352Y-92032909D01*
X74449797Y-91974728D01*
X74407193Y-91917816D01*
X74407182Y-91917805D01*
X74292094Y-91831650D01*
X74292088Y-91831646D01*
X74292085Y-91831645D01*
X74157381Y-91781403D01*
X74157373Y-91781401D01*
X74157371Y-91781401D01*
X74137521Y-91779267D01*
X74097824Y-91775000D01*
X74097822Y-91775000D01*
X73950002Y-91775000D01*
X73950001Y-91775000D01*
X73950000Y-91775001D01*
X73650000Y-91775001D01*
X73649999Y-91775000D01*
X73649998Y-91775000D01*
X73502177Y-91775000D01*
X73502176Y-91775000D01*
X73442629Y-91781401D01*
X73442627Y-91781401D01*
X73442620Y-91781402D01*
X73442618Y-91781403D01*
X73404994Y-91795436D01*
X73307913Y-91831645D01*
X73307910Y-91831646D01*
X73307904Y-91831650D01*
X73192816Y-91917805D01*
X73192805Y-91917816D01*
X73106650Y-92032904D01*
X73106647Y-92032909D01*
X73106646Y-92032911D01*
X73071444Y-92127293D01*
X73056404Y-92167616D01*
X73056403Y-92167619D01*
X73056401Y-92167627D01*
X73054754Y-92182952D01*
X73050000Y-92227175D01*
X69725500Y-92227175D01*
X69725500Y-91685931D01*
X69700501Y-91560256D01*
X69671014Y-91489069D01*
X69651464Y-91441870D01*
X69639269Y-91423619D01*
X69639269Y-91423620D01*
X69603124Y-91369526D01*
X69603117Y-91369512D01*
X69580280Y-91335334D01*
X69580278Y-91335332D01*
X69440584Y-91195637D01*
X69422378Y-91170578D01*
X69411290Y-91148816D01*
X69400500Y-91103872D01*
X69400500Y-90969321D01*
X70021934Y-90969321D01*
X70030505Y-91049037D01*
X70031401Y-91057370D01*
X70031403Y-91057381D01*
X70066460Y-91151373D01*
X70081645Y-91192085D01*
X70081646Y-91192088D01*
X70081650Y-91192094D01*
X70167805Y-91307182D01*
X70167816Y-91307193D01*
X70224728Y-91349797D01*
X70282909Y-91393352D01*
X70282911Y-91393353D01*
X70417618Y-91443596D01*
X70417629Y-91443598D01*
X70477176Y-91450000D01*
X70849998Y-91450000D01*
X70849999Y-91450000D01*
X70850000Y-91449999D01*
X70850000Y-90850001D01*
X70849999Y-90850000D01*
X70849998Y-90850000D01*
X70025002Y-90850000D01*
X70025001Y-90850000D01*
X70025000Y-90850001D01*
X70025000Y-90850002D01*
X70025000Y-90959888D01*
X70021934Y-90969321D01*
X69400500Y-90969321D01*
X69400500Y-90402175D01*
X70025000Y-90402175D01*
X70025000Y-90549999D01*
X70025001Y-90550000D01*
X70849998Y-90550000D01*
X70849999Y-90550000D01*
X70850000Y-90549999D01*
X70850000Y-89950001D01*
X70849999Y-89950000D01*
X70849998Y-89950000D01*
X70477177Y-89950000D01*
X70477176Y-89950000D01*
X70417629Y-89956401D01*
X70417627Y-89956401D01*
X70417620Y-89956402D01*
X70417618Y-89956403D01*
X70379702Y-89970545D01*
X70282913Y-90006645D01*
X70282910Y-90006646D01*
X70282904Y-90006650D01*
X70167816Y-90092805D01*
X70167805Y-90092816D01*
X70081650Y-90207904D01*
X70081647Y-90207908D01*
X70081647Y-90207909D01*
X70081646Y-90207911D01*
X70042308Y-90313382D01*
X70031404Y-90342616D01*
X70031403Y-90342619D01*
X70031402Y-90342626D01*
X70031401Y-90342629D01*
X70025000Y-90402175D01*
X69400500Y-90402175D01*
X69400500Y-90001134D01*
X69405344Y-89970545D01*
X69408452Y-89960979D01*
X69412891Y-89947314D01*
X69437040Y-89907905D01*
X69854366Y-89490579D01*
X69879418Y-89472378D01*
X69901185Y-89461288D01*
X69946126Y-89450500D01*
X69948867Y-89450500D01*
X69979458Y-89455344D01*
X70002684Y-89462891D01*
X70042095Y-89487042D01*
X70123132Y-89568078D01*
X70123135Y-89568081D01*
X70264602Y-89651744D01*
X70422431Y-89697598D01*
X70459306Y-89700500D01*
X70459311Y-89700500D01*
X71540689Y-89700500D01*
X71540694Y-89700500D01*
X71577569Y-89697598D01*
X71582825Y-89696070D01*
X71613546Y-89692189D01*
X71615271Y-89692243D01*
X71625483Y-89692563D01*
X71683052Y-89713283D01*
X71717003Y-89762398D01*
X71719688Y-89771126D01*
X71720122Y-89772534D01*
X71724500Y-89801650D01*
X71724500Y-89851143D01*
X71719654Y-89881737D01*
X71716133Y-89892573D01*
X71680169Y-89942073D01*
X71621979Y-89960979D01*
X71612182Y-89960979D01*
X71585725Y-89957143D01*
X71585725Y-89957146D01*
X71585697Y-89957139D01*
X71584070Y-89956904D01*
X71582370Y-89956400D01*
X71522824Y-89950000D01*
X71150001Y-89950000D01*
X71150000Y-89950001D01*
X71150000Y-91449999D01*
X71150001Y-91450000D01*
X71522820Y-91450000D01*
X71522824Y-91450000D01*
X71582370Y-91443598D01*
X71582381Y-91443596D01*
X71717088Y-91393353D01*
X71717090Y-91393352D01*
X71832184Y-91307192D01*
X71832192Y-91307184D01*
X71918352Y-91192090D01*
X71918353Y-91192088D01*
X71948358Y-91111640D01*
X71963587Y-91084673D01*
X71970675Y-91075747D01*
X72021671Y-91041939D01*
X72082785Y-91044556D01*
X72087501Y-91046314D01*
X72089426Y-91047032D01*
X72124842Y-91069788D01*
X72260331Y-91205277D01*
X72316672Y-91242922D01*
X72366873Y-91276465D01*
X72485256Y-91325501D01*
X72610931Y-91350500D01*
X72840444Y-91350500D01*
X72858920Y-91352239D01*
X72876928Y-91355662D01*
X72894753Y-91360820D01*
X72922746Y-91371859D01*
X72968436Y-91389877D01*
X73056898Y-91400500D01*
X73056900Y-91400500D01*
X74168100Y-91400500D01*
X74168102Y-91400500D01*
X74256564Y-91389877D01*
X74397342Y-91334361D01*
X74517922Y-91242922D01*
X74609361Y-91122342D01*
X74609953Y-91120842D01*
X74649771Y-91019873D01*
X74651309Y-91015968D01*
X74652146Y-91013846D01*
X74667873Y-90987163D01*
X74674511Y-90979117D01*
X74726120Y-90946265D01*
X74787190Y-90950021D01*
X74830969Y-90983933D01*
X74834706Y-90989077D01*
X74846708Y-91010945D01*
X74890632Y-91122328D01*
X74890638Y-91122341D01*
X74893562Y-91126398D01*
X74894727Y-91127734D01*
X74953532Y-91205279D01*
X74982078Y-91242922D01*
X75102658Y-91334361D01*
X75102659Y-91334361D01*
X75102660Y-91334362D01*
X75159734Y-91356869D01*
X75186409Y-91372594D01*
X75197994Y-91382151D01*
X75230042Y-91430828D01*
X75233050Y-91441157D01*
X75237000Y-91468840D01*
X75237000Y-91573075D01*
X75232153Y-91603671D01*
X75226202Y-91621984D01*
X75198682Y-91664607D01*
X75195903Y-91667136D01*
X75179665Y-91679130D01*
X75048141Y-91756913D01*
X74931917Y-91873137D01*
X74848255Y-92014603D01*
X74802410Y-92172400D01*
X74802401Y-92172432D01*
X74802401Y-92172434D01*
X74800486Y-92196773D01*
X74799500Y-92209306D01*
X74799500Y-93290694D01*
X74799697Y-93293195D01*
X74799877Y-93295485D01*
X74801677Y-93318374D01*
X74801678Y-93318381D01*
X74802401Y-93327565D01*
X74802401Y-93327568D01*
X74802402Y-93327569D01*
X74848256Y-93485398D01*
X74931919Y-93626865D01*
X75048135Y-93743081D01*
X75189602Y-93826744D01*
X75347431Y-93872598D01*
X75384306Y-93875500D01*
X75384311Y-93875500D01*
X76015689Y-93875500D01*
X76015694Y-93875500D01*
X76052569Y-93872598D01*
X76210398Y-93826744D01*
X76351865Y-93743081D01*
X76468081Y-93626865D01*
X76551744Y-93485398D01*
X76597598Y-93327569D01*
X76600500Y-93290694D01*
X76600500Y-92209306D01*
X76597598Y-92172431D01*
X76552298Y-92016510D01*
X76551908Y-92015124D01*
X76541508Y-91977101D01*
X76538000Y-91950982D01*
X76538000Y-91470397D01*
X76542845Y-91439806D01*
X76547484Y-91425528D01*
X76581006Y-91377858D01*
X76589512Y-91371270D01*
X76613811Y-91357441D01*
X76672342Y-91334361D01*
X76792922Y-91242922D01*
X76875669Y-91133802D01*
X76887443Y-91120842D01*
X76890216Y-91118285D01*
X76890218Y-91118286D01*
X76902697Y-91106781D01*
X76958296Y-91081246D01*
X77018271Y-91093257D01*
X77019464Y-91093927D01*
X77055345Y-91128431D01*
X77056821Y-91130834D01*
X77065221Y-91148052D01*
X77081643Y-91192079D01*
X77081647Y-91192090D01*
X77119696Y-91242917D01*
X77167805Y-91307182D01*
X77167816Y-91307193D01*
X77224728Y-91349797D01*
X77282909Y-91393352D01*
X77282911Y-91393353D01*
X77417618Y-91443596D01*
X77417629Y-91443598D01*
X77477176Y-91450000D01*
X77849998Y-91450000D01*
X77849999Y-91450000D01*
X77850000Y-91449999D01*
X77850000Y-90850001D01*
X78150000Y-90850001D01*
X78150000Y-91449999D01*
X78150001Y-91450000D01*
X78522820Y-91450000D01*
X78522824Y-91450000D01*
X78582370Y-91443598D01*
X78582381Y-91443596D01*
X78717088Y-91393353D01*
X78717090Y-91393352D01*
X78832184Y-91307192D01*
X78832192Y-91307184D01*
X78918352Y-91192090D01*
X78918353Y-91192088D01*
X78968596Y-91057381D01*
X78968598Y-91057370D01*
X78975000Y-90997824D01*
X78975000Y-90850001D01*
X78974999Y-90850000D01*
X78974998Y-90850000D01*
X78150002Y-90850000D01*
X78150001Y-90850000D01*
X78150000Y-90850001D01*
X77850000Y-90850001D01*
X77850000Y-89950001D01*
X78150000Y-89950001D01*
X78150000Y-90549999D01*
X78150001Y-90550000D01*
X78974998Y-90550000D01*
X78974999Y-90550000D01*
X78975000Y-90549999D01*
X78975000Y-90402175D01*
X78968598Y-90342629D01*
X78968596Y-90342618D01*
X78918353Y-90207911D01*
X78918352Y-90207909D01*
X78832192Y-90092815D01*
X78832184Y-90092807D01*
X78832182Y-90092805D01*
X78717094Y-90006650D01*
X78717088Y-90006646D01*
X78717085Y-90006645D01*
X78709012Y-90003634D01*
X78582381Y-89956403D01*
X78582373Y-89956401D01*
X78582371Y-89956401D01*
X78562521Y-89954267D01*
X78522824Y-89950000D01*
X78522822Y-89950000D01*
X78150002Y-89950000D01*
X78150001Y-89950000D01*
X78150000Y-89950001D01*
X77850000Y-89950001D01*
X77849999Y-89950000D01*
X77849998Y-89950000D01*
X77477177Y-89950000D01*
X77477176Y-89950000D01*
X77417629Y-89956401D01*
X77417627Y-89956401D01*
X77417620Y-89956402D01*
X77417618Y-89956403D01*
X77379702Y-89970545D01*
X77282913Y-90006645D01*
X77282910Y-90006646D01*
X77282904Y-90006650D01*
X77167816Y-90092805D01*
X77167805Y-90092816D01*
X77081646Y-90207908D01*
X77067338Y-90246274D01*
X77052104Y-90273249D01*
X77045019Y-90282170D01*
X76994023Y-90315979D01*
X76932962Y-90313382D01*
X76931675Y-90312903D01*
X76890860Y-90284337D01*
X76889249Y-90282447D01*
X76889248Y-90282447D01*
X76879675Y-90271214D01*
X76876162Y-90266846D01*
X76831468Y-90207909D01*
X76792922Y-90157078D01*
X76792917Y-90157074D01*
X76677734Y-90069727D01*
X76676398Y-90068562D01*
X76672341Y-90065638D01*
X76672339Y-90065637D01*
X76580306Y-90029344D01*
X76531563Y-90010122D01*
X76443110Y-89999500D01*
X76443106Y-89999500D01*
X76443102Y-89999500D01*
X75331898Y-89999500D01*
X75331893Y-89999500D01*
X75331888Y-89999500D01*
X75243434Y-90010123D01*
X75102663Y-90065635D01*
X75102660Y-90065636D01*
X75102660Y-90065637D01*
X75102656Y-90065640D01*
X75102565Y-90065708D01*
X74982083Y-90157073D01*
X74982073Y-90157083D01*
X74890708Y-90277565D01*
X74890634Y-90277664D01*
X74847847Y-90386165D01*
X74832122Y-90412840D01*
X74825497Y-90420872D01*
X74773885Y-90453732D01*
X74712815Y-90449979D01*
X74669034Y-90416071D01*
X74665293Y-90410922D01*
X74653293Y-90389060D01*
X74610272Y-90279969D01*
X74609493Y-90277834D01*
X74609363Y-90277662D01*
X74609362Y-90277660D01*
X74609361Y-90277659D01*
X74609361Y-90277658D01*
X74525018Y-90166436D01*
X74515695Y-90151564D01*
X74505936Y-90132410D01*
X74496364Y-90071987D01*
X74498453Y-90058800D01*
X74508024Y-90029346D01*
X74510164Y-90025147D01*
X74525000Y-89931484D01*
X74525000Y-89900001D01*
X74524999Y-89900000D01*
X74524998Y-89900000D01*
X73727180Y-89900000D01*
X73696587Y-89895154D01*
X73683901Y-89891032D01*
X73634401Y-89855068D01*
X73634394Y-89855058D01*
X73631400Y-89850936D01*
X73612500Y-89792756D01*
X73612500Y-89714680D01*
X73617343Y-89684094D01*
X73618880Y-89679363D01*
X73621465Y-89671405D01*
X73657423Y-89621906D01*
X73658022Y-89621471D01*
X73661563Y-89618900D01*
X73719743Y-89600000D01*
X74524997Y-89600000D01*
X74524998Y-89600000D01*
X74524999Y-89599999D01*
X74524999Y-89568516D01*
X74524999Y-89568219D01*
X74524804Y-89567294D01*
X74510166Y-89474858D01*
X74510164Y-89474852D01*
X74502049Y-89458925D01*
X74499346Y-89446052D01*
X74499516Y-89444469D01*
X74498453Y-89441199D01*
X74496365Y-89428017D01*
X74505935Y-89367589D01*
X74515218Y-89349371D01*
X74515217Y-89349370D01*
X74515692Y-89348439D01*
X74525015Y-89333568D01*
X74553941Y-89295424D01*
X74563309Y-89283071D01*
X74580548Y-89260337D01*
X74609361Y-89222342D01*
X74652153Y-89113827D01*
X74667871Y-89087165D01*
X74674508Y-89079120D01*
X74726117Y-89046266D01*
X74787187Y-89050020D01*
G37*
%TD.AperFunction*%
%TD*%
M02*
